999
"DXF R12 Output" (www.mydxf.blogspot.com)
 0 
SECTION
 2 
HEADER
 9 
$ACADVER
 1 
AC1009
 9 
$EXTMIN
 10 
 0 
 20 
 0 
 9 
$EXTMAX
 10 
 8.5 
 20 
 11 
 0 
ENDSEC
 0 
SECTION
 2 
ENTITIES
0
LINE
8
Layer 1
10
0.793749
20
297.793749
11
-0.793749
21
296.206251
0
LINE
8
Layer 1
10
0.000000
20
298.322915
11
0.000000
21
295.677085
0
LINE
8
Layer 1
10
2.116664
20
295.941668
11
1.058332
21
294.883336
0
LINE
8
Layer 1
10
1.587498
20
296.470834
11
0.529166
21
295.412502
0
LINE
8
Layer 1
10
1.058332
20
297.000000
11
0.000000
21
295.941668
0
LINE
8
Layer 1
10
57.189883
20
101.566860
11
57.331367
21
101.935688
0
LINE
8
Layer 1
10
57.331367
20
101.935688
11
57.320832
21
102.316914
0
LINE
8
Layer 1
10
57.320832
20
102.316914
11
57.168139
21
102.666384
0
LINE
8
Layer 1
10
57.168139
20
102.666384
11
56.883153
21
102.939944
0
LINE
8
Layer 1
10
56.883153
20
102.939944
11
56.514367
21
103.081540
0
LINE
8
Layer 1
10
56.514367
20
103.081540
11
56.133138
21
103.071121
0
LINE
8
Layer 1
10
56.133138
20
103.071121
11
55.783622
21
102.918534
0
LINE
8
Layer 1
10
55.783622
20
102.918534
11
55.509975
21
102.633631
0
LINE
8
Layer 1
10
55.509975
20
102.633631
11
55.355661
21
102.142140
0
LINE
8
Layer 1
10
55.355661
20
102.142140
11
55.467818
21
101.639351
0
LINE
8
Layer 1
10
55.467818
20
101.639351
11
55.816381
21
101.260036
0
LINE
8
Layer 1
10
55.816381
20
101.260036
11
56.307919
21
101.105872
0
LINE
8
Layer 1
10
56.307919
20
101.105872
11
56.810674
21
101.218181
0
LINE
8
Layer 1
10
56.810674
20
101.218181
11
57.189883
21
101.566860
0
LINE
8
Layer 1
10
93.490427
20
37.845869
11
94.641237
21
40.361878
0
LINE
8
Layer 1
10
94.641237
20
40.361878
11
95.614900
21
42.928214
0
LINE
8
Layer 1
10
95.614900
20
42.928214
11
96.411951
21
45.536165
0
LINE
8
Layer 1
10
96.411951
20
45.536165
11
97.032925
21
48.177020
0
LINE
8
Layer 1
10
97.032925
20
48.177020
11
97.478358
21
50.842067
0
LINE
8
Layer 1
10
97.478358
20
50.842067
11
97.748784
21
53.522594
0
LINE
8
Layer 1
10
97.748784
20
53.522594
11
97.844740
21
56.209890
0
LINE
8
Layer 1
10
97.844740
20
56.209890
11
97.766761
21
58.895242
0
LINE
8
Layer 1
10
97.766761
20
58.895242
11
97.515382
21
61.569939
0
LINE
8
Layer 1
10
97.515382
20
61.569939
11
97.091137
21
64.225270
0
LINE
8
Layer 1
10
97.091137
20
64.225270
11
96.494564
21
66.852523
0
LINE
8
Layer 1
10
96.494564
20
66.852523
11
95.726196
21
69.442985
0
LINE
8
Layer 1
10
95.726196
20
69.442985
11
94.786569
21
71.987946
0
LINE
8
Layer 1
10
94.786569
20
71.987946
11
93.676218
21
74.478693
0
LINE
8
Layer 1
10
93.676218
20
74.478693
11
92.395680
21
76.906515
0
LINE
8
Layer 1
10
92.395680
20
76.906515
11
90.945488
21
79.262701
0
LINE
8
Layer 1
10
90.945488
20
79.262701
11
89.341966
21
81.517336
0
LINE
8
Layer 1
10
89.341966
20
81.517336
11
87.606285
21
83.643721
0
LINE
8
Layer 1
10
87.606285
20
83.643721
11
85.746258
21
85.637963
0
LINE
8
Layer 1
10
85.746258
20
85.637963
11
83.769698
21
87.496169
0
LINE
8
Layer 1
10
83.769698
20
87.496169
11
81.684416
21
89.214449
0
LINE
8
Layer 1
10
81.684416
20
89.214449
11
79.498225
21
90.788909
0
LINE
8
Layer 1
10
79.498225
20
90.788909
11
77.218936
21
92.215657
0
LINE
8
Layer 1
10
77.218936
20
92.215657
11
74.854363
21
93.490801
0
LINE
8
Layer 1
10
74.854363
20
93.490801
11
72.412318
21
94.610449
0
LINE
8
Layer 1
10
72.412318
20
94.610449
11
69.900612
21
95.570708
0
LINE
8
Layer 1
10
69.900612
20
95.570708
11
67.327057
21
96.367686
0
LINE
8
Layer 1
10
67.327057
20
96.367686
11
64.699467
21
96.997491
0
LINE
8
Layer 1
10
64.699467
20
96.997491
11
62.025653
21
97.456231
0
LINE
8
Layer 1
10
62.025653
20
97.456231
11
59.313427
21
97.740013
0
LINE
8
Layer 1
10
59.313427
20
97.740013
11
56.570602
21
97.844945
0
LINE
8
Layer 1
10
56.570602
20
97.844945
11
53.804990
21
97.767135
0
LINE
8
Layer 1
10
53.804990
20
97.767135
11
51.050658
21
97.505761
0
LINE
8
Layer 1
10
51.050658
20
97.505761
11
48.341314
21
97.065810
0
LINE
8
Layer 1
10
48.341314
20
97.065810
11
45.684236
21
96.452101
0
LINE
8
Layer 1
10
45.684236
20
96.452101
11
43.086702
21
95.669452
0
LINE
8
Layer 1
10
43.086702
20
95.669452
11
40.555987
21
94.722685
0
LINE
8
Layer 1
10
40.555987
20
94.722685
11
38.099369
21
93.616618
0
LINE
8
Layer 1
10
38.099369
20
93.616618
11
35.724125
21
92.356071
0
LINE
8
Layer 1
10
35.724125
20
92.356071
11
33.437531
21
90.945862
0
LINE
8
Layer 1
10
33.437531
20
90.945862
11
31.246865
21
89.390813
0
LINE
8
Layer 1
10
31.246865
20
89.390813
11
29.159403
21
87.695741
0
LINE
8
Layer 1
10
29.159403
20
87.695741
11
27.182423
21
85.865467
0
LINE
8
Layer 1
10
27.182423
20
85.865467
11
25.323201
21
83.904809
0
LINE
8
Layer 1
10
25.323201
20
83.904809
11
23.589013
21
81.818588
0
LINE
8
Layer 1
10
23.589013
20
81.818588
11
21.987138
21
79.611623
0
LINE
8
Layer 1
10
21.987138
20
79.611623
11
20.524852
21
77.288733
0
LINE
8
Layer 1
10
20.524852
20
77.288733
11
19.209431
21
74.854738
0
LINE
8
Layer 1
10
19.209431
20
74.854738
11
17.509212
21
70.961801
0
LINE
8
Layer 1
10
17.509212
20
70.961801
11
16.234705
21
66.993687
0
LINE
8
Layer 1
10
16.234705
20
66.993687
11
15.376541
21
62.978367
0
LINE
8
Layer 1
10
15.376541
20
62.978367
11
14.925354
21
58.943809
0
LINE
8
Layer 1
10
14.925354
20
58.943809
11
14.871776
21
54.917986
0
LINE
8
Layer 1
10
14.871776
20
54.917986
11
15.206440
21
50.928865
0
LINE
8
Layer 1
10
15.206440
20
50.928865
11
15.919977
21
47.004419
0
LINE
8
Layer 1
10
15.919977
20
47.004419
11
17.003020
21
43.172616
0
LINE
8
Layer 1
10
17.003020
20
43.172616
11
18.446202
21
39.461428
0
LINE
8
Layer 1
10
18.446202
20
39.461428
11
20.240156
21
35.898824
0
LINE
8
Layer 1
10
20.240156
20
35.898824
11
22.375513
21
32.512775
0
LINE
8
Layer 1
10
22.375513
20
32.512775
11
24.842907
21
29.331251
0
LINE
8
Layer 1
10
24.842907
20
29.331251
11
27.632969
21
26.382221
0
LINE
8
Layer 1
10
27.632969
20
26.382221
11
30.736333
21
23.693657
0
LINE
8
Layer 1
10
30.736333
20
23.693657
11
34.143631
21
21.293528
0
LINE
8
Layer 1
10
34.143631
20
21.293528
11
37.845495
21
19.209805
0
LINE
8
Layer 1
10
37.845495
20
19.209805
11
41.738431
21
17.509586
0
LINE
8
Layer 1
10
41.738431
20
17.509586
11
45.706545
21
16.235079
0
LINE
8
Layer 1
10
45.706545
20
16.235079
11
49.721865
21
15.376916
0
LINE
8
Layer 1
10
49.721865
20
15.376916
11
53.756423
21
14.925729
0
LINE
8
Layer 1
10
53.756423
20
14.925729
11
57.782247
21
14.872151
0
LINE
8
Layer 1
10
57.782247
20
14.872151
11
61.771367
21
15.206814
0
LINE
8
Layer 1
10
61.771367
20
15.206814
11
65.695814
21
15.920351
0
LINE
8
Layer 1
10
65.695814
20
15.920351
11
69.527616
21
17.003394
0
LINE
8
Layer 1
10
69.527616
20
17.003394
11
73.238804
21
18.446576
0
LINE
8
Layer 1
10
73.238804
20
18.446576
11
76.801408
21
20.240530
0
LINE
8
Layer 1
10
76.801408
20
20.240530
11
80.187457
21
22.375887
0
LINE
8
Layer 1
10
80.187457
20
22.375887
11
83.368982
21
24.843281
0
LINE
8
Layer 1
10
83.368982
20
24.843281
11
86.318011
21
27.633344
0
LINE
8
Layer 1
10
86.318011
20
27.633344
11
89.006575
21
30.736707
0
LINE
8
Layer 1
10
89.006575
20
30.736707
11
91.406704
21
34.144005
0
LINE
8
Layer 1
10
91.406704
20
34.144005
11
93.490427
21
37.845869
0
LINE
8
Layer 1
10
95.130926
20
34.008719
11
94.989508
21
33.639909
0
LINE
8
Layer 1
10
94.989508
20
33.639909
11
95.000080
21
33.258722
0
LINE
8
Layer 1
10
95.000080
20
33.258722
11
95.152779
21
32.909296
0
LINE
8
Layer 1
10
95.152779
20
32.909296
11
95.437741
21
32.635770
0
LINE
8
Layer 1
10
95.437741
20
32.635770
11
95.806485
21
32.494180
0
LINE
8
Layer 1
10
95.806485
20
32.494180
11
96.187677
21
32.504575
0
LINE
8
Layer 1
10
96.187677
20
32.504575
11
96.537173
21
32.657111
0
LINE
8
Layer 1
10
96.537173
20
32.657111
11
96.810832
21
32.941945
0
LINE
8
Layer 1
10
96.810832
20
32.941945
11
96.952250
21
33.310755
0
LINE
8
Layer 1
10
96.952250
20
33.310755
11
96.941678
21
33.691942
0
LINE
8
Layer 1
10
96.941678
20
33.691942
11
96.788979
21
34.041368
0
LINE
8
Layer 1
10
96.788979
20
34.041368
11
96.504017
21
34.314894
0
LINE
8
Layer 1
10
96.504017
20
34.314894
11
96.135274
21
34.456484
0
LINE
8
Layer 1
10
96.135274
20
34.456484
11
95.754082
21
34.446089
0
LINE
8
Layer 1
10
95.754082
20
34.446089
11
95.404585
21
34.293553
0
LINE
8
Layer 1
10
95.404585
20
34.293553
11
95.130926
21
34.008719
0
LINE
8
Layer 1
10
17.723978
20
33.475332
11
17.645638
21
33.862466
0
LINE
8
Layer 1
10
17.645638
20
33.862466
11
17.432368
21
34.178571
0
LINE
8
Layer 1
10
17.432368
20
34.178571
11
17.116153
21
34.391678
0
LINE
8
Layer 1
10
17.116153
20
34.391678
11
16.728979
21
34.469818
0
LINE
8
Layer 1
10
16.728979
20
34.469818
11
16.341805
21
34.391678
0
LINE
8
Layer 1
10
16.341805
20
34.391678
11
16.025590
21
34.178571
0
LINE
8
Layer 1
10
16.025590
20
34.178571
11
15.812320
21
33.862466
0
LINE
8
Layer 1
10
15.812320
20
33.862466
11
15.733980
21
33.475332
0
LINE
8
Layer 1
10
15.733980
20
33.475332
11
15.812320
21
33.088198
0
LINE
8
Layer 1
10
15.812320
20
33.088198
11
16.025590
21
32.772093
0
LINE
8
Layer 1
10
16.025590
20
32.772093
11
16.341805
21
32.558986
0
LINE
8
Layer 1
10
16.341805
20
32.558986
11
16.728979
21
32.480846
0
LINE
8
Layer 1
10
16.728979
20
32.480846
11
17.116153
21
32.558986
0
LINE
8
Layer 1
10
17.116153
20
32.558986
11
17.432368
21
32.772093
0
LINE
8
Layer 1
10
17.432368
20
32.772093
11
17.645638
21
33.088198
0
LINE
8
Layer 1
10
17.645638
20
33.088198
11
17.723978
21
33.475332
0
LINE
8
Layer 1
10
103.676849
20
40.207382
11
103.469945
21
39.611276
0
LINE
8
Layer 1
10
103.469945
20
39.611276
11
103.254839
21
39.018346
0
LINE
8
Layer 1
10
103.254839
20
39.018346
11
103.032854
21
38.427267
0
LINE
8
Layer 1
10
103.032854
20
38.427267
11
102.802931
21
37.840422
0
LINE
8
Layer 1
10
102.802931
20
37.840422
11
102.565865
21
37.255429
0
LINE
8
Layer 1
10
102.565865
20
37.255429
11
102.320861
21
36.673347
0
LINE
8
Layer 1
10
102.320861
20
36.673347
11
102.068978
21
36.095233
0
LINE
8
Layer 1
10
102.068978
20
36.095233
11
101.809951
21
35.520294
0
LINE
8
Layer 1
10
101.809951
20
35.520294
11
101.542987
21
34.948266
0
LINE
8
Layer 1
10
101.542987
20
34.948266
11
101.269937
21
34.379412
0
LINE
8
Layer 1
10
101.269937
20
34.379412
11
100.988950
21
33.814263
0
LINE
8
Layer 1
10
100.988950
20
33.814263
11
100.700819
21
33.253347
0
LINE
8
Layer 1
10
100.700819
20
33.253347
11
100.405809
21
32.695341
0
LINE
8
Layer 1
10
100.405809
20
32.695341
11
100.103920
21
32.141834
0
LINE
8
Layer 1
10
100.103920
20
32.141834
11
99.794887
21
31.591501
0
LINE
8
Layer 1
10
99.794887
20
31.591501
11
99.479768
21
31.046460
0
LINE
8
Layer 1
10
99.479768
20
31.046460
11
99.156977
21
30.504065
0
LINE
8
Layer 1
10
99.156977
20
30.504065
11
98.826778
21
29.964316
0
LINE
8
Layer 1
10
98.826778
20
29.964316
11
98.490757
21
29.432504
0
LINE
8
Layer 1
10
98.490757
20
29.432504
11
98.147858
21
28.903338
0
LINE
8
Layer 1
10
98.147858
20
28.903338
11
97.798873
21
28.376818
0
LINE
8
Layer 1
10
97.798873
20
28.376818
11
97.441950
21
27.855589
0
LINE
8
Layer 1
10
97.441950
20
27.855589
11
97.080001
21
27.339652
0
LINE
8
Layer 1
10
97.080001
20
27.339652
11
96.709849
21
26.829007
0
LINE
8
Layer 1
10
96.709849
20
26.829007
11
96.334935
21
26.321008
0
LINE
8
Layer 1
10
96.334935
20
26.321008
11
95.952877
21
25.818300
0
LINE
8
Layer 1
10
95.952877
20
25.818300
11
95.563940
21
25.323530
0
LINE
8
Layer 1
10
95.563940
20
25.323530
11
95.169976
21
24.831405
0
LINE
8
Layer 1
10
95.169976
20
24.831405
11
94.768868
21
24.341927
0
LINE
8
Layer 1
10
94.768868
20
24.341927
11
94.361939
21
23.860386
0
LINE
8
Layer 1
10
94.361939
20
23.860386
11
93.948925
21
23.384136
0
LINE
8
Layer 1
10
93.948925
20
23.384136
11
93.529826
21
22.910533
0
LINE
8
Layer 1
10
93.529826
20
22.910533
11
93.104906
21
22.444867
0
LINE
8
Layer 1
10
93.104906
20
22.444867
11
92.674958
21
21.984492
0
LINE
8
Layer 1
10
92.674958
20
21.984492
11
92.237867
21
21.529410
0
LINE
8
Layer 1
10
92.237867
20
21.529410
11
91.796014
21
21.079618
0
LINE
8
Layer 1
10
91.796014
20
21.079618
11
91.347810
21
20.635119
0
LINE
8
Layer 1
10
91.347810
20
20.635119
11
90.894844
21
20.195911
0
LINE
8
Layer 1
10
90.894844
20
20.195911
11
90.435792
21
19.761995
0
LINE
8
Layer 1
10
90.435792
20
19.761995
11
89.971978
21
19.336016
0
LINE
8
Layer 1
10
89.971978
20
19.336016
11
89.501814
21
18.915330
0
LINE
8
Layer 1
10
89.501814
20
18.915330
11
89.026888
21
18.499934
0
LINE
8
Layer 1
10
89.026888
20
18.499934
11
88.546934
21
18.089831
0
LINE
8
Layer 1
10
88.546934
20
18.089831
11
88.060895
21
17.687664
0
LINE
8
Layer 1
10
88.060895
20
17.687664
11
87.570888
21
17.288144
0
LINE
8
Layer 1
10
87.570888
20
17.288144
11
87.075853
21
16.899207
0
LINE
8
Layer 1
10
87.075853
20
16.899207
11
86.575791
21
16.515562
0
LINE
8
Layer 1
10
86.575791
20
16.515562
11
86.070967
21
16.137208
0
LINE
8
Layer 1
10
86.070967
20
16.137208
11
85.560851
21
15.764146
0
LINE
8
Layer 1
10
85.560851
20
15.764146
11
85.046766
21
15.399021
0
LINE
8
Layer 1
10
85.046766
20
15.399021
11
84.527919
21
15.039189
0
LINE
8
Layer 1
10
84.527919
20
15.039189
11
84.003780
21
14.687293
0
LINE
8
Layer 1
10
84.003780
20
14.687293
11
83.475937
21
14.343335
0
LINE
8
Layer 1
10
83.475937
20
14.343335
11
82.943860
21
14.004669
0
LINE
8
Layer 1
10
82.943860
20
14.004669
11
82.407815
21
13.671294
0
LINE
8
Layer 1
10
82.407815
20
13.671294
11
81.867007
21
13.345857
0
LINE
8
Layer 1
10
81.867007
20
13.345857
11
81.323025
21
13.028358
0
LINE
8
Layer 1
10
81.323025
20
13.028358
11
80.774015
21
12.716150
0
LINE
8
Layer 1
10
80.774015
20
12.716150
11
80.221830
21
12.411879
0
LINE
8
Layer 1
10
80.221830
20
12.411879
11
79.664883
21
12.112901
0
LINE
8
Layer 1
10
79.664883
20
12.112901
11
79.105025
21
11.824505
0
LINE
8
Layer 1
10
79.105025
20
11.824505
11
78.541993
21
11.538755
0
LINE
8
Layer 1
10
78.541993
20
11.538755
11
77.974991
21
11.263589
0
LINE
8
Layer 1
10
77.974991
20
11.263589
11
77.404021
21
10.993714
0
LINE
8
Layer 1
10
77.404021
20
10.993714
11
76.829876
21
10.731777
0
LINE
8
Layer 1
10
76.829876
20
10.731777
11
76.252821
21
10.477778
0
LINE
8
Layer 1
10
76.252821
20
10.477778
11
75.672855
21
10.229070
0
LINE
8
Layer 1
10
75.672855
20
10.229070
11
75.088920
21
9.988299
0
LINE
8
Layer 1
10
75.088920
20
9.988299
11
74.502869
21
9.755466
0
LINE
8
Layer 1
10
74.502869
20
9.755466
11
73.913907
21
9.530571
0
LINE
8
Layer 1
10
73.913907
20
9.530571
11
73.322035
21
9.313612
0
LINE
8
Layer 1
10
73.322035
20
9.313612
11
72.726988
21
9.104592
0
LINE
8
Layer 1
10
72.726988
20
9.104592
11
72.129030
21
8.900863
0
LINE
8
Layer 1
10
72.129030
20
8.900863
11
71.528956
21
8.705072
0
LINE
8
Layer 1
10
71.528956
20
8.705072
11
70.927029
21
8.517218
0
LINE
8
Layer 1
10
70.927029
20
8.517218
11
70.321928
21
8.337301
0
LINE
8
Layer 1
10
70.321928
20
8.337301
11
69.716033
21
8.165322
0
LINE
8
Layer 1
10
69.716033
20
8.165322
11
69.106963
21
8.001281
0
LINE
8
Layer 1
10
69.106963
20
8.001281
11
68.496041
21
7.842531
0
LINE
8
Layer 1
10
68.496041
20
7.842531
11
67.883002
21
7.694364
0
LINE
8
Layer 1
10
67.883002
20
7.694364
11
67.267847
21
7.551490
0
LINE
8
Layer 1
10
67.267847
20
7.551490
11
66.650839
21
7.419198
0
LINE
8
Layer 1
10
66.650839
20
7.419198
11
66.033038
21
7.292198
0
LINE
8
Layer 1
10
66.033038
20
7.292198
11
65.412855
21
7.173136
0
LINE
8
Layer 1
10
65.412855
20
7.173136
11
64.791879
21
7.064657
0
LINE
8
Layer 1
10
64.791879
20
7.064657
11
64.169844
21
6.961470
0
LINE
8
Layer 1
10
64.169844
20
6.961470
11
63.545957
21
6.866220
0
LINE
8
Layer 1
10
63.545957
20
6.866220
11
62.921012
21
6.778907
0
LINE
8
Layer 1
10
62.921012
20
6.778907
11
62.295009
21
6.699532
0
LINE
8
Layer 1
10
62.295009
20
6.699532
11
61.667947
21
6.628095
0
LINE
8
Layer 1
10
61.667947
20
6.628095
11
61.039827
21
6.564595
0
LINE
8
Layer 1
10
61.039827
20
6.564595
11
60.411972
21
6.511678
0
LINE
8
Layer 1
10
60.411972
20
6.511678
11
59.782793
21
6.464054
0
LINE
8
Layer 1
10
59.782793
20
6.464054
11
59.152821
21
6.424366
0
LINE
8
Layer 1
10
59.152821
20
6.424366
11
58.522849
21
6.392616
0
LINE
8
Layer 1
10
58.522849
20
6.392616
11
57.892877
21
6.368804
0
LINE
8
Layer 1
10
57.892877
20
6.368804
11
57.261847
21
6.352929
0
LINE
8
Layer 1
10
57.261847
20
6.352929
11
56.630816
21
6.347637
0
LINE
8
Layer 1
10
56.630816
20
6.347637
11
56.000050
21
6.347637
0
LINE
8
Layer 1
10
56.000050
20
6.347637
11
55.369020
21
6.355574
0
LINE
8
Layer 1
10
55.369020
20
6.355574
11
54.739048
21
6.371449
0
LINE
8
Layer 1
10
54.739048
20
6.371449
11
54.108017
21
6.395262
0
LINE
8
Layer 1
10
54.108017
20
6.395262
11
53.478045
21
6.429658
0
LINE
8
Layer 1
10
53.478045
20
6.429658
11
52.847808
21
6.469345
0
LINE
8
Layer 1
10
52.847808
20
6.469345
11
52.218895
21
6.516970
0
LINE
8
Layer 1
10
52.218895
20
6.516970
11
51.591039
21
6.572533
0
LINE
8
Layer 1
10
51.591039
20
6.572533
11
50.962919
21
6.636032
0
LINE
8
Layer 1
10
50.962919
20
6.636032
11
50.336916
21
6.707470
0
LINE
8
Layer 1
10
50.336916
20
6.707470
11
49.710912
21
6.789491
0
LINE
8
Layer 1
10
49.710912
20
6.789491
11
49.085967
21
6.874157
0
LINE
8
Layer 1
10
49.085967
20
6.874157
11
48.461816
21
6.972053
0
LINE
8
Layer 1
10
48.461816
20
6.972053
11
47.840046
21
7.075240
0
LINE
8
Layer 1
10
47.840046
20
7.075240
11
47.219070
21
7.186365
0
LINE
8
Layer 1
10
47.219070
20
7.186365
11
46.598887
21
7.305427
0
LINE
8
Layer 1
10
46.598887
20
7.305427
11
45.980821
21
7.432427
0
LINE
8
Layer 1
10
45.980821
20
7.432427
11
45.364872
21
7.567365
0
LINE
8
Layer 1
10
45.364872
20
7.567365
11
44.749981
21
7.710239
0
LINE
8
Layer 1
10
44.749981
20
7.710239
11
44.138001
21
7.858406
0
LINE
8
Layer 1
10
44.138001
20
7.858406
11
43.526814
21
8.017156
0
LINE
8
Layer 1
10
43.526814
20
8.017156
11
42.918008
21
8.183843
0
LINE
8
Layer 1
10
42.918008
20
8.183843
11
42.311849
21
8.355822
0
LINE
8
Layer 1
10
42.311849
20
8.355822
11
41.707012
21
8.538384
0
LINE
8
Layer 1
10
41.707012
20
8.538384
11
41.104821
21
8.726238
0
LINE
8
Layer 1
10
41.104821
20
8.726238
11
40.505011
21
8.922030
0
LINE
8
Layer 1
10
40.505011
20
8.922030
11
39.907848
21
9.125759
0
LINE
8
Layer 1
10
39.907848
20
9.125759
11
39.313859
21
9.337425
0
LINE
8
Layer 1
10
39.313859
20
9.337425
11
38.721987
21
9.554383
0
LINE
8
Layer 1
10
38.721987
20
9.554383
11
38.133025
21
9.781924
0
LINE
8
Layer 1
10
38.133025
20
9.781924
11
37.546974
21
10.014757
0
LINE
8
Layer 1
10
37.546974
20
10.014757
11
36.963833
21
10.255528
0
LINE
8
Layer 1
10
36.963833
20
10.255528
11
36.383867
21
10.504236
0
LINE
8
Layer 1
10
36.383867
20
10.504236
11
35.807076
21
10.760881
0
LINE
8
Layer 1
10
35.807076
20
10.760881
11
35.232931
21
11.022819
0
LINE
8
Layer 1
10
35.232931
20
11.022819
11
34.663019
21
11.292693
0
LINE
8
Layer 1
10
34.663019
20
11.292693
11
34.097076
21
11.570505
0
LINE
8
Layer 1
10
34.097076
20
11.570505
11
33.532985
21
11.853609
0
LINE
8
Layer 1
10
33.532985
20
11.853609
11
32.973921
21
12.144651
0
LINE
8
Layer 1
10
32.973921
20
12.144651
11
32.418032
21
12.443629
0
LINE
8
Layer 1
10
32.418032
20
12.443629
11
31.865847
21
12.750546
0
LINE
8
Layer 1
10
31.865847
20
12.750546
11
31.317896
21
13.062754
0
LINE
8
Layer 1
10
31.317896
20
13.062754
11
30.773913
21
13.380253
0
LINE
8
Layer 1
10
30.773913
20
13.380253
11
30.232841
21
13.708336
0
LINE
8
Layer 1
10
30.232841
20
13.708336
11
29.697854
21
14.039065
0
LINE
8
Layer 1
10
29.697854
20
14.039065
11
29.166042
21
14.380377
0
LINE
8
Layer 1
10
29.166042
20
14.380377
11
28.638993
21
14.726981
0
LINE
8
Layer 1
10
28.638993
20
14.726981
11
28.115912
21
15.078876
0
LINE
8
Layer 1
10
28.115912
20
15.078876
11
27.597065
21
15.438709
0
LINE
8
Layer 1
10
27.597065
20
15.438709
11
27.082980
21
15.803833
0
LINE
8
Layer 1
10
27.082980
20
15.803833
11
26.573923
21
16.176895
0
LINE
8
Layer 1
10
26.573923
20
16.176895
11
26.069972
21
16.555249
0
LINE
8
Layer 1
10
26.069972
20
16.555249
11
25.569963
21
16.941540
0
LINE
8
Layer 1
10
25.569963
20
16.941540
11
25.074981
21
17.333123
0
LINE
8
Layer 1
10
25.074981
20
17.333123
11
24.584973
21
17.729998
0
LINE
8
Layer 1
10
24.584973
20
17.729998
11
24.100971
21
18.134810
0
LINE
8
Layer 1
10
24.100971
20
18.134810
11
23.620965
21
18.544913
0
LINE
8
Layer 1
10
23.620965
20
18.544913
11
23.146964
21
18.960309
0
LINE
8
Layer 1
10
23.146964
20
18.960309
11
22.677965
21
19.383641
0
LINE
8
Layer 1
10
22.677965
20
19.383641
11
22.213965
21
19.809620
0
LINE
8
Layer 1
10
22.213965
20
19.809620
11
21.755972
21
20.243536
0
LINE
8
Layer 1
10
21.755972
20
20.243536
11
21.302980
21
20.682744
0
LINE
8
Layer 1
10
21.302980
20
20.682744
11
20.855967
21
21.127243
0
LINE
8
Layer 1
10
20.855967
20
21.127243
11
20.413981
21
21.577034
0
LINE
8
Layer 1
10
20.413981
20
21.577034
11
19.977974
21
22.034763
0
LINE
8
Layer 1
10
19.977974
20
22.034763
11
19.547974
21
22.495137
0
LINE
8
Layer 1
10
19.547974
20
22.495137
11
19.123980
21
22.963449
0
LINE
8
Layer 1
10
19.123980
20
22.963449
11
18.705965
21
23.434407
0
LINE
8
Layer 1
10
18.705965
20
23.434407
11
18.292978
21
23.913302
0
LINE
8
Layer 1
10
18.292978
20
23.913302
11
17.886975
21
24.394843
0
LINE
8
Layer 1
10
17.886975
20
24.394843
11
17.486978
21
24.884322
0
LINE
8
Layer 1
10
17.486978
20
24.884322
11
17.092988
21
25.376446
0
LINE
8
Layer 1
10
17.092988
20
25.376446
11
16.704977
21
25.873862
0
LINE
8
Layer 1
10
16.704977
20
25.873862
11
16.323977
21
26.376570
0
LINE
8
Layer 1
10
16.323977
20
26.376570
11
15.948984
21
26.884569
0
LINE
8
Layer 1
10
15.948984
20
26.884569
11
15.580975
21
27.395215
0
LINE
8
Layer 1
10
15.580975
20
27.395215
11
15.218973
21
27.911152
0
LINE
8
Layer 1
10
15.218973
20
27.911152
11
14.862976
21
28.435026
0
LINE
8
Layer 1
10
14.862976
20
28.435026
11
14.513992
21
28.958900
0
LINE
8
Layer 1
10
14.513992
20
28.958900
11
14.171992
21
29.488066
0
LINE
8
Layer 1
10
14.171992
20
29.488066
11
13.835971
21
30.022524
0
LINE
8
Layer 1
10
13.835971
20
30.022524
11
13.507994
21
30.562273
0
LINE
8
Layer 1
10
13.507994
20
30.562273
11
13.185970
21
31.104668
0
LINE
8
Layer 1
10
13.185970
20
31.104668
11
12.870984
21
31.652355
0
LINE
8
Layer 1
10
12.870984
20
31.652355
11
12.561978
21
32.202688
0
LINE
8
Layer 1
10
12.561978
20
32.202688
11
12.260988
21
32.756460
0
LINE
8
Layer 1
10
12.260988
20
32.756460
11
11.966983
21
33.314201
0
LINE
8
Layer 1
10
11.966983
20
33.314201
11
11.679990
21
33.876440
0
LINE
8
Layer 1
10
11.679990
20
33.876440
11
11.399982
21
34.441325
0
LINE
8
Layer 1
10
11.399982
20
34.441325
11
11.126985
21
35.010443
0
LINE
8
Layer 1
10
11.126985
20
35.010443
11
10.860973
21
35.582206
0
LINE
8
Layer 1
10
10.860973
20
35.582206
11
10.602979
21
36.158204
0
LINE
8
Layer 1
10
10.602979
20
36.158204
11
10.351995
21
36.737376
0
LINE
8
Layer 1
10
10.351995
20
36.737376
11
10.107997
21
37.319458
0
LINE
8
Layer 1
10
10.107997
20
37.319458
11
9.871989
21
37.904451
0
LINE
8
Layer 1
10
9.871989
20
37.904451
11
9.642992
21
38.491297
0
LINE
8
Layer 1
10
9.642992
20
38.491297
11
9.420980
21
39.082375
0
LINE
8
Layer 1
10
9.420980
20
39.082375
11
9.206986
21
39.676364
0
LINE
8
Layer 1
10
9.206986
20
39.676364
11
8.999976
21
40.272205
0
LINE
8
Layer 1
10
8.999976
20
40.272205
11
8.800983
21
40.870427
0
LINE
8
Layer 1
10
8.800983
20
40.870427
11
8.609981
21
41.471295
0
LINE
8
Layer 1
10
8.609981
20
41.471295
11
8.425990
21
42.075338
0
LINE
8
Layer 1
10
8.425990
20
42.075338
11
8.249989
21
42.681233
0
LINE
8
Layer 1
10
8.249989
20
42.681233
11
8.081000
21
43.289245
0
LINE
8
Layer 1
10
8.081000
20
43.289245
11
7.920001
21
43.899373
0
LINE
8
Layer 1
10
7.920001
20
43.899373
11
7.766993
21
44.511354
0
LINE
8
Layer 1
10
7.766993
20
44.511354
11
7.620996
21
45.125186
0
LINE
8
Layer 1
10
7.620996
20
45.125186
11
7.483995
21
45.740342
0
LINE
8
Layer 1
10
7.483995
20
45.740342
11
7.353979
21
46.358407
0
LINE
8
Layer 1
10
7.353979
20
46.358407
11
7.231000
21
46.977267
0
LINE
8
Layer 1
10
7.231000
20
46.977267
11
7.116992
21
47.597185
0
LINE
8
Layer 1
10
7.116992
20
47.597185
11
7.011000
21
48.219220
0
LINE
8
Layer 1
10
7.011000
20
48.219220
11
6.911993
21
48.842313
0
LINE
8
Layer 1
10
6.911993
20
48.842313
11
6.821003
21
49.466199
0
LINE
8
Layer 1
10
6.821003
20
49.466199
11
6.738003
21
50.092203
0
LINE
8
Layer 1
10
6.738003
20
50.092203
11
6.662994
21
50.718206
0
LINE
8
Layer 1
10
6.662994
20
50.718206
11
6.596001
21
51.346326
0
LINE
8
Layer 1
10
6.596001
20
51.346326
11
6.536999
21
51.974182
0
LINE
8
Layer 1
10
6.536999
20
51.974182
11
6.485988
21
52.602302
0
LINE
8
Layer 1
10
6.485988
20
52.602302
11
6.441988
21
53.232274
0
LINE
8
Layer 1
10
6.441988
20
53.232274
11
6.406983
21
53.862246
0
LINE
8
Layer 1
10
6.406983
20
53.862246
11
6.379996
21
54.492218
0
LINE
8
Layer 1
10
6.379996
20
54.492218
11
6.359993
21
55.123248
0
LINE
8
Layer 1
10
6.359993
20
55.123248
11
6.348987
21
55.754279
0
LINE
8
Layer 1
10
6.348987
20
55.754279
11
6.344991
21
56.384251
0
LINE
8
Layer 1
10
6.344991
20
56.384251
11
6.348987
21
57.015282
0
LINE
8
Layer 1
10
6.348987
20
57.015282
11
6.362004
21
57.646312
0
LINE
8
Layer 1
10
6.362004
20
57.646312
11
6.381980
21
58.277342
0
LINE
8
Layer 1
10
6.381980
20
58.277342
11
6.409999
21
58.907315
0
LINE
8
Layer 1
10
6.409999
20
58.907315
11
6.446988
21
59.537287
0
LINE
8
Layer 1
10
6.446988
20
59.537287
11
6.490988
21
60.166200
0
LINE
8
Layer 1
10
6.490988
20
60.166200
11
6.542979
21
60.795379
0
LINE
8
Layer 1
10
6.542979
20
60.795379
11
6.602986
21
61.423234
0
LINE
8
Layer 1
10
6.602986
20
61.423234
11
6.670984
21
62.050296
0
LINE
8
Layer 1
10
6.670984
20
62.050296
11
6.746999
21
62.676299
0
LINE
8
Layer 1
10
6.746999
20
62.676299
11
6.831004
21
63.302303
0
LINE
8
Layer 1
10
6.831004
20
63.302303
11
6.921994
21
63.926189
0
LINE
8
Layer 1
10
6.921994
20
63.926189
11
7.021980
21
64.549282
0
LINE
8
Layer 1
10
7.021980
20
64.549282
11
7.129004
21
65.171317
0
LINE
8
Layer 1
10
7.129004
20
65.171317
11
7.243991
21
65.791235
0
LINE
8
Layer 1
10
7.243991
20
65.791235
11
7.366996
21
66.410359
0
LINE
8
Layer 1
10
7.366996
20
66.410359
11
7.497991
21
67.027367
0
LINE
8
Layer 1
10
7.497991
20
67.027367
11
7.637003
21
67.642258
0
LINE
8
Layer 1
10
7.637003
20
67.642258
11
7.783000
21
68.256355
0
LINE
8
Layer 1
10
7.783000
20
68.256355
11
7.936987
21
68.868335
0
LINE
8
Layer 1
10
7.936987
20
68.868335
11
8.098991
21
69.478199
0
LINE
8
Layer 1
10
8.098991
20
69.478199
11
8.267981
21
70.085417
0
LINE
8
Layer 1
10
8.267981
20
70.085417
11
8.445992
21
70.691312
0
LINE
8
Layer 1
10
8.445992
20
70.691312
11
8.629983
21
71.294297
0
LINE
8
Layer 1
10
8.629983
20
71.294297
11
8.822996
21
71.895165
0
LINE
8
Layer 1
10
8.822996
20
71.895165
11
9.022995
21
72.493387
0
LINE
8
Layer 1
10
9.022995
20
72.493387
11
9.229978
21
73.089228
0
LINE
8
Layer 1
10
9.229978
20
73.089228
11
9.444978
21
73.682158
0
LINE
8
Layer 1
10
9.444978
20
73.682158
11
9.666990
21
74.273237
0
LINE
8
Layer 1
10
9.666990
20
74.273237
11
9.896992
21
74.860347
0
LINE
8
Layer 1
10
9.896992
20
74.860347
11
10.133979
21
75.445340
0
LINE
8
Layer 1
10
10.133979
20
75.445340
11
10.378983
21
76.027158
0
LINE
8
Layer 1
10
10.378983
20
76.027158
11
10.630998
21
76.605271
0
LINE
8
Layer 1
10
10.630998
20
76.605271
11
10.889998
21
77.180210
0
LINE
8
Layer 1
10
10.889998
20
77.180210
11
11.156989
21
77.752239
0
LINE
8
Layer 1
10
11.156989
20
77.752239
11
11.429986
21
78.321357
0
LINE
8
Layer 1
10
11.429986
20
78.321357
11
11.710973
21
78.886241
0
LINE
8
Layer 1
10
11.710973
20
78.886241
11
11.998998
21
79.447157
0
LINE
8
Layer 1
10
11.998998
20
79.447157
11
12.293981
21
80.005163
0
LINE
8
Layer 1
10
12.293981
20
80.005163
11
12.595976
21
80.559200
0
LINE
8
Layer 1
10
12.595976
20
80.559200
11
12.904983
21
81.109268
0
LINE
8
Layer 1
10
12.904983
20
81.109268
11
13.219995
21
81.655367
0
LINE
8
Layer 1
10
13.219995
20
81.655367
11
13.542972
21
82.197233
0
LINE
8
Layer 1
10
13.542972
20
82.197233
11
13.872986
21
82.735395
0
LINE
8
Layer 1
10
13.872986
20
82.735395
11
14.208980
21
83.269323
0
LINE
8
Layer 1
10
14.208980
20
83.269323
11
14.551986
21
83.798225
0
LINE
8
Layer 1
10
14.551986
20
83.798225
11
14.900971
21
84.324216
0
LINE
8
Layer 1
10
14.900971
20
84.324216
11
15.257972
21
84.844386
0
LINE
8
Layer 1
10
15.257972
20
84.844386
11
15.619975
21
85.360323
0
LINE
8
Layer 1
10
15.619975
20
85.360323
11
15.989968
21
85.872291
0
LINE
8
Layer 1
10
15.989968
20
85.872291
11
16.364988
21
86.379232
0
LINE
8
Layer 1
10
16.364988
20
86.379232
11
16.746966
21
86.881146
0
LINE
8
Layer 1
10
16.746966
20
86.881146
11
17.135983
21
87.378297
0
LINE
8
Layer 1
10
17.135983
20
87.378297
11
17.529973
21
87.870157
0
LINE
8
Layer 1
10
17.529973
20
87.870157
11
17.930975
21
88.358313
0
LINE
8
Layer 1
10
17.930975
20
88.358313
11
18.337983
21
88.840383
0
LINE
8
Layer 1
10
18.337983
20
88.840383
11
18.750971
21
89.317162
0
LINE
8
Layer 1
10
18.750971
20
89.317162
11
19.169964
21
89.789178
0
LINE
8
Layer 1
10
19.169964
20
89.789178
11
19.594964
21
90.255373
0
LINE
8
Layer 1
10
19.594964
20
90.255373
11
20.024964
21
90.716277
0
LINE
8
Layer 1
10
20.024964
20
90.716277
11
20.461976
21
91.172153
0
LINE
8
Layer 1
10
20.461976
20
91.172153
11
20.903962
21
91.622209
0
LINE
8
Layer 1
10
20.903962
20
91.622209
11
21.351980
21
92.066179
0
LINE
8
Layer 1
10
21.351980
20
92.066179
11
21.804973
21
92.505387
0
LINE
8
Layer 1
10
21.804973
20
92.505387
11
22.263972
21
92.938245
0
LINE
8
Layer 1
10
22.263972
20
92.938245
11
22.727971
21
93.365282
0
LINE
8
Layer 1
10
22.727971
20
93.365282
11
23.197976
21
93.786233
0
LINE
8
Layer 1
10
23.197976
20
93.786233
11
23.672982
21
94.201364
0
LINE
8
Layer 1
10
23.672982
20
94.201364
11
24.152962
21
94.611203
0
LINE
8
Layer 1
10
24.152962
20
94.611203
11
24.638974
21
95.014163
0
LINE
8
Layer 1
10
24.638974
20
95.014163
11
25.128956
21
95.411302
0
LINE
8
Layer 1
10
25.128956
20
95.411302
11
25.623964
21
95.802356
0
LINE
8
Layer 1
10
25.623964
20
95.802356
11
26.123973
21
96.186265
0
LINE
8
Layer 1
10
26.123973
20
96.186265
11
26.628956
21
96.564355
0
LINE
8
Layer 1
10
26.628956
20
96.564355
11
27.139072
21
96.936358
0
LINE
8
Layer 1
10
27.139072
20
96.936358
11
27.652892
21
97.301218
0
LINE
8
Layer 1
10
27.652892
20
97.301218
11
28.172004
21
97.660257
0
LINE
8
Layer 1
10
28.172004
20
97.660257
11
28.695878
21
98.012153
0
LINE
8
Layer 1
10
28.695878
20
98.012153
11
29.223986
21
98.358227
0
LINE
8
Layer 1
10
29.223986
20
98.358227
11
29.756063
21
98.697158
0
LINE
8
Layer 1
10
29.756063
20
98.697158
11
30.291843
21
99.029210
0
LINE
8
Layer 1
10
30.291843
20
99.029210
11
30.832915
21
99.354118
0
LINE
8
Layer 1
10
30.832915
20
99.354118
11
31.376898
21
99.673205
0
LINE
8
Layer 1
10
31.376898
20
99.673205
11
31.925908
21
99.984354
0
LINE
8
Layer 1
10
31.925908
20
99.984354
11
32.477828
21
100.289154
0
LINE
8
Layer 1
10
32.477828
20
100.289154
11
33.035040
21
100.587339
0
LINE
8
Layer 1
10
33.035040
20
100.587339
11
33.594897
21
100.877322
0
LINE
8
Layer 1
10
33.594897
20
100.877322
11
34.157930
21
101.161220
0
LINE
8
Layer 1
10
34.157930
20
101.161220
11
34.724931
21
101.437180
0
LINE
8
Layer 1
10
34.724931
20
101.437180
11
35.295901
21
101.707319
0
LINE
8
Layer 1
10
35.295901
20
101.707319
11
35.870046
21
101.969256
0
LINE
8
Layer 1
10
35.870046
20
101.969256
11
36.446837
21
102.223256
0
LINE
8
Layer 1
10
36.446837
20
102.223256
11
37.027068
21
102.471170
0
LINE
8
Layer 1
10
37.027068
20
102.471170
11
37.611003
21
102.711147
0
LINE
8
Layer 1
10
37.611003
20
102.711147
11
38.197054
21
102.944244
0
LINE
8
Layer 1
10
38.197054
20
102.944244
11
38.786016
21
103.169140
0
LINE
8
Layer 1
10
38.786016
20
103.169140
11
39.377888
21
103.387156
0
LINE
8
Layer 1
10
39.377888
20
103.387156
11
39.972935
21
103.597235
0
LINE
8
Layer 1
10
39.972935
20
103.597235
11
40.570893
21
103.800170
0
LINE
8
Layer 1
10
40.570893
20
103.800170
11
41.170967
21
103.995168
0
LINE
8
Layer 1
10
41.170967
20
103.995168
11
41.772893
21
104.183287
0
LINE
8
Layer 1
10
41.772893
20
104.183287
11
42.377995
21
104.363203
0
LINE
8
Layer 1
10
42.377995
20
104.363203
11
42.983890
21
104.536240
0
LINE
8
Layer 1
10
42.983890
20
104.536240
11
43.592960
21
104.700282
0
LINE
8
Layer 1
10
43.592960
20
104.700282
11
44.203882
21
104.858238
0
LINE
8
Layer 1
10
44.203882
20
104.858238
11
44.816921
21
105.007198
0
LINE
8
Layer 1
10
44.816921
20
105.007198
11
45.431812
21
105.149279
0
LINE
8
Layer 1
10
45.431812
20
105.149279
11
46.048819
21
105.282364
0
LINE
8
Layer 1
10
46.048819
20
105.282364
11
46.666885
21
105.409364
0
LINE
8
Layer 1
10
46.666885
20
105.409364
11
47.287068
21
105.527368
0
LINE
8
Layer 1
10
47.287068
20
105.527368
11
47.908044
21
105.637170
0
LINE
8
Layer 1
10
47.908044
20
105.637170
11
48.529814
21
105.740358
0
LINE
8
Layer 1
10
48.529814
20
105.740358
11
49.153965
21
105.835343
0
LINE
8
Layer 1
10
49.153965
20
105.835343
11
49.778910
21
105.921332
0
LINE
8
Layer 1
10
49.778910
20
105.921332
11
50.404914
21
106.000178
0
LINE
8
Layer 1
10
50.404914
20
106.000178
11
51.031975
21
106.071351
0
LINE
8
Layer 1
10
51.031975
20
106.071351
11
51.659831
21
106.135115
0
LINE
8
Layer 1
10
51.659831
20
106.135115
11
52.287951
21
106.190149
0
LINE
8
Layer 1
10
52.287951
20
106.190149
11
52.916865
21
106.237244
0
LINE
8
Layer 1
10
52.916865
20
106.237244
11
53.546837
21
106.276138
0
LINE
8
Layer 1
10
53.546837
20
106.276138
11
54.176809
21
106.308153
0
LINE
8
Layer 1
10
54.176809
20
106.308153
11
54.807046
21
106.331171
0
LINE
8
Layer 1
10
54.807046
20
106.331171
11
55.437811
21
106.347311
0
LINE
8
Layer 1
10
55.437811
20
106.347311
11
56.068842
21
106.354190
0
LINE
8
Layer 1
10
56.068842
20
106.354190
11
56.699872
21
106.354190
0
LINE
8
Layer 1
10
56.699872
20
106.354190
11
57.330903
21
106.345194
0
LINE
8
Layer 1
10
57.330903
20
106.345194
11
57.960875
21
106.329319
0
LINE
8
Layer 1
10
57.960875
20
106.329319
11
58.591905
21
106.305242
0
LINE
8
Layer 1
10
58.591905
20
106.305242
11
59.221877
21
106.272169
0
LINE
8
Layer 1
10
59.221877
20
106.272169
11
59.851850
21
106.232217
0
LINE
8
Layer 1
10
59.851850
20
106.232217
11
60.481028
21
106.184328
0
LINE
8
Layer 1
10
60.481028
20
106.184328
11
61.108883
21
106.128236
0
LINE
8
Layer 1
10
61.108883
20
106.128236
11
61.737003
21
106.064207
0
LINE
8
Layer 1
10
61.737003
20
106.064207
11
62.363007
21
105.992241
0
LINE
8
Layer 1
10
62.363007
20
105.992241
11
62.989010
21
105.912337
0
LINE
8
Layer 1
10
62.989010
20
105.912337
11
63.613955
21
105.825289
0
LINE
8
Layer 1
10
63.613955
20
105.825289
11
64.237842
21
105.729245
0
LINE
8
Layer 1
10
64.237842
20
105.729245
11
64.859877
21
105.626322
0
LINE
8
Layer 1
10
64.859877
20
105.626322
11
65.480853
21
105.514139
0
LINE
8
Layer 1
10
65.480853
20
105.514139
11
66.101035
21
105.395341
0
LINE
8
Layer 1
10
66.101035
20
105.395341
11
66.718837
21
105.268342
0
LINE
8
Layer 1
10
66.718837
20
105.268342
11
67.334786
21
105.134198
0
LINE
8
Layer 1
10
67.334786
20
105.134198
11
67.949941
21
104.991323
0
LINE
8
Layer 1
10
67.949941
20
104.991323
11
68.561922
21
104.841305
0
LINE
8
Layer 1
10
68.561922
20
104.841305
11
69.172844
21
104.683349
0
LINE
8
Layer 1
10
69.172844
20
104.683349
11
69.781914
21
104.517190
0
LINE
8
Layer 1
10
69.781914
20
104.517190
11
70.387809
21
104.344153
0
LINE
8
Layer 1
10
70.387809
20
104.344153
11
70.992911
21
104.163178
0
LINE
8
Layer 1
10
70.992911
20
104.163178
11
71.594837
21
103.974266
0
LINE
8
Layer 1
10
71.594837
20
103.974266
11
72.194911
21
103.778210
0
LINE
8
Layer 1
10
72.194911
20
103.778210
11
72.791810
21
103.575275
0
LINE
8
Layer 1
10
72.791810
20
103.575275
11
73.385799
21
103.363344
0
LINE
8
Layer 1
10
73.385799
20
103.363344
11
73.977936
21
103.145328
0
LINE
8
Layer 1
10
73.977936
20
103.145328
11
74.566898
21
102.919374
0
LINE
8
Layer 1
10
74.566898
20
102.919374
11
75.152949
21
102.685218
0
LINE
8
Layer 1
10
75.152949
20
102.685218
11
75.735825
21
102.444183
0
LINE
8
Layer 1
10
75.735825
20
102.444183
11
76.315791
21
102.196268
0
LINE
8
Layer 1
10
76.315791
20
102.196268
11
76.892847
21
101.940152
0
LINE
8
Layer 1
10
76.892847
20
101.940152
11
77.466992
21
101.678215
0
LINE
8
Layer 1
10
77.466992
20
101.678215
11
78.036904
21
101.408340
0
LINE
8
Layer 1
10
78.036904
20
101.408340
11
78.602847
21
101.130263
0
LINE
8
Layer 1
10
78.602847
20
101.130263
11
79.166938
21
100.846366
0
LINE
8
Layer 1
10
79.166938
20
100.846366
11
79.726002
21
100.555325
0
LINE
8
Layer 1
10
79.726002
20
100.555325
11
80.281891
21
100.256346
0
LINE
8
Layer 1
10
80.281891
20
100.256346
11
80.833811
21
99.951282
0
LINE
8
Layer 1
10
80.833811
20
99.951282
11
81.382027
21
99.638280
0
LINE
8
Layer 1
10
81.382027
20
99.638280
11
81.926009
21
99.319193
0
LINE
8
Layer 1
10
81.926009
20
99.319193
11
82.466817
21
98.993227
0
LINE
8
Layer 1
10
82.466817
20
98.993227
11
83.001804
21
98.660381
0
LINE
8
Layer 1
10
83.001804
20
98.660381
11
83.533880
21
98.321186
0
LINE
8
Layer 1
10
83.533880
20
98.321186
11
84.060930
21
97.974317
0
LINE
8
Layer 1
10
84.060930
20
97.974317
11
84.584010
21
97.621364
0
LINE
8
Layer 1
10
84.584010
20
97.621364
11
85.102857
21
97.262325
0
LINE
8
Layer 1
10
85.102857
20
97.262325
11
85.616942
21
96.896142
0
LINE
8
Layer 1
10
85.616942
20
96.896142
11
86.126000
21
96.523344
0
LINE
8
Layer 1
10
86.126000
20
96.523344
11
86.629766
21
96.144197
0
LINE
8
Layer 1
10
86.629766
20
96.144197
11
87.129828
21
95.759229
0
LINE
8
Layer 1
10
87.129828
20
95.759229
11
87.624863
21
95.368175
0
LINE
8
Layer 1
10
87.624863
20
95.368175
11
88.114870
21
94.970242
0
LINE
8
Layer 1
10
88.114870
20
94.970242
11
88.598793
21
94.566224
0
LINE
8
Layer 1
10
88.598793
20
94.566224
11
89.079011
21
94.156385
0
LINE
8
Layer 1
10
89.079011
20
94.156385
11
89.552879
21
93.740196
0
LINE
8
Layer 1
10
89.552879
20
93.740196
11
90.021985
21
93.318186
0
LINE
8
Layer 1
10
90.021985
20
93.318186
11
90.485799
21
92.891149
0
LINE
8
Layer 1
10
90.485799
20
92.891149
11
90.943792
21
92.457233
0
LINE
8
Layer 1
10
90.943792
20
92.457233
11
91.396758
21
92.018289
0
LINE
8
Layer 1
10
91.396758
20
92.018289
11
91.843903
21
91.573261
0
LINE
8
Layer 1
10
91.843903
20
91.573261
11
92.285757
21
91.122147
0
LINE
8
Layer 1
10
92.285757
20
91.122147
11
92.721789
21
90.666270
0
LINE
8
Layer 1
10
92.721789
20
90.666270
11
93.152001
21
90.204308
0
LINE
8
Layer 1
10
93.152001
20
90.204308
11
93.575863
21
89.737319
0
LINE
8
Layer 1
10
93.575863
20
89.737319
11
93.993904
21
89.265303
0
LINE
8
Layer 1
10
93.993904
20
89.265303
11
94.406919
21
88.787202
0
LINE
8
Layer 1
10
94.406919
20
88.787202
11
94.812789
21
88.305132
0
LINE
8
Layer 1
10
94.812789
20
88.305132
11
95.212838
21
87.817241
0
LINE
8
Layer 1
10
95.212838
20
87.817241
11
95.606802
21
87.324322
0
LINE
8
Layer 1
10
95.606802
20
87.324322
11
95.994946
21
86.826377
0
LINE
8
Layer 1
10
95.994946
20
86.826377
11
96.375945
21
86.324199
0
LINE
8
Layer 1
10
96.375945
20
86.324199
11
96.750859
21
85.816199
0
LINE
8
Layer 1
10
96.750859
20
85.816199
11
97.118894
21
85.304231
0
LINE
8
Layer 1
10
97.118894
20
85.304231
11
97.480844
21
84.788294
0
LINE
8
Layer 1
10
97.480844
20
84.788294
11
97.836973
21
84.266272
0
LINE
8
Layer 1
10
97.836973
20
84.266272
11
98.185958
21
83.741340
0
LINE
8
Layer 1
10
98.185958
20
83.741340
11
98.527799
21
83.211380
0
LINE
8
Layer 1
10
98.527799
20
83.211380
11
98.863819
21
82.677187
0
LINE
8
Layer 1
10
98.863819
20
82.677187
11
99.191902
21
82.138231
0
LINE
8
Layer 1
10
99.191902
20
82.138231
11
99.513900
21
81.596365
0
LINE
8
Layer 1
10
99.513900
20
81.596365
11
99.828753
21
81.049207
0
LINE
8
Layer 1
10
99.828753
20
81.049207
11
100.137786
21
80.498346
0
LINE
8
Layer 1
10
100.137786
20
80.498346
11
100.438882
21
79.944309
0
LINE
8
Layer 1
10
100.438882
20
79.944309
11
100.732834
21
79.386303
0
LINE
8
Layer 1
10
100.732834
20
79.386303
11
101.019906
21
78.824329
0
LINE
8
Layer 1
10
101.019906
20
78.824329
11
101.299835
21
78.259180
0
LINE
8
Layer 1
10
101.299835
20
78.259180
11
101.572885
21
77.690326
0
LINE
8
Layer 1
10
101.572885
20
77.690326
11
101.838790
21
77.118298
0
LINE
8
Layer 1
10
101.838790
20
77.118298
11
102.096759
21
76.542301
0
LINE
8
Layer 1
10
102.096759
20
76.542301
11
102.347848
21
75.963393
0
LINE
8
Layer 1
10
102.347848
20
75.963393
11
102.591794
21
75.381310
0
LINE
8
Layer 1
10
102.591794
20
75.381310
11
102.827802
21
74.796317
0
LINE
8
Layer 1
10
102.827802
20
74.796317
11
103.056931
21
74.209208
0
LINE
8
Layer 1
10
103.056931
20
74.209208
11
103.278916
21
73.618394
0
LINE
8
Layer 1
10
103.278916
20
73.618394
11
103.492963
21
73.024405
0
LINE
8
Layer 1
10
103.492963
20
73.024405
11
103.699867
21
72.428300
0
LINE
8
Layer 1
10
103.699867
20
72.428300
11
103.898834
21
71.830342
0
LINE
8
Layer 1
10
103.898834
20
71.830342
11
104.089863
21
71.229209
0
LINE
8
Layer 1
10
104.089863
20
71.229209
11
104.273748
21
70.625166
0
LINE
8
Layer 1
10
104.273748
20
70.625166
11
104.449960
21
70.019271
0
LINE
8
Layer 1
10
104.449960
20
70.019271
11
104.618764
21
69.411260
0
LINE
8
Layer 1
10
104.618764
20
69.411260
11
104.779895
21
68.801396
0
LINE
8
Layer 1
10
104.779895
20
68.801396
11
104.932824
21
68.189415
0
LINE
8
Layer 1
10
104.932824
20
68.189415
11
105.078874
21
67.575318
0
LINE
8
Layer 1
10
105.078874
20
67.575318
11
105.215928
21
66.960163
0
LINE
8
Layer 1
10
105.215928
20
66.960163
11
105.345838
21
66.342361
0
LINE
8
Layer 1
10
105.345838
20
66.342361
11
105.468869
21
65.723237
0
LINE
8
Layer 1
10
105.468869
20
65.723237
11
105.582904
21
65.103319
0
LINE
8
Layer 1
10
105.582904
20
65.103319
11
105.688738
21
64.481285
0
LINE
8
Layer 1
10
105.688738
20
64.481285
11
105.787956
21
63.858192
0
LINE
8
Layer 1
10
105.787956
20
63.858192
11
105.878973
21
63.234305
0
LINE
8
Layer 1
10
105.878973
20
63.234305
11
105.961787
21
62.608302
0
LINE
8
Layer 1
10
105.961787
20
62.608302
11
106.036929
21
61.982298
0
LINE
8
Layer 1
10
106.036929
20
61.982298
11
106.103868
21
61.354178
0
LINE
8
Layer 1
10
106.103868
20
61.354178
11
106.162870
21
60.726323
0
LINE
8
Layer 1
10
106.162870
20
60.726323
11
106.213935
21
60.098203
0
LINE
8
Layer 1
10
106.213935
20
60.098203
11
106.257856
21
59.468231
0
LINE
8
Layer 1
10
106.257856
20
59.468231
11
106.292781
21
58.838258
0
LINE
8
Layer 1
10
106.292781
20
58.838258
11
106.319768
21
58.208286
0
LINE
8
Layer 1
10
106.319768
20
58.208286
11
106.339876
21
57.577256
0
LINE
8
Layer 1
10
106.339876
20
57.577256
11
106.350989
21
56.946225
0
LINE
8
Layer 1
10
106.350989
20
56.946225
11
106.354958
21
56.316253
0
LINE
8
Layer 1
10
106.354958
20
56.316253
11
106.350989
21
55.685223
0
LINE
8
Layer 1
10
106.350989
20
55.685223
11
106.337760
21
55.054192
0
LINE
8
Layer 1
10
106.337760
20
55.054192
11
106.317916
21
54.423426
0
LINE
8
Layer 1
10
106.317916
20
54.423426
11
106.289870
21
53.793190
0
LINE
8
Layer 1
10
106.289870
20
53.793190
11
106.252829
21
53.163218
0
LINE
8
Layer 1
10
106.252829
20
53.163218
11
106.208908
21
52.534304
0
LINE
8
Layer 1
10
106.208908
20
52.534304
11
106.156785
21
51.905390
0
LINE
8
Layer 1
10
106.156785
20
51.905390
11
106.096989
21
51.277270
0
LINE
8
Layer 1
10
106.096989
20
51.277270
11
106.028991
21
50.650208
0
LINE
8
Layer 1
10
106.028991
20
50.650208
11
105.952792
21
50.024205
0
LINE
8
Layer 1
10
105.952792
20
50.024205
11
105.868919
21
49.398202
0
LINE
8
Layer 1
10
105.868919
20
49.398202
11
105.777902
21
48.774315
0
LINE
8
Layer 1
10
105.777902
20
48.774315
11
105.677890
21
48.151222
0
LINE
8
Layer 1
10
105.677890
20
48.151222
11
105.570998
21
47.529187
0
LINE
8
Layer 1
10
105.570998
20
47.529187
11
105.455905
21
46.909269
0
LINE
8
Layer 1
10
105.455905
20
46.909269
11
105.332874
21
46.290410
0
LINE
8
Layer 1
10
105.332874
20
46.290410
11
105.201905
21
45.673402
0
LINE
8
Layer 1
10
105.201905
20
45.673402
11
105.062999
21
45.058247
0
LINE
8
Layer 1
10
105.062999
20
45.058247
11
104.916949
21
44.444414
0
LINE
8
Layer 1
10
104.916949
20
44.444414
11
104.762962
21
43.832434
0
LINE
8
Layer 1
10
104.762962
20
43.832434
11
104.600772
21
43.222305
0
LINE
8
Layer 1
10
104.600772
20
43.222305
11
104.431968
21
42.615352
0
LINE
8
Layer 1
10
104.431968
20
42.615352
11
104.253904
21
42.009192
0
LINE
8
Layer 1
10
104.253904
20
42.009192
11
104.069754
21
41.406207
0
LINE
8
Layer 1
10
104.069754
20
41.406207
11
103.876873
21
40.805339
0
LINE
8
Layer 1
10
103.876873
20
40.805339
11
103.676849
21
40.207382
0
LINE
8
Layer 1
10
141.730754
20
43.187055
11
142.036713
21
41.493956
0
LINE
8
Layer 1
10
142.036713
20
41.493956
11
142.654834
21
39.943119
0
LINE
8
Layer 1
10
142.654834
20
39.943119
11
143.548403
21
38.565921
0
LINE
8
Layer 1
10
143.548403
20
38.565921
11
144.680706
21
37.393736
0
LINE
8
Layer 1
10
144.680706
20
37.393736
11
146.015027
21
36.457942
0
LINE
8
Layer 1
10
146.015027
20
36.457942
11
147.514654
21
35.789915
0
LINE
8
Layer 1
10
147.514654
20
35.789915
11
149.142871
21
35.421029
0
LINE
8
Layer 1
10
149.142871
20
35.421029
11
150.862965
21
35.382662
0
LINE
8
Layer 1
10
150.862965
20
35.382662
11
152.556115
21
35.688341
0
LINE
8
Layer 1
10
152.556115
20
35.688341
11
154.107054
21
36.306206
0
LINE
8
Layer 1
10
154.107054
20
36.306206
11
155.484400
21
37.199547
0
LINE
8
Layer 1
10
155.484400
20
37.199547
11
156.656771
21
38.331656
0
LINE
8
Layer 1
10
156.656771
20
38.331656
11
157.592786
21
39.665823
0
LINE
8
Layer 1
10
157.592786
20
39.665823
11
158.261061
21
41.165339
0
LINE
8
Layer 1
10
158.261061
20
41.165339
11
158.630216
21
42.793496
0
LINE
8
Layer 1
10
158.630216
20
42.793496
11
158.668867
21
44.513583
0
LINE
8
Layer 1
10
158.668867
20
44.513583
11
158.362908
21
46.206682
0
LINE
8
Layer 1
10
158.362908
20
46.206682
11
157.744787
21
47.757519
0
LINE
8
Layer 1
10
157.744787
20
47.757519
11
156.851218
21
49.134717
0
LINE
8
Layer 1
10
156.851218
20
49.134717
11
155.718916
21
50.306902
0
LINE
8
Layer 1
10
155.718916
20
50.306902
11
154.384594
21
51.242696
0
LINE
8
Layer 1
10
154.384594
20
51.242696
11
152.884967
21
51.910723
0
LINE
8
Layer 1
10
152.884967
20
51.910723
11
151.256750
21
52.279609
0
LINE
8
Layer 1
10
151.256750
20
52.279609
11
149.536656
21
52.317976
0
LINE
8
Layer 1
10
149.536656
20
52.317976
11
147.843507
21
52.012297
0
LINE
8
Layer 1
10
147.843507
20
52.012297
11
146.292568
21
51.394432
0
LINE
8
Layer 1
10
146.292568
20
51.394432
11
144.915222
21
50.501090
0
LINE
8
Layer 1
10
144.915222
20
50.501090
11
143.742850
21
49.368982
0
LINE
8
Layer 1
10
143.742850
20
49.368982
11
142.806836
21
48.034815
0
LINE
8
Layer 1
10
142.806836
20
48.034815
11
142.138560
21
46.535299
0
LINE
8
Layer 1
10
142.138560
20
46.535299
11
141.769405
21
44.907142
0
LINE
8
Layer 1
10
141.769405
20
44.907142
11
141.730754
21
43.187055
0
LINE
8
Layer 1
10
112.808931
20
40.922285
11
112.770831
21
41.466268
0
LINE
8
Layer 1
10
112.770831
20
41.466268
11
112.739875
21
42.010250
0
LINE
8
Layer 1
10
112.739875
20
42.010250
11
112.716856
21
42.555291
0
LINE
8
Layer 1
10
112.716856
20
42.555291
11
112.701775
21
43.101391
0
LINE
8
Layer 1
10
112.701775
20
43.101391
11
112.695954
21
43.646432
0
LINE
8
Layer 1
10
112.695954
20
43.646432
11
112.696748
21
44.192266
0
LINE
8
Layer 1
10
112.696748
20
44.192266
11
112.704950
21
44.737307
0
LINE
8
Layer 1
10
112.704950
20
44.737307
11
112.721883
21
45.282348
0
LINE
8
Layer 1
10
112.721883
20
45.282348
11
112.746754
21
45.827389
0
LINE
8
Layer 1
10
112.746754
20
45.827389
11
112.779827
21
46.372430
0
LINE
8
Layer 1
10
112.779827
20
46.372430
11
112.820837
21
46.916413
0
LINE
8
Layer 1
10
112.820837
20
46.916413
11
112.868727
21
47.459337
0
LINE
8
Layer 1
10
112.868727
20
47.459337
11
112.924818
21
48.002262
0
LINE
8
Layer 1
10
112.924818
20
48.002262
11
112.989906
21
48.543334
0
LINE
8
Layer 1
10
112.989906
20
48.543334
11
113.061872
21
49.084406
0
LINE
8
Layer 1
10
113.061872
20
49.084406
11
113.141776
21
49.623362
0
LINE
8
Layer 1
10
113.141776
20
49.623362
11
113.229882
21
50.162317
0
LINE
8
Layer 1
10
113.229882
20
50.162317
11
113.325926
21
50.699421
0
LINE
8
Layer 1
10
113.325926
20
50.699421
11
113.428849
21
51.234408
0
LINE
8
Layer 1
10
113.428849
20
51.234408
11
113.539974
21
51.768336
0
LINE
8
Layer 1
10
113.539974
20
51.768336
11
113.658771
21
52.301206
0
LINE
8
Layer 1
10
113.658771
20
52.301206
11
113.785771
21
52.831431
0
LINE
8
Layer 1
10
113.785771
20
52.831431
11
113.920973
21
53.360332
0
LINE
8
Layer 1
10
113.920973
20
53.360332
11
114.062790
21
53.887381
0
LINE
8
Layer 1
10
114.062790
20
53.887381
11
114.212808
21
54.411256
0
LINE
8
Layer 1
10
114.212808
20
54.411256
11
114.369970
21
54.933278
0
LINE
8
Layer 1
10
114.369970
20
54.933278
11
114.534806
21
55.453183
0
LINE
8
Layer 1
10
114.534806
20
55.453183
11
114.707843
21
55.971237
0
LINE
8
Layer 1
10
114.707843
20
55.971237
11
114.887759
21
56.486380
0
LINE
8
Layer 1
10
114.887759
20
56.486380
11
115.074820
21
56.998348
0
LINE
8
Layer 1
10
115.074820
20
56.998348
11
115.269817
21
57.507406
0
LINE
8
Layer 1
10
115.269817
20
57.507406
11
115.471959
21
58.014347
0
LINE
8
Layer 1
10
115.471959
20
58.014347
11
115.681773
21
58.518378
0
LINE
8
Layer 1
10
115.681773
20
58.518378
11
115.898731
21
59.018175
0
LINE
8
Layer 1
10
115.898731
20
59.018175
11
116.122833
21
59.515326
0
LINE
8
Layer 1
10
116.122833
20
59.515326
11
116.354872
21
60.009303
0
LINE
8
Layer 1
10
116.354872
20
60.009303
11
116.592732
21
60.500369
0
LINE
8
Layer 1
10
116.592732
20
60.500369
11
116.838794
21
60.987202
0
LINE
8
Layer 1
10
116.838794
20
60.987202
11
117.091736
21
61.470330
0
LINE
8
Layer 1
10
117.091736
20
61.470330
11
117.351821
21
61.950284
0
LINE
8
Layer 1
10
117.351821
20
61.950284
11
117.617727
21
62.426268
0
LINE
8
Layer 1
10
117.617727
20
62.426268
11
117.891835
21
62.898285
0
LINE
8
Layer 1
10
117.891835
20
62.898285
11
118.171764
21
63.365274
0
LINE
8
Layer 1
10
118.171764
20
63.365274
11
118.459895
21
63.829352
0
LINE
8
Layer 1
10
118.459895
20
63.829352
11
118.752788
21
64.289197
0
LINE
8
Layer 1
10
118.752788
20
64.289197
11
119.053883
21
64.744280
0
LINE
8
Layer 1
10
119.053883
20
64.744280
11
119.360800
21
65.195394
0
LINE
8
Layer 1
10
119.360800
20
65.195394
11
119.674860
21
65.641216
0
LINE
8
Layer 1
10
119.674860
20
65.641216
11
119.994740
21
66.083335
0
LINE
8
Layer 1
10
119.994740
20
66.083335
11
120.321765
21
66.520161
0
LINE
8
Layer 1
10
120.321765
20
66.520161
11
120.654875
21
66.952225
0
LINE
8
Layer 1
10
120.654875
20
66.952225
11
120.993806
21
67.379262
0
LINE
8
Layer 1
10
120.993806
20
67.379262
11
121.338822
21
67.801272
0
LINE
8
Layer 1
10
121.338822
20
67.801272
11
121.689924
21
68.218255
0
LINE
8
Layer 1
10
121.689924
20
68.218255
11
122.047905
21
68.631269
0
LINE
8
Layer 1
10
122.047905
20
68.631269
11
122.410912
21
69.037404
0
LINE
8
Layer 1
10
122.410912
20
69.037404
11
122.779741
21
69.439305
0
LINE
8
Layer 1
10
122.779741
20
69.439305
11
123.154920
21
69.835386
0
LINE
8
Layer 1
10
123.154920
20
69.835386
11
123.535919
21
70.226175
0
LINE
8
Layer 1
10
123.535919
20
70.226175
11
123.922740
21
70.611408
0
LINE
8
Layer 1
10
123.922740
20
70.611408
11
124.314852
21
70.990291
0
LINE
8
Layer 1
10
124.314852
20
70.990291
11
124.711726
21
71.363353
0
LINE
8
Layer 1
10
124.711726
20
71.363353
11
125.114951
21
71.731388
0
LINE
8
Layer 1
10
125.114951
20
71.731388
11
125.522938
21
72.093338
0
LINE
8
Layer 1
10
125.522938
20
72.093338
11
125.935952
21
72.449202
0
LINE
8
Layer 1
10
125.935952
20
72.449202
11
126.354787
21
72.799245
0
LINE
8
Layer 1
10
126.354787
20
72.799245
11
126.778913
21
73.143203
0
LINE
8
Layer 1
10
126.778913
20
73.143203
11
127.206744
21
73.480282
0
LINE
8
Layer 1
10
127.206744
20
73.480282
11
127.639866
21
73.811275
0
LINE
8
Layer 1
10
127.639866
20
73.811275
11
128.078809
21
74.136183
0
LINE
8
Layer 1
10
128.078809
20
74.136183
11
128.520928
21
74.455270
0
LINE
8
Layer 1
10
128.520928
20
74.455270
11
128.968867
21
74.767213
0
LINE
8
Layer 1
10
128.968867
20
74.767213
11
129.420774
21
75.072278
0
LINE
8
Layer 1
10
129.420774
20
75.072278
11
129.876916
21
75.371256
0
LINE
8
Layer 1
10
129.876916
20
75.371256
11
130.337819
21
75.664150
0
LINE
8
Layer 1
10
130.337819
20
75.664150
11
130.801898
21
75.949370
0
LINE
8
Layer 1
10
130.801898
20
75.949370
11
131.270739
21
76.228241
0
LINE
8
Layer 1
10
131.270739
20
76.228241
11
131.743813
21
76.500232
0
LINE
8
Layer 1
10
131.743813
20
76.500232
11
132.220856
21
76.765344
0
LINE
8
Layer 1
10
132.220856
20
76.765344
11
132.701868
21
77.023313
0
LINE
8
Layer 1
10
132.701868
20
77.023313
11
133.185791
21
77.274402
0
LINE
8
Layer 1
10
133.185791
20
77.274402
11
133.673946
21
77.518347
0
LINE
8
Layer 1
10
133.673946
20
77.518347
11
134.164748
21
77.754355
0
LINE
8
Layer 1
10
134.164748
20
77.754355
11
134.659782
21
77.984278
0
LINE
8
Layer 1
10
134.659782
20
77.984278
11
135.157728
21
78.206263
0
LINE
8
Layer 1
10
135.157728
20
78.206263
11
135.658848
21
78.422163
0
LINE
8
Layer 1
10
135.658848
20
78.422163
11
136.163937
21
78.629331
0
LINE
8
Layer 1
10
136.163937
20
78.629331
11
136.670878
21
78.830150
0
LINE
8
Layer 1
10
136.670878
20
78.830150
11
137.180729
21
79.023295
0
LINE
8
Layer 1
10
137.180729
20
79.023295
11
137.693756
21
79.209297
0
LINE
8
Layer 1
10
137.693756
20
79.209297
11
138.209957
21
79.387362
0
LINE
8
Layer 1
10
138.209957
20
79.387362
11
138.727746
21
79.557224
0
LINE
8
Layer 1
10
138.727746
20
79.557224
11
139.247916
21
79.720207
0
LINE
8
Layer 1
10
139.247916
20
79.720207
11
139.770732
21
79.876311
0
LINE
8
Layer 1
10
139.770732
20
79.876311
11
140.295929
21
80.024213
0
LINE
8
Layer 1
10
140.295929
20
80.024213
11
140.822714
21
80.164177
0
LINE
8
Layer 1
10
140.822714
20
80.164177
11
141.352939
21
80.296204
0
LINE
8
Layer 1
10
141.352939
20
80.296204
11
141.883692
21
80.421352
0
LINE
8
Layer 1
10
141.883692
20
80.421352
11
142.415768
21
80.538298
0
LINE
8
Layer 1
10
142.415768
20
80.538298
11
142.950755
21
80.648364
0
LINE
8
Layer 1
10
142.950755
20
80.648364
11
143.486800
21
80.749170
0
LINE
8
Layer 1
10
143.486800
20
80.749170
11
144.023904
21
80.843362
0
LINE
8
Layer 1
10
144.023904
20
80.843362
11
144.562860
21
80.929351
0
LINE
8
Layer 1
10
144.562860
20
80.929351
11
145.102873
21
81.007403
0
LINE
8
Layer 1
10
145.102873
20
81.007403
11
145.643946
21
81.077253
0
LINE
8
Layer 1
10
145.643946
20
81.077253
11
146.184753
21
81.140224
0
LINE
8
Layer 1
10
146.184753
20
81.140224
11
146.727942
21
81.194199
0
LINE
8
Layer 1
10
146.727942
20
81.194199
11
147.271925
21
81.241295
0
LINE
8
Layer 1
10
147.271925
20
81.241295
11
147.815908
21
81.279395
0
LINE
8
Layer 1
10
147.815908
20
81.279395
11
148.359890
21
81.310351
0
LINE
8
Layer 1
10
148.359890
20
81.310351
11
148.904931
21
81.333370
0
LINE
8
Layer 1
10
148.904931
20
81.333370
11
149.450766
21
81.348186
0
LINE
8
Layer 1
10
149.450766
20
81.348186
11
149.995807
21
81.354272
0
LINE
8
Layer 1
10
149.995807
20
81.354272
11
150.541906
21
81.353213
0
LINE
8
Layer 1
10
150.541906
20
81.353213
11
151.086683
21
81.345276
0
LINE
8
Layer 1
10
151.086683
20
81.345276
11
151.631724
21
81.328343
0
LINE
8
Layer 1
10
151.631724
20
81.328343
11
152.176765
21
81.303207
0
LINE
8
Layer 1
10
152.176765
20
81.303207
11
152.721806
21
81.270399
0
LINE
8
Layer 1
10
152.721806
20
81.270399
11
153.265788
21
81.229389
0
LINE
8
Layer 1
10
153.265788
20
81.229389
11
153.808712
21
81.181234
0
LINE
8
Layer 1
10
153.808712
20
81.181234
11
154.351901
21
81.125143
0
LINE
8
Layer 1
10
154.351901
20
81.125143
11
154.892709
21
81.060320
0
LINE
8
Layer 1
10
154.892709
20
81.060320
11
155.433781
21
80.988353
0
LINE
8
Layer 1
10
155.433781
20
80.988353
11
155.972737
21
80.908185
0
LINE
8
Layer 1
10
155.972737
20
80.908185
11
156.511692
21
80.820343
0
LINE
8
Layer 1
10
156.511692
20
80.820343
11
157.048796
21
80.724300
0
LINE
8
Layer 1
10
157.048796
20
80.724300
11
157.583783
21
80.621377
0
LINE
8
Layer 1
10
157.583783
20
80.621377
11
158.117711
21
80.510252
0
LINE
8
Layer 1
10
158.117711
20
80.510252
11
158.650846
21
80.391190
0
LINE
8
Layer 1
10
158.650846
20
80.391190
11
159.180806
21
80.264190
0
LINE
8
Layer 1
10
159.180806
20
80.264190
11
159.709707
21
80.129252
0
LINE
8
Layer 1
10
159.709707
20
80.129252
11
160.236756
21
79.987171
0
LINE
8
Layer 1
10
160.236756
20
79.987171
11
160.760895
21
79.837153
0
LINE
8
Layer 1
10
160.760895
20
79.837153
11
161.282918
21
79.680255
0
LINE
8
Layer 1
10
161.282918
20
79.680255
11
161.802823
21
79.515155
0
LINE
8
Layer 1
10
161.802823
20
79.515155
11
162.320877
21
79.342383
0
LINE
8
Layer 1
10
162.320877
20
79.342383
11
162.835755
21
79.162202
0
LINE
8
Layer 1
10
162.835755
20
79.162202
11
163.347723
21
78.975406
0
LINE
8
Layer 1
10
163.347723
20
78.975406
11
163.856781
21
78.780144
0
LINE
8
Layer 1
10
163.856781
20
78.780144
11
164.363722
21
78.578267
0
LINE
8
Layer 1
10
164.363722
20
78.578267
11
164.867753
21
78.368188
0
LINE
8
Layer 1
10
164.867753
20
78.368188
11
165.367815
21
78.151230
0
LINE
8
Layer 1
10
165.367815
20
78.151230
11
165.864701
21
77.927393
0
LINE
8
Layer 1
10
165.864701
20
77.927393
11
166.358678
21
77.695353
0
LINE
8
Layer 1
10
166.358678
20
77.695353
11
166.849744
21
77.457229
0
LINE
8
Layer 1
10
166.849744
20
77.457229
11
167.336841
21
77.211166
0
LINE
8
Layer 1
10
167.336841
20
77.211166
11
167.819705
21
76.958225
0
LINE
8
Layer 1
10
167.819705
20
76.958225
11
168.299659
21
76.698405
0
LINE
8
Layer 1
10
168.299659
20
76.698405
11
168.775908
21
76.432234
0
LINE
8
Layer 1
10
168.775908
20
76.432234
11
169.247660
21
76.158391
0
LINE
8
Layer 1
10
169.247660
20
76.158391
11
169.714913
21
75.878197
0
LINE
8
Layer 1
10
169.714913
20
75.878197
11
170.178727
21
75.590331
0
LINE
8
Layer 1
10
170.178727
20
75.590331
11
170.638837
21
75.297173
0
LINE
8
Layer 1
10
170.638837
20
75.297173
11
171.093655
21
74.996342
0
LINE
8
Layer 1
10
171.093655
20
74.996342
11
171.544769
21
74.689161
0
LINE
8
Layer 1
10
171.544769
20
74.689161
11
171.990856
21
74.375366
0
LINE
8
Layer 1
10
171.990856
20
74.375366
11
172.432710
21
74.055220
0
LINE
8
Layer 1
10
172.432710
20
74.055220
11
172.869801
21
73.728196
0
LINE
8
Layer 1
10
172.869801
20
73.728196
11
173.301865
21
73.395350
0
LINE
8
Layer 1
10
173.301865
20
73.395350
11
173.728902
21
73.056155
0
LINE
8
Layer 1
10
173.728902
20
73.056155
11
174.150912
21
72.711403
0
LINE
8
Layer 1
10
174.150912
20
72.711403
11
174.567895
21
72.360302
0
LINE
8
Layer 1
10
174.567895
20
72.360302
11
174.980909
21
72.002321
0
LINE
8
Layer 1
10
174.980909
20
72.002321
11
175.386779
21
71.639313
0
LINE
8
Layer 1
10
175.386779
20
71.639313
11
175.788681
21
71.270220
0
LINE
8
Layer 1
10
175.788681
20
71.270220
11
176.184761
21
70.895306
0
LINE
8
Layer 1
10
176.184761
20
70.895306
11
176.575815
21
70.514306
0
LINE
8
Layer 1
10
176.575815
20
70.514306
11
176.960783
21
70.127221
0
LINE
8
Layer 1
10
176.960783
20
70.127221
11
177.339666
21
69.735374
0
LINE
8
Layer 1
10
177.339666
20
69.735374
11
177.712728
21
69.338235
0
LINE
8
Layer 1
10
177.712728
20
69.338235
11
178.080763
21
68.935275
0
LINE
8
Layer 1
10
178.080763
20
68.935275
11
178.442713
21
68.527288
0
LINE
8
Layer 1
10
178.442713
20
68.527288
11
178.798841
21
68.114274
0
LINE
8
Layer 1
10
178.798841
20
68.114274
11
179.148885
21
67.695174
0
LINE
8
Layer 1
10
179.148885
20
67.695174
11
179.492843
21
67.271312
0
LINE
8
Layer 1
10
179.492843
20
67.271312
11
179.829657
21
66.843217
0
LINE
8
Layer 1
10
179.829657
20
66.843217
11
180.160650
21
66.410359
0
LINE
8
Layer 1
10
180.160650
20
66.410359
11
180.485823
21
65.971416
0
LINE
8
Layer 1
10
180.485823
20
65.971416
11
180.804645
21
65.529298
0
LINE
8
Layer 1
10
180.804645
20
65.529298
11
181.116853
21
65.081359
0
LINE
8
Layer 1
10
181.116853
20
65.081359
11
181.421653
21
64.629187
0
LINE
8
Layer 1
10
181.421653
20
64.629187
11
181.720896
21
64.173310
0
LINE
8
Layer 1
10
181.720896
20
64.173310
11
182.013789
21
63.712406
0
LINE
8
Layer 1
10
182.013789
20
63.712406
11
182.298745
21
63.248328
0
LINE
8
Layer 1
10
182.298745
20
63.248328
11
182.577880
21
62.779222
0
LINE
8
Layer 1
10
182.577880
20
62.779222
11
182.849872
21
62.306412
0
LINE
8
Layer 1
10
182.849872
20
62.306412
11
183.114719
21
61.829369
0
LINE
8
Layer 1
10
183.114719
20
61.829369
11
183.372688
21
61.348357
0
LINE
8
Layer 1
10
183.372688
20
61.348357
11
183.623777
21
60.864170
0
LINE
8
Layer 1
10
183.623777
20
60.864170
11
183.867723
21
60.376279
0
LINE
8
Layer 1
10
183.867723
20
60.376279
11
184.103731
21
59.885213
0
LINE
8
Layer 1
10
184.103731
20
59.885213
11
184.333653
21
59.390179
0
LINE
8
Layer 1
10
184.333653
20
59.390179
11
184.555638
21
58.892233
0
LINE
8
Layer 1
10
184.555638
20
58.892233
11
184.771803
21
58.391378
0
LINE
8
Layer 1
10
184.771803
20
58.391378
11
184.978707
21
57.886289
0
LINE
8
Layer 1
10
184.978707
20
57.886289
11
185.179790
21
57.379348
0
LINE
8
Layer 1
10
185.179790
20
57.379348
11
185.372671
21
56.869232
0
LINE
8
Layer 1
10
185.372671
20
56.869232
11
185.558672
21
56.356205
0
LINE
8
Layer 1
10
185.558672
20
56.356205
11
185.736737
21
55.840268
0
LINE
8
Layer 1
10
185.736737
20
55.840268
11
185.906864
21
55.322215
0
LINE
8
Layer 1
10
185.906864
20
55.322215
11
186.069847
21
54.802309
0
LINE
8
Layer 1
10
186.069847
20
54.802309
11
186.225686
21
54.279229
0
LINE
8
Layer 1
10
186.225686
20
54.279229
11
186.373853
21
53.754296
0
LINE
8
Layer 1
10
186.373853
20
53.754296
11
186.513817
21
53.227247
0
LINE
8
Layer 1
10
186.513817
20
53.227247
11
186.645844
21
52.697287
0
LINE
8
Layer 1
10
186.645844
20
52.697287
11
186.770727
21
52.166269
0
LINE
8
Layer 1
10
186.770727
20
52.166269
11
186.887673
21
51.634192
0
LINE
8
Layer 1
10
186.887673
20
51.634192
11
186.997739
21
51.099206
0
LINE
8
Layer 1
10
186.997739
20
51.099206
11
187.098810
21
50.563425
0
LINE
8
Layer 1
10
187.098810
20
50.563425
11
187.192737
21
50.026322
0
LINE
8
Layer 1
10
187.192737
20
50.026322
11
187.278727
21
49.487366
0
LINE
8
Layer 1
10
187.278727
20
49.487366
11
187.356779
21
48.947352
0
LINE
8
Layer 1
10
187.356779
20
48.947352
11
187.426893
21
48.406280
0
LINE
8
Layer 1
10
187.426893
20
48.406280
11
187.489864
21
47.865208
0
LINE
8
Layer 1
10
187.489864
20
47.865208
11
187.543839
21
47.322283
0
LINE
8
Layer 1
10
187.543839
20
47.322283
11
187.589876
21
46.778301
0
LINE
8
Layer 1
10
187.589876
20
46.778301
11
187.628770
21
46.234318
0
LINE
8
Layer 1
10
187.628770
20
46.234318
11
187.659726
21
45.690335
0
LINE
8
Layer 1
10
187.659726
20
45.690335
11
187.682745
21
45.145294
0
LINE
8
Layer 1
10
187.682745
20
45.145294
11
187.697826
21
44.599195
0
LINE
8
Layer 1
10
187.697826
20
44.599195
11
187.703647
21
44.054419
0
LINE
8
Layer 1
10
187.703647
20
44.054419
11
187.702853
21
43.508319
0
LINE
8
Layer 1
10
187.702853
20
43.508319
11
187.693857
21
42.963278
0
LINE
8
Layer 1
10
187.693857
20
42.963278
11
187.677718
21
42.418237
0
LINE
8
Layer 1
10
187.677718
20
42.418237
11
187.652847
21
41.873196
0
LINE
8
Layer 1
10
187.652847
20
41.873196
11
187.619774
21
41.328420
0
LINE
8
Layer 1
10
187.619774
20
41.328420
11
187.578764
21
40.784437
0
LINE
8
Layer 1
10
187.578764
20
40.784437
11
187.530874
21
40.241248
0
LINE
8
Layer 1
10
187.530874
20
40.241248
11
187.474783
21
39.698324
0
LINE
8
Layer 1
10
187.474783
20
39.698324
11
187.409695
21
39.157252
0
LINE
8
Layer 1
10
187.409695
20
39.157252
11
187.337729
21
38.616444
0
LINE
8
Layer 1
10
187.337729
20
38.616444
11
187.257825
21
38.077224
0
LINE
8
Layer 1
10
187.257825
20
38.077224
11
187.169718
21
37.538269
0
LINE
8
Layer 1
10
187.169718
20
37.538269
11
187.073675
21
37.001430
0
LINE
8
Layer 1
10
187.073675
20
37.001430
11
186.970752
21
36.466443
0
LINE
8
Layer 1
10
186.970752
20
36.466443
11
186.859892
21
35.932250
0
LINE
8
Layer 1
10
186.859892
20
35.932250
11
186.740829
21
35.399380
0
LINE
8
Layer 1
10
186.740829
20
35.399380
11
186.613829
21
34.869420
0
LINE
8
Layer 1
10
186.613829
20
34.869420
11
186.478892
21
34.340254
0
LINE
8
Layer 1
10
186.478892
20
34.340254
11
186.336811
21
33.813204
0
LINE
8
Layer 1
10
186.336811
20
33.813204
11
186.186793
21
33.289330
0
LINE
8
Layer 1
10
186.186793
20
33.289330
11
186.029895
21
32.767308
0
LINE
8
Layer 1
10
186.029895
20
32.767308
11
185.864795
21
32.247667
0
LINE
8
Layer 1
10
185.864795
20
32.247667
11
185.691758
21
31.729084
0
LINE
8
Layer 1
10
185.691758
20
31.729084
11
185.511841
21
31.213147
0
LINE
8
Layer 1
10
185.511841
20
31.213147
11
185.324781
21
30.702502
0
LINE
8
Layer 1
10
185.324781
20
30.702502
11
185.129783
21
30.194503
0
LINE
8
Layer 1
10
185.129783
20
30.194503
11
184.927642
21
29.686503
0
LINE
8
Layer 1
10
184.927642
20
29.686503
11
184.717828
21
29.181150
0
LINE
8
Layer 1
10
184.717828
20
29.181150
11
184.500870
21
28.681088
0
LINE
8
Layer 1
10
184.500870
20
28.681088
11
184.276768
21
28.186318
0
LINE
8
Layer 1
10
184.276768
20
28.186318
11
184.044729
21
27.691548
0
LINE
8
Layer 1
10
184.044729
20
27.691548
11
183.806868
21
27.199423
0
LINE
8
Layer 1
10
183.806868
20
27.199423
11
183.560806
21
26.712591
0
LINE
8
Layer 1
10
183.560806
20
26.712591
11
183.307865
21
26.231049
0
LINE
8
Layer 1
10
183.307865
20
26.231049
11
183.047780
21
25.749508
0
LINE
8
Layer 1
10
183.047780
20
25.749508
11
182.781874
21
25.273259
0
LINE
8
Layer 1
10
182.781874
20
25.273259
11
182.507766
21
24.802301
0
LINE
8
Layer 1
10
182.507766
20
24.802301
11
182.227837
21
24.336635
0
LINE
8
Layer 1
10
182.227837
20
24.336635
11
181.939706
21
23.870969
0
LINE
8
Layer 1
10
181.939706
20
23.870969
11
181.646813
21
23.410595
0
LINE
8
Layer 1
10
181.646813
20
23.410595
11
181.345717
21
22.955512
0
LINE
8
Layer 1
10
181.345717
20
22.955512
11
181.038801
21
22.505721
0
LINE
8
Layer 1
10
181.038801
20
22.505721
11
180.724741
21
22.058576
0
LINE
8
Layer 1
10
180.724741
20
22.058576
11
180.404860
21
21.616722
0
LINE
8
Layer 1
10
180.404860
20
21.616722
11
180.077836
21
21.180160
0
LINE
8
Layer 1
10
180.077836
20
21.180160
11
179.744726
21
20.748890
0
LINE
8
Layer 1
10
179.744726
20
20.748890
11
179.405795
21
20.320265
0
LINE
8
Layer 1
10
179.405795
20
20.320265
11
179.060779
21
19.899578
0
LINE
8
Layer 1
10
179.060779
20
19.899578
11
178.709677
21
19.481537
0
LINE
8
Layer 1
10
178.709677
20
19.481537
11
178.351696
21
19.068788
0
LINE
8
Layer 1
10
178.351696
20
19.068788
11
177.988688
21
18.663976
0
LINE
8
Layer 1
10
177.988688
20
18.663976
11
177.619860
21
18.261809
0
LINE
8
Layer 1
10
177.619860
20
18.261809
11
177.244681
21
17.864935
0
LINE
8
Layer 1
10
177.244681
20
17.864935
11
176.863681
21
17.473352
0
LINE
8
Layer 1
10
176.863681
20
17.473352
11
176.476861
21
17.089707
0
LINE
8
Layer 1
10
176.476861
20
17.089707
11
176.084749
21
16.711353
0
LINE
8
Layer 1
10
176.084749
20
16.711353
11
175.687874
21
16.338291
0
LINE
8
Layer 1
10
175.687874
20
16.338291
11
175.284650
21
15.970521
0
LINE
8
Layer 1
10
175.284650
20
15.970521
11
174.876663
21
15.608042
0
LINE
8
Layer 1
10
174.876663
20
15.608042
11
174.463649
21
15.250855
0
LINE
8
Layer 1
10
174.463649
20
15.250855
11
174.044814
21
14.901605
0
LINE
8
Layer 1
10
174.044814
20
14.901605
11
173.620688
21
14.557647
0
LINE
8
Layer 1
10
173.620688
20
14.557647
11
173.192857
21
14.221627
0
LINE
8
Layer 1
10
173.192857
20
14.221627
11
172.759734
21
13.888253
0
LINE
8
Layer 1
10
172.759734
20
13.888253
11
172.320791
21
13.565461
0
LINE
8
Layer 1
10
172.320791
20
13.565461
11
171.878673
21
13.245316
0
LINE
8
Layer 1
10
171.878673
20
13.245316
11
171.430734
21
12.933108
0
LINE
8
Layer 1
10
171.430734
20
12.933108
11
170.978826
21
12.628837
0
LINE
8
Layer 1
10
170.978826
20
12.628837
11
170.522685
21
12.329859
0
LINE
8
Layer 1
10
170.522685
20
12.329859
11
170.061782
21
12.036172
0
LINE
8
Layer 1
10
170.061782
20
12.036172
11
169.597703
21
11.750422
0
LINE
8
Layer 1
10
169.597703
20
11.750422
11
169.128862
21
11.472610
0
LINE
8
Layer 1
10
169.128862
20
11.472610
11
168.655788
21
11.200089
0
LINE
8
Layer 1
10
168.655788
20
11.200089
11
168.178744
21
10.935506
0
LINE
8
Layer 1
10
168.178744
20
10.935506
11
167.697732
21
10.676215
0
LINE
8
Layer 1
10
167.697732
20
10.676215
11
167.213810
21
10.427507
0
LINE
8
Layer 1
10
167.213810
20
10.427507
11
166.725919
21
10.181445
0
LINE
8
Layer 1
10
166.725919
20
10.181445
11
166.234853
21
9.945966
0
LINE
8
Layer 1
10
166.234853
20
9.945966
11
165.739818
21
9.715779
0
LINE
8
Layer 1
10
165.739818
20
9.715779
11
165.241873
21
9.493529
0
LINE
8
Layer 1
10
165.241873
20
9.493529
11
164.740753
21
9.279217
0
LINE
8
Layer 1
10
164.740753
20
9.279217
11
164.235664
21
9.070196
0
LINE
8
Layer 1
10
164.235664
20
9.070196
11
163.728723
21
8.869113
0
LINE
8
Layer 1
10
163.728723
20
8.869113
11
163.218871
21
8.678613
0
LINE
8
Layer 1
10
163.218871
20
8.678613
11
162.705845
21
8.490759
0
LINE
8
Layer 1
10
162.705845
20
8.490759
11
162.189908
21
8.313489
0
LINE
8
Layer 1
10
162.189908
20
8.313489
11
161.671855
21
8.144156
0
LINE
8
Layer 1
10
161.671855
20
8.144156
11
161.151684
21
7.980114
0
LINE
8
Layer 1
10
161.151684
20
7.980114
11
160.628868
21
7.824010
0
LINE
8
Layer 1
10
160.628868
20
7.824010
11
160.103671
21
7.675844
0
LINE
8
Layer 1
10
160.103671
20
7.675844
11
159.576886
21
7.535615
0
LINE
8
Layer 1
10
159.576886
20
7.535615
11
159.046927
21
7.403323
0
LINE
8
Layer 1
10
159.046927
20
7.403323
11
158.515909
21
7.278969
0
LINE
8
Layer 1
10
158.515909
20
7.278969
11
157.983832
21
7.162553
0
LINE
8
Layer 1
10
157.983832
20
7.162553
11
157.448845
21
7.051428
0
LINE
8
Layer 1
10
157.448845
20
7.051428
11
156.912800
21
6.950886
0
LINE
8
Layer 1
10
156.912800
20
6.950886
11
156.375697
21
6.858282
0
LINE
8
Layer 1
10
156.375697
20
6.858282
11
155.836741
21
6.770970
0
LINE
8
Layer 1
10
155.836741
20
6.770970
11
155.296727
21
6.694241
0
LINE
8
Layer 1
10
155.296727
20
6.694241
11
154.755920
21
6.622803
0
LINE
8
Layer 1
10
154.755920
20
6.622803
11
154.214847
21
6.559303
0
LINE
8
Layer 1
10
154.214847
20
6.559303
11
153.671923
21
6.506387
0
LINE
8
Layer 1
10
153.671923
20
6.506387
11
153.127676
21
6.458762
0
LINE
8
Layer 1
10
153.127676
20
6.458762
11
152.583693
21
6.421720
0
LINE
8
Layer 1
10
152.583693
20
6.421720
11
152.039711
21
6.389970
0
LINE
8
Layer 1
10
152.039711
20
6.389970
11
151.494934
21
6.366158
0
LINE
8
Layer 1
10
151.494934
20
6.366158
11
150.948835
21
6.352929
0
LINE
8
Layer 1
10
150.948835
20
6.352929
11
150.403794
21
6.347637
0
LINE
8
Layer 1
10
150.403794
20
6.347637
11
149.857695
21
6.347637
0
LINE
8
Layer 1
10
149.857695
20
6.347637
11
149.312918
21
6.355574
0
LINE
8
Layer 1
10
149.312918
20
6.355574
11
148.767877
21
6.371449
0
LINE
8
Layer 1
10
148.767877
20
6.371449
11
148.222836
21
6.397908
0
LINE
8
Layer 1
10
148.222836
20
6.397908
11
147.677795
21
6.429658
0
LINE
8
Layer 1
10
147.677795
20
6.429658
11
147.133813
21
6.471991
0
LINE
8
Layer 1
10
147.133813
20
6.471991
11
146.590888
21
6.519616
0
LINE
8
Layer 1
10
146.590888
20
6.519616
11
146.047699
21
6.575178
0
LINE
8
Layer 1
10
146.047699
20
6.575178
11
145.506892
21
6.641324
0
LINE
8
Layer 1
10
145.506892
20
6.641324
11
144.965819
21
6.712762
0
LINE
8
Layer 1
10
144.965819
20
6.712762
11
144.426864
21
6.792136
0
LINE
8
Layer 1
10
144.426864
20
6.792136
11
143.887908
21
6.879449
0
LINE
8
Layer 1
10
143.887908
20
6.879449
11
143.350805
21
6.977345
0
LINE
8
Layer 1
10
143.350805
20
6.977345
11
142.815818
21
7.080532
0
LINE
8
Layer 1
10
142.815818
20
7.080532
11
142.281889
21
7.191657
0
LINE
8
Layer 1
10
142.281889
20
7.191657
11
141.748755
21
7.308073
0
LINE
8
Layer 1
10
141.748755
20
7.308073
11
141.218795
21
7.435073
0
LINE
8
Layer 1
10
141.218795
20
7.435073
11
140.689894
21
7.572656
0
LINE
8
Layer 1
10
140.689894
20
7.572656
11
140.162844
21
7.712885
0
LINE
8
Layer 1
10
140.162844
20
7.712885
11
139.638705
21
7.863698
0
LINE
8
Layer 1
10
139.638705
20
7.863698
11
139.116948
21
8.019802
0
LINE
8
Layer 1
10
139.116948
20
8.019802
11
138.596777
21
8.186489
0
LINE
8
Layer 1
10
138.596777
20
8.186489
11
138.078724
21
8.358468
0
LINE
8
Layer 1
10
138.078724
20
8.358468
11
137.563845
21
8.538384
0
LINE
8
Layer 1
10
137.563845
20
8.538384
11
137.051877
21
8.726238
0
LINE
8
Layer 1
10
137.051877
20
8.726238
11
136.542820
21
8.919384
0
LINE
8
Layer 1
10
136.542820
20
8.919384
11
136.035879
21
9.123113
0
LINE
8
Layer 1
10
136.035879
20
9.123113
11
135.531848
21
9.332133
0
LINE
8
Layer 1
10
135.531848
20
9.332133
11
135.031786
21
9.549091
0
LINE
8
Layer 1
10
135.031786
20
9.549091
11
134.534899
21
9.773987
0
LINE
8
Layer 1
10
134.534899
20
9.773987
11
134.040923
21
10.004174
0
LINE
8
Layer 1
10
134.040923
20
10.004174
11
133.549857
21
10.242299
0
LINE
8
Layer 1
10
133.549857
20
10.242299
11
133.062759
21
10.488361
0
LINE
8
Layer 1
10
133.062759
20
10.488361
11
132.579895
21
10.742361
0
LINE
8
Layer 1
10
132.579895
20
10.742361
11
132.099942
21
11.001652
0
LINE
8
Layer 1
10
132.099942
20
11.001652
11
131.623957
21
11.268881
0
LINE
8
Layer 1
10
131.623957
20
11.268881
11
131.151941
21
11.541401
0
LINE
8
Layer 1
10
131.151941
20
11.541401
11
130.684952
21
11.821859
0
LINE
8
Layer 1
10
130.684952
20
11.821859
11
130.220873
21
12.110255
0
LINE
8
Layer 1
10
130.220873
20
12.110255
11
129.760764
21
12.403942
0
LINE
8
Layer 1
10
129.760764
20
12.403942
11
129.305945
21
12.705566
0
LINE
8
Layer 1
10
129.305945
20
12.705566
11
128.854831
21
13.012483
0
LINE
8
Layer 1
10
128.854831
20
13.012483
11
128.408744
21
13.324691
0
LINE
8
Layer 1
10
128.408744
20
13.324691
11
127.966891
21
13.644836
0
LINE
8
Layer 1
10
127.966891
20
13.644836
11
127.529800
21
13.972919
0
LINE
8
Layer 1
10
127.529800
20
13.972919
11
127.097736
21
14.306294
0
LINE
8
Layer 1
10
127.097736
20
14.306294
11
126.670963
21
14.644960
0
LINE
8
Layer 1
10
126.670963
20
14.644960
11
126.248953
21
14.988918
0
LINE
8
Layer 1
10
126.248953
20
14.988918
11
125.831971
21
15.340813
0
LINE
8
Layer 1
10
125.831971
20
15.340813
11
125.418957
21
15.698000
0
LINE
8
Layer 1
10
125.418957
20
15.698000
11
125.012822
21
16.060479
0
LINE
8
Layer 1
10
125.012822
20
16.060479
11
124.610920
21
16.430895
0
LINE
8
Layer 1
10
124.610920
20
16.430895
11
124.214839
21
16.806603
0
LINE
8
Layer 1
10
124.214839
20
16.806603
11
123.823786
21
17.187603
0
LINE
8
Layer 1
10
123.823786
20
17.187603
11
123.438817
21
17.573894
0
LINE
8
Layer 1
10
123.438817
20
17.573894
11
123.059935
21
17.965477
0
LINE
8
Layer 1
10
123.059935
20
17.965477
11
122.686873
21
18.362351
0
LINE
8
Layer 1
10
122.686873
20
18.362351
11
122.318838
21
18.764517
0
LINE
8
Layer 1
10
122.318838
20
18.764517
11
121.956888
21
19.174621
0
LINE
8
Layer 1
10
121.956888
20
19.174621
11
121.600759
21
19.587370
0
LINE
8
Layer 1
10
121.600759
20
19.587370
11
121.250716
21
20.005411
0
LINE
8
Layer 1
10
121.250716
20
20.005411
11
120.906758
21
20.428744
0
LINE
8
Layer 1
10
120.906758
20
20.428744
11
120.569944
21
20.857369
0
LINE
8
Layer 1
10
120.569944
20
20.857369
11
120.238951
21
21.291285
0
LINE
8
Layer 1
10
120.238951
20
21.291285
11
119.913778
21
21.730493
0
LINE
8
Layer 1
10
119.913778
20
21.730493
11
119.594956
21
22.172346
0
LINE
8
Layer 1
10
119.594956
20
22.172346
11
119.282748
21
22.619492
0
LINE
8
Layer 1
10
119.282748
20
22.619492
11
118.976890
21
23.071928
0
LINE
8
Layer 1
10
118.976890
20
23.071928
11
118.678969
21
23.527011
0
LINE
8
Layer 1
10
118.678969
20
23.527011
11
118.385811
21
23.987386
0
LINE
8
Layer 1
10
118.385811
20
23.987386
11
118.100855
21
24.453052
0
LINE
8
Layer 1
10
118.100855
20
24.453052
11
117.821720
21
24.921364
0
LINE
8
Layer 1
10
117.821720
20
24.921364
11
117.549729
21
25.394967
0
LINE
8
Layer 1
10
117.549729
20
25.394967
11
117.284881
21
25.871217
0
LINE
8
Layer 1
10
117.284881
20
25.871217
11
117.026913
21
26.352758
0
LINE
8
Layer 1
10
117.026913
20
26.352758
11
116.775824
21
26.836945
0
LINE
8
Layer 1
10
116.775824
20
26.836945
11
116.531878
21
27.323777
0
LINE
8
Layer 1
10
116.531878
20
27.323777
11
116.295870
21
27.815902
0
LINE
8
Layer 1
10
116.295870
20
27.815902
11
116.065948
21
28.310672
0
LINE
8
Layer 1
10
116.065948
20
28.310672
11
115.843962
21
28.808088
0
LINE
8
Layer 1
10
115.843962
20
28.808088
11
115.627798
21
29.308150
0
LINE
8
Layer 1
10
115.627798
20
29.308150
11
115.420894
21
29.813503
0
LINE
8
Layer 1
10
115.420894
20
29.813503
11
115.219811
21
30.321503
0
LINE
8
Layer 1
10
115.219811
20
30.321503
11
115.026930
21
30.832148
0
LINE
8
Layer 1
10
115.026930
20
30.832148
11
114.840928
21
31.345439
0
LINE
8
Layer 1
10
114.840928
20
31.345439
11
114.662864
21
31.861376
0
LINE
8
Layer 1
10
114.662864
20
31.861376
11
114.492737
21
32.377313
0
LINE
8
Layer 1
10
114.492737
20
32.377313
11
114.329754
21
32.898276
0
LINE
8
Layer 1
10
114.329754
20
32.898276
11
114.173914
21
33.421357
0
LINE
8
Layer 1
10
114.173914
20
33.421357
11
114.025748
21
33.946290
0
LINE
8
Layer 1
10
114.025748
20
33.946290
11
113.885784
21
34.473339
0
LINE
8
Layer 1
10
113.885784
20
34.473339
11
113.752963
21
35.003299
0
LINE
8
Layer 1
10
113.752963
20
35.003299
11
113.628874
21
35.534317
0
LINE
8
Layer 1
10
113.628874
20
35.534317
11
113.511928
21
36.066393
0
LINE
8
Layer 1
10
113.511928
20
36.066393
11
113.401861
21
36.601380
0
LINE
8
Layer 1
10
113.401861
20
36.601380
11
113.300791
21
37.137425
0
LINE
8
Layer 1
10
113.300791
20
37.137425
11
113.206864
21
37.674264
0
LINE
8
Layer 1
10
113.206864
20
37.674264
11
113.120874
21
38.213220
0
LINE
8
Layer 1
10
113.120874
20
38.213220
11
113.042822
21
38.753234
0
LINE
8
Layer 1
10
113.042822
20
38.753234
11
112.972972
21
39.294306
0
LINE
8
Layer 1
10
112.972972
20
39.294306
11
112.909737
21
39.835378
0
LINE
8
Layer 1
10
112.909737
20
39.835378
11
112.855762
21
40.378302
0
LINE
8
Layer 1
10
112.855762
20
40.378302
11
112.808931
21
40.922285
0
LINE
8
Layer 1
10
119.451850
20
187.405138
11
120.449348
21
187.672417
0
LINE
8
Layer 1
10
120.449348
20
187.672417
11
121.179568
21
188.402637
0
LINE
8
Layer 1
10
121.179568
20
188.402637
11
121.446847
21
189.400136
0
LINE
8
Layer 1
10
121.446847
20
189.400136
11
121.179568
21
190.397634
0
LINE
8
Layer 1
10
121.179568
20
190.397634
11
120.449348
21
191.127854
0
LINE
8
Layer 1
10
120.449348
20
191.127854
11
119.451850
21
191.395133
0
LINE
8
Layer 1
10
119.451850
20
191.395133
11
118.454351
21
191.127854
0
LINE
8
Layer 1
10
118.454351
20
191.127854
11
117.724131
21
190.397634
0
LINE
8
Layer 1
10
117.724131
20
190.397634
11
117.456852
21
189.400136
0
LINE
8
Layer 1
10
117.456852
20
189.400136
11
117.724131
21
188.402637
0
LINE
8
Layer 1
10
117.724131
20
188.402637
11
118.454351
21
187.672417
0
LINE
8
Layer 1
10
118.454351
20
187.672417
11
119.451850
21
187.405138
0
LINE
8
Layer 1
10
124.586872
20
170.606304
11
124.088196
21
171.601218
0
LINE
8
Layer 1
10
124.088196
20
171.601218
11
123.421746
21
172.450916
0
LINE
8
Layer 1
10
123.421746
20
172.450916
11
122.616027
21
173.142622
0
LINE
8
Layer 1
10
122.616027
20
173.142622
11
121.699546
21
173.663562
0
LINE
8
Layer 1
10
121.699546
20
173.663562
11
120.700807
21
174.000959
0
LINE
8
Layer 1
10
120.700807
20
174.000959
11
119.648317
21
174.142039
0
LINE
8
Layer 1
10
119.648317
20
174.142039
11
118.570580
21
174.074026
0
LINE
8
Layer 1
10
118.570580
20
174.074026
11
117.496102
21
173.784146
0
LINE
8
Layer 1
10
117.496102
20
173.784146
11
116.501087
21
173.285671
0
LINE
8
Layer 1
10
116.501087
20
173.285671
11
115.651255
21
172.619393
0
LINE
8
Layer 1
10
115.651255
20
172.619393
11
114.959386
21
171.813814
0
LINE
8
Layer 1
10
114.959386
20
171.813814
11
114.438261
21
170.897438
0
LINE
8
Layer 1
10
114.438261
20
170.897438
11
114.100662
21
169.898768
0
LINE
8
Layer 1
10
114.100662
20
169.898768
11
113.959370
21
168.846306
0
LINE
8
Layer 1
10
113.959370
20
168.846306
11
114.027164
21
167.768555
0
LINE
8
Layer 1
10
114.027164
20
167.768555
11
114.316827
21
166.694019
0
LINE
8
Layer 1
10
114.316827
20
166.694019
11
114.815503
21
165.699105
0
LINE
8
Layer 1
10
114.815503
20
165.699105
11
115.481953
21
164.849407
0
LINE
8
Layer 1
10
115.481953
20
164.849407
11
116.287672
21
164.157701
0
LINE
8
Layer 1
10
116.287672
20
164.157701
11
117.204153
21
163.636762
0
LINE
8
Layer 1
10
117.204153
20
163.636762
11
118.202892
21
163.299364
0
LINE
8
Layer 1
10
118.202892
20
163.299364
11
119.255382
21
163.158284
0
LINE
8
Layer 1
10
119.255382
20
163.158284
11
120.333119
21
163.226297
0
LINE
8
Layer 1
10
120.333119
20
163.226297
11
121.407597
21
163.516177
0
LINE
8
Layer 1
10
121.407597
20
163.516177
11
122.402612
21
164.014652
0
LINE
8
Layer 1
10
122.402612
20
164.014652
11
123.252444
21
164.680931
0
LINE
8
Layer 1
10
123.252444
20
164.680931
11
123.944313
21
165.486509
0
LINE
8
Layer 1
10
123.944313
20
165.486509
11
124.465438
21
166.402885
0
LINE
8
Layer 1
10
124.465438
20
166.402885
11
124.803037
21
167.401556
0
LINE
8
Layer 1
10
124.803037
20
167.401556
11
124.944330
21
168.454018
0
LINE
8
Layer 1
10
124.944330
20
168.454018
11
124.876535
21
169.531768
0
LINE
8
Layer 1
10
124.876535
20
169.531768
11
124.586872
21
170.606304
0
LINE
8
Layer 1
10
145.803114
20
135.152182
11
144.982957
21
135.904599
0
LINE
8
Layer 1
10
144.982957
20
135.904599
11
144.057666
21
136.461560
0
LINE
8
Layer 1
10
144.057666
20
136.461560
11
143.058435
21
136.821272
0
LINE
8
Layer 1
10
143.058435
20
136.821272
11
142.016461
21
136.981940
0
LINE
8
Layer 1
10
142.016461
20
136.981940
11
140.962938
21
136.941771
0
LINE
8
Layer 1
10
140.962938
20
136.941771
11
139.929061
21
136.698971
0
LINE
8
Layer 1
10
139.929061
20
136.698971
11
138.946025
21
136.251746
0
LINE
8
Layer 1
10
138.946025
20
136.251746
11
138.045025
21
135.598303
0
LINE
8
Layer 1
10
138.045025
20
135.598303
11
137.292568
21
134.778182
0
LINE
8
Layer 1
10
137.292568
20
134.778182
11
136.735562
21
133.852917
0
LINE
8
Layer 1
10
136.735562
20
133.852917
11
136.375802
21
132.853705
0
LINE
8
Layer 1
10
136.375802
20
132.853705
11
136.215083
21
131.811738
0
LINE
8
Layer 1
10
136.215083
20
131.811738
11
136.255201
21
130.758213
0
LINE
8
Layer 1
10
136.255201
20
130.758213
11
136.497951
21
129.724324
0
LINE
8
Layer 1
10
136.497951
20
129.724324
11
136.945129
21
128.741267
0
LINE
8
Layer 1
10
136.945129
20
128.741267
11
137.598529
21
127.840235
0
LINE
8
Layer 1
10
137.598529
20
127.840235
11
138.418686
21
127.087818
0
LINE
8
Layer 1
10
138.418686
20
127.087818
11
139.343977
21
126.530857
0
LINE
8
Layer 1
10
139.343977
20
126.530857
11
140.343208
21
126.171145
0
LINE
8
Layer 1
10
140.343208
20
126.171145
11
141.385182
21
126.010477
0
LINE
8
Layer 1
10
141.385182
20
126.010477
11
142.438705
21
126.050646
0
LINE
8
Layer 1
10
142.438705
20
126.050646
11
143.472582
21
126.293446
0
LINE
8
Layer 1
10
143.472582
20
126.293446
11
144.455618
21
126.740671
0
LINE
8
Layer 1
10
144.455618
20
126.740671
11
145.356618
21
127.394114
0
LINE
8
Layer 1
10
145.356618
20
127.394114
11
146.109074
21
128.214235
0
LINE
8
Layer 1
10
146.109074
20
128.214235
11
146.666081
21
129.139500
0
LINE
8
Layer 1
10
146.666081
20
129.139500
11
147.025841
21
130.138713
0
LINE
8
Layer 1
10
147.025841
20
130.138713
11
147.186559
21
131.180679
0
LINE
8
Layer 1
10
147.186559
20
131.180679
11
147.146441
21
132.234204
0
LINE
8
Layer 1
10
147.146441
20
132.234204
11
146.903692
21
133.268093
0
LINE
8
Layer 1
10
146.903692
20
133.268093
11
146.456514
21
134.251150
0
LINE
8
Layer 1
10
146.456514
20
134.251150
11
145.803114
21
135.152182
0
LINE
8
Layer 1
10
157.344091
20
121.772738
11
157.091585
21
121.021846
0
LINE
8
Layer 1
10
157.091585
20
121.021846
11
157.144775
21
120.258898
0
LINE
8
Layer 1
10
157.144775
20
120.258898
11
157.480171
21
119.571564
0
LINE
8
Layer 1
10
157.480171
20
119.571564
11
158.074284
21
119.047514
0
LINE
8
Layer 1
10
158.074284
20
119.047514
11
158.825175
21
118.795007
0
LINE
8
Layer 1
10
158.825175
20
118.795007
11
159.588124
21
118.848197
0
LINE
8
Layer 1
10
159.588124
20
118.848197
11
160.275458
21
119.183594
0
LINE
8
Layer 1
10
160.275458
20
119.183594
11
160.799508
21
119.777706
0
LINE
8
Layer 1
10
160.799508
20
119.777706
11
161.066797
21
120.775202
0
LINE
8
Layer 1
10
161.066797
20
120.775202
11
160.799528
21
121.772703
0
LINE
8
Layer 1
10
160.799528
20
121.772703
11
160.069316
21
122.502930
0
LINE
8
Layer 1
10
160.069316
20
122.502930
11
159.071820
21
122.770219
0
LINE
8
Layer 1
10
159.071820
20
122.770219
11
158.074318
21
122.502950
0
LINE
8
Layer 1
10
158.074318
20
122.502950
11
157.344091
21
121.772738
0
LINE
8
Layer 1
10
135.152701
20
123.104146
11
135.152701
21
141.650092
0
LINE
8
Layer 1
10
135.152701
20
141.650092
11
135.153759
21
141.654325
0
LINE
8
Layer 1
10
135.153759
20
141.654325
11
135.157728
21
141.655119
0
LINE
8
Layer 1
10
135.157728
20
141.655119
11
154.243687
21
141.655119
0
LINE
8
Layer 1
10
154.243687
20
141.655119
11
154.243687
21
179.145207
0
LINE
8
Layer 1
10
154.243687
20
179.145207
11
126.253716
21
179.145207
0
LINE
8
Layer 1
10
126.253716
20
179.145207
11
126.253716
21
148.753087
0
LINE
8
Layer 1
10
126.253716
20
148.753087
11
126.250806
21
148.748060
0
LINE
8
Layer 1
10
126.250806
20
148.748060
11
126.244720
21
148.750176
0
LINE
8
Layer 1
10
126.244519
20
148.750282
11
124.718929
21
150.314653
0
LINE
8
Layer 1
10
124.718929
20
150.314653
11
122.876137
21
151.424011
0
LINE
8
Layer 1
10
122.876137
20
151.424011
11
120.813882
21
152.035289
0
LINE
8
Layer 1
10
120.813882
20
152.035289
11
118.629904
21
152.105422
0
LINE
8
Layer 1
10
118.629904
20
152.105422
11
116.500209
21
151.616461
0
LINE
8
Layer 1
10
116.500209
20
151.616461
11
114.594067
21
150.619878
0
LINE
8
Layer 1
10
114.594067
20
150.619878
11
112.999105
21
149.176737
0
LINE
8
Layer 1
10
112.999105
20
149.176737
11
111.802954
21
147.348103
0
LINE
8
Layer 1
10
111.803780
20
147.348151
11
111.798753
21
147.345241
0
LINE
8
Layer 1
10
111.798753
20
147.345241
11
76.528781
21
147.345241
0
LINE
8
Layer 1
10
76.528781
20
147.345241
11
76.525870
21
147.346299
0
LINE
8
Layer 1
10
76.525870
20
147.346299
11
76.524018
21
147.350268
0
LINE
8
Layer 1
10
76.524018
20
147.350268
11
76.524018
21
148.908132
0
LINE
8
Layer 1
10
76.524018
20
148.908132
11
69.728998
21
148.908132
0
LINE
8
Layer 1
10
69.728998
20
148.908132
11
69.725823
21
148.910249
0
LINE
8
Layer 1
10
69.725823
20
148.910249
11
69.723970
21
148.914218
0
LINE
8
Layer 1
10
69.723970
20
148.914218
11
69.794879
21
149.540221
0
LINE
8
Layer 1
10
69.794879
20
149.540221
11
69.872931
21
150.167283
0
LINE
8
Layer 1
10
69.872931
20
150.167283
11
69.958920
21
150.792228
0
LINE
8
Layer 1
10
69.958920
20
150.792228
11
70.052847
21
151.415056
0
LINE
8
Layer 1
10
70.052847
20
151.415056
11
70.154976
21
152.038149
0
LINE
8
Layer 1
10
70.154976
20
152.038149
11
70.265043
21
152.659126
0
LINE
8
Layer 1
10
70.265043
20
152.659126
11
70.381988
21
153.279308
0
LINE
8
Layer 1
10
70.381988
20
153.279308
11
70.507930
21
153.897109
0
LINE
8
Layer 1
10
70.507930
20
153.897109
11
70.641015
21
154.514117
0
LINE
8
Layer 1
10
70.641015
20
154.514117
11
70.782038
21
155.129272
0
LINE
8
Layer 1
10
70.782038
20
155.129272
11
70.930998
21
155.742047
0
LINE
8
Layer 1
10
70.930998
20
155.742047
11
71.086838
21
156.353233
0
LINE
8
Layer 1
10
71.086838
20
156.353233
11
71.250879
21
156.963097
0
LINE
8
Layer 1
10
71.250879
20
156.963097
11
71.422858
21
157.570051
0
LINE
8
Layer 1
10
71.422858
20
157.570051
11
71.601981
21
158.175152
0
LINE
8
Layer 1
10
71.601981
20
158.175152
11
71.789041
21
158.777078
0
LINE
8
Layer 1
10
71.789041
20
158.777078
11
71.984038
21
159.377153
0
LINE
8
Layer 1
10
71.984038
20
159.377153
11
72.185915
21
159.975110
0
LINE
8
Layer 1
10
72.185915
20
159.975110
11
72.395994
21
160.570157
0
LINE
8
Layer 1
10
72.395994
20
160.570157
11
72.612952
21
161.162294
0
LINE
8
Layer 1
10
72.612952
20
161.162294
11
72.837848
21
161.752050
0
LINE
8
Layer 1
10
72.837848
20
161.752050
11
73.069887
21
162.338101
0
LINE
8
Layer 1
10
73.069887
20
162.338101
11
73.308806
21
162.922300
0
LINE
8
Layer 1
10
73.308806
20
162.922300
11
73.555926
21
163.503060
0
LINE
8
Layer 1
10
73.555926
20
163.503060
11
73.809926
21
164.080115
0
LINE
8
Layer 1
10
73.809926
20
164.080115
11
74.071863
21
164.654260
0
LINE
8
Layer 1
10
74.071863
20
164.654260
11
74.339886
21
165.225231
0
LINE
8
Layer 1
10
74.339886
20
165.225231
11
74.615846
21
165.793290
0
LINE
8
Layer 1
10
74.615846
20
165.793290
11
74.898949
21
166.357117
0
LINE
8
Layer 1
10
74.898949
20
166.357117
11
75.188932
21
166.917239
0
LINE
8
Layer 1
10
75.188932
20
166.917239
11
75.485794
21
167.473128
0
LINE
8
Layer 1
10
75.485794
20
167.473128
11
75.789800
21
168.026106
0
LINE
8
Layer 1
10
75.789800
20
168.026106
11
76.100950
21
168.575116
0
LINE
8
Layer 1
10
76.100950
20
168.575116
11
76.418979
21
169.120157
0
LINE
8
Layer 1
10
76.418979
20
169.120157
11
76.743887
21
169.661229
0
LINE
8
Layer 1
10
76.743887
20
169.661229
11
77.074880
21
170.198068
0
LINE
8
Layer 1
10
77.074880
20
170.198068
11
77.413811
21
170.730144
0
LINE
8
Layer 1
10
77.413811
20
170.730144
11
77.758827
21
171.258252
0
LINE
8
Layer 1
10
77.758827
20
171.258252
11
78.109929
21
171.782127
0
LINE
8
Layer 1
10
78.109929
20
171.782127
11
78.468968
21
172.302032
0
LINE
8
Layer 1
10
78.468968
20
172.302032
11
78.832769
21
172.816117
0
LINE
8
Layer 1
10
78.832769
20
172.816117
11
79.204773
21
173.327027
0
LINE
8
Layer 1
10
79.204773
20
173.327027
11
79.581804
21
173.832116
0
LINE
8
Layer 1
10
79.581804
20
173.832116
11
79.965978
21
174.333236
0
LINE
8
Layer 1
10
79.965978
20
174.333236
11
80.355974
21
174.828271
0
LINE
8
Layer 1
10
80.355974
20
174.828271
11
80.752848
21
175.319072
0
LINE
8
Layer 1
10
80.752848
20
175.319072
11
81.155808
21
175.805111
0
LINE
8
Layer 1
10
81.155808
20
175.805111
11
81.563795
21
176.285065
0
LINE
8
Layer 1
10
81.563795
20
176.285065
11
81.978926
21
176.761049
0
LINE
8
Layer 1
10
81.978926
20
176.761049
11
82.399877
21
177.231213
0
LINE
8
Layer 1
10
82.399877
20
177.231213
11
82.825856
21
177.696086
0
LINE
8
Layer 1
10
82.825856
20
177.696086
11
83.258978
21
178.155137
0
LINE
8
Layer 1
10
83.258978
20
178.155137
11
83.696863
21
178.609162
0
LINE
8
Layer 1
10
83.696863
20
178.609162
11
84.140834
21
179.057101
0
LINE
8
Layer 1
10
84.140834
20
179.057101
11
84.589831
21
179.500277
0
LINE
8
Layer 1
10
84.589831
20
179.500277
11
85.045972
21
179.937104
0
LINE
8
Layer 1
10
85.045972
20
179.937104
11
85.505817
21
180.368109
0
LINE
8
Layer 1
10
85.505817
20
180.368109
11
85.972013
21
180.794088
0
LINE
8
Layer 1
10
85.972013
20
180.794088
11
86.442970
21
181.213188
0
LINE
8
Layer 1
10
86.442970
20
181.213188
11
86.920013
21
181.626202
0
LINE
8
Layer 1
10
86.920013
20
181.626202
11
87.401819
21
182.034189
0
LINE
8
Layer 1
10
87.401819
20
182.034189
11
87.887858
21
182.435032
0
LINE
8
Layer 1
10
87.887858
20
182.435032
11
88.379982
21
182.830054
0
LINE
8
Layer 1
10
88.379982
20
182.830054
11
88.876869
21
183.219256
0
LINE
8
Layer 1
10
88.876869
20
183.219256
11
89.378783
21
183.602107
0
LINE
8
Layer 1
10
89.378783
20
183.602107
11
89.884931
21
183.978080
0
LINE
8
Layer 1
10
89.884931
20
183.978080
11
90.395840
21
184.348232
0
LINE
8
Layer 1
10
90.395840
20
184.348232
11
90.911777
21
184.711239
0
LINE
8
Layer 1
10
90.911777
20
184.711239
11
91.431947
21
185.068162
0
LINE
8
Layer 1
10
91.431947
20
185.068162
11
91.956880
21
185.418205
0
LINE
8
Layer 1
10
91.956880
20
185.418205
11
92.485781
21
185.762163
0
LINE
8
Layer 1
10
92.485781
20
185.762163
11
93.019974
21
186.099242
0
LINE
8
Layer 1
10
93.019974
20
186.099242
11
93.556813
21
186.429177
0
LINE
8
Layer 1
10
93.556813
20
186.429177
11
94.098944
21
186.752233
0
LINE
8
Layer 1
10
94.098944
20
186.752233
11
94.644779
21
187.068145
0
LINE
8
Layer 1
10
94.644779
20
187.068145
11
95.194847
21
187.378236
0
LINE
8
Layer 1
10
95.194847
20
187.378236
11
95.747825
21
187.680125
0
LINE
8
Layer 1
10
95.747825
20
187.680125
11
96.305831
21
187.976194
0
LINE
8
Layer 1
10
96.305831
20
187.976194
11
96.866747
21
188.265118
0
LINE
8
Layer 1
10
96.866747
20
188.265118
11
97.430838
21
188.546105
0
LINE
8
Layer 1
10
97.430838
20
188.546105
11
97.999956
21
188.820213
0
LINE
8
Layer 1
10
97.999956
20
188.820213
11
98.570926
21
189.087178
0
LINE
8
Layer 1
10
98.570926
20
189.087178
11
99.145865
21
189.347263
0
LINE
8
Layer 1
10
99.145865
20
189.347263
11
99.723979
21
189.600204
0
LINE
8
Layer 1
10
99.723979
20
189.600204
11
100.305797
21
189.845208
0
LINE
8
Layer 1
10
100.305797
20
189.845208
11
100.889996
21
190.083068
0
LINE
8
Layer 1
10
100.889996
20
190.083068
11
101.476841
21
190.313255
0
LINE
8
Layer 1
10
101.476841
20
190.313255
11
102.066861
21
190.536034
0
LINE
8
Layer 1
10
102.066861
20
190.536034
11
102.659791
21
190.752198
0
LINE
8
Layer 1
10
102.659791
20
190.752198
11
103.255897
21
190.960161
0
LINE
8
Layer 1
10
103.255897
20
190.960161
11
103.853855
21
191.161244
0
LINE
8
Layer 1
10
103.853855
20
191.161244
11
104.454987
21
191.354125
0
LINE
8
Layer 1
10
104.454987
20
191.354125
11
105.057972
21
191.539068
0
LINE
8
Layer 1
10
105.057972
20
191.539068
11
105.662809
21
191.717133
0
LINE
8
Layer 1
10
105.662809
20
191.717133
11
106.270820
21
191.887260
0
LINE
8
Layer 1
10
106.270820
20
191.887260
11
106.879890
21
192.049184
0
LINE
8
Layer 1
10
106.879890
20
192.049184
11
107.491871
21
192.204230
0
LINE
8
Layer 1
10
107.491871
20
192.204230
11
108.104910
21
192.351074
0
LINE
8
Layer 1
10
108.104910
20
192.351074
11
108.720859
21
192.490244
0
LINE
8
Layer 1
10
108.720859
20
192.490244
11
109.337866
21
192.622006
0
LINE
8
Layer 1
10
109.337866
20
192.622006
11
109.955932
21
192.746096
0
LINE
8
Layer 1
10
109.955932
20
192.746096
11
110.576909
21
192.861190
0
LINE
8
Layer 1
10
110.576909
20
192.861190
11
111.197885
21
192.970198
0
LINE
8
Layer 1
10
111.197885
20
192.970198
11
111.820978
21
193.070210
0
LINE
8
Layer 1
10
111.820978
20
193.070210
11
112.444865
21
193.162020
0
LINE
8
Layer 1
10
112.444865
20
193.162020
11
113.069810
21
193.247216
0
LINE
8
Layer 1
10
113.069810
20
193.247216
11
113.696871
21
193.323151
0
LINE
8
Layer 1
10
113.696871
20
193.323151
11
114.323933
21
193.392208
0
LINE
8
Layer 1
10
114.323933
20
193.392208
11
114.951789
21
193.452003
0
LINE
8
Layer 1
10
114.951789
20
193.452003
11
115.580967
21
193.505185
0
LINE
8
Layer 1
10
115.580967
20
193.505185
11
116.209881
21
193.550164
0
LINE
8
Layer 1
10
116.209881
20
193.550164
11
116.839853
21
193.587205
0
LINE
8
Layer 1
10
116.839853
20
193.587205
11
117.469825
21
193.616045
0
LINE
8
Layer 1
10
117.469825
20
193.616045
11
118.099797
21
193.637211
0
LINE
8
Layer 1
10
118.099797
20
193.637211
11
118.730828
21
193.650176
0
LINE
8
Layer 1
10
118.730828
20
193.650176
11
119.361858
21
193.655203
0
LINE
8
Layer 1
10
119.361858
20
193.655203
11
119.992888
21
193.652028
0
LINE
8
Layer 1
10
119.992888
20
193.652028
11
120.623919
21
193.642239
0
LINE
8
Layer 1
10
120.623919
20
193.642239
11
121.253891
21
193.623189
0
LINE
8
Layer 1
10
121.253891
20
193.623189
11
121.884921
21
193.596201
0
LINE
8
Layer 1
10
121.884921
20
193.596201
11
122.514894
21
193.561012
0
LINE
8
Layer 1
10
122.514894
20
193.561012
11
123.143807
21
193.519207
0
LINE
8
Layer 1
10
123.143807
20
193.519207
11
123.772721
21
193.468143
0
LINE
8
Layer 1
10
123.772721
20
193.468143
11
124.400841
21
193.410199
0
LINE
8
Layer 1
10
124.400841
20
193.410199
11
125.028961
21
193.343260
0
LINE
8
Layer 1
10
125.028961
20
193.343260
11
125.654965
21
193.269177
0
LINE
8
Layer 1
10
125.654965
20
193.269177
11
126.280968
21
193.187156
0
LINE
8
Layer 1
10
126.280968
20
193.187156
11
126.904855
21
193.097198
0
LINE
8
Layer 1
10
126.904855
20
193.097198
11
127.527948
21
192.999037
0
LINE
8
Layer 1
10
127.527948
20
192.999037
11
128.149718
21
192.893204
0
LINE
8
Layer 1
10
128.149718
20
192.893204
11
128.770959
21
192.779169
0
LINE
8
Layer 1
10
128.770959
20
192.779169
11
129.389818
21
192.658254
0
LINE
8
Layer 1
10
129.389818
20
192.658254
11
130.006826
21
192.529138
0
LINE
8
Layer 1
10
130.006826
20
192.529138
11
130.622775
21
192.391026
0
LINE
8
Layer 1
10
130.622775
20
192.391026
11
131.236872
21
192.247092
0
LINE
8
Layer 1
10
131.236872
20
192.247092
11
131.849911
21
192.094163
0
LINE
8
Layer 1
10
131.849911
20
192.094163
11
132.459775
21
191.934091
0
LINE
8
Layer 1
10
132.459775
20
191.934091
11
133.067787
21
191.766080
0
LINE
8
Layer 1
10
133.067787
20
191.766080
11
133.673946
21
191.590133
0
LINE
8
Layer 1
10
133.673946
20
191.590133
11
134.277725
21
191.407041
0
LINE
8
Layer 1
10
134.277725
20
191.407041
11
134.878857
21
191.216012
0
LINE
8
Layer 1
10
134.878857
20
191.216012
11
135.477873
21
191.018104
0
LINE
8
Layer 1
10
135.477873
20
191.018104
11
136.073714
21
190.812259
0
LINE
8
Layer 1
10
136.073714
20
190.812259
11
136.667703
21
190.598211
0
LINE
8
Layer 1
10
136.667703
20
190.598211
11
137.258781
21
190.377020
0
LINE
8
Layer 1
10
137.258781
20
190.377020
11
137.846949
21
190.149214
0
LINE
8
Layer 1
10
137.846949
20
190.149214
11
138.431942
21
189.913206
0
LINE
8
Layer 1
10
138.431942
20
189.913206
11
139.013760
21
189.670054
0
LINE
8
Layer 1
10
139.013760
20
189.670054
11
139.592932
21
189.420023
0
LINE
8
Layer 1
10
139.592932
20
189.420023
11
140.168930
21
189.162055
0
LINE
8
Layer 1
10
140.168930
20
189.162055
11
140.741752
21
188.897207
0
LINE
8
Layer 1
10
140.741752
20
188.897207
11
141.310870
21
188.625216
0
LINE
8
Layer 1
10
141.310870
20
188.625216
11
141.876813
21
188.345022
0
LINE
8
Layer 1
10
141.876813
20
188.345022
11
142.438787
21
188.059008
0
LINE
8
Layer 1
10
142.438787
20
188.059008
11
142.996793
21
187.765056
0
LINE
8
Layer 1
10
142.996793
20
187.765056
11
143.551888
21
187.465019
0
LINE
8
Layer 1
10
143.551888
20
187.465019
11
144.102750
21
187.157045
0
LINE
8
Layer 1
10
144.102750
20
187.157045
11
144.649907
21
186.843249
0
LINE
8
Layer 1
10
144.649907
20
186.843249
11
145.192832
21
186.521252
0
LINE
8
Layer 1
10
145.192832
20
186.521252
11
145.730729
21
186.193169
0
LINE
8
Layer 1
10
145.730729
20
186.193169
11
146.265716
21
185.858207
0
LINE
8
Layer 1
10
146.265716
20
185.858207
11
146.795940
21
185.516101
0
LINE
8
Layer 1
10
146.795940
20
185.516101
11
147.321931
21
185.168174
0
LINE
8
Layer 1
10
147.321931
20
185.168174
11
147.843689
21
184.813104
0
LINE
8
Layer 1
10
147.843689
20
184.813104
11
148.360684
21
184.452213
0
LINE
8
Layer 1
10
148.360684
20
184.452213
11
148.873710
21
184.084178
0
LINE
8
Layer 1
10
148.873710
20
184.084178
11
149.380916
21
183.709264
0
LINE
8
Layer 1
10
149.380916
20
183.709264
11
149.883888
21
183.329058
0
LINE
8
Layer 1
10
149.883888
20
183.329058
11
150.382892
21
182.941179
0
LINE
8
Layer 1
10
150.382892
20
182.941179
11
150.875810
21
182.548273
0
LINE
8
Layer 1
10
150.875810
20
182.548273
11
151.363701
21
182.148224
0
LINE
8
Layer 1
10
151.363701
20
182.148224
11
151.846830
21
181.743147
0
LINE
8
Layer 1
10
151.846830
20
181.743147
11
152.324931
21
181.331192
0
LINE
8
Layer 1
10
152.324931
20
181.331192
11
152.797741
21
180.913150
0
LINE
8
Layer 1
10
152.797741
20
180.913150
11
153.265788
21
180.490082
0
LINE
8
Layer 1
10
153.265788
20
180.490082
11
153.727750
21
180.060135
0
LINE
8
Layer 1
10
153.727750
20
180.060135
11
154.183891
21
179.625160
0
LINE
8
Layer 1
10
154.183891
20
179.625160
11
154.634741
21
179.184101
0
LINE
8
Layer 1
10
154.634741
20
179.184101
11
155.080828
21
178.737220
0
LINE
8
Layer 1
10
155.080828
20
178.737220
11
155.520829
21
178.285047
0
LINE
8
Layer 1
10
155.520829
20
178.285047
11
155.954745
21
177.827054
0
LINE
8
Layer 1
10
155.954745
20
177.827054
11
156.382840
21
177.364034
0
LINE
8
Layer 1
10
156.382840
20
177.364034
11
156.804850
21
176.895193
0
LINE
8
Layer 1
10
156.804850
20
176.895193
11
157.221833
21
176.421060
0
LINE
8
Layer 1
10
157.221833
20
176.421060
11
157.631672
21
175.942165
0
LINE
8
Layer 1
10
157.631672
20
175.942165
11
158.036749
21
175.458243
0
LINE
8
Layer 1
10
158.036749
20
175.458243
11
158.434682
21
174.968235
0
LINE
8
Layer 1
10
158.434682
20
174.968235
11
158.826794
21
174.474259
0
LINE
8
Layer 1
10
158.826794
20
174.474259
11
159.212820
21
173.975255
0
LINE
8
Layer 1
10
159.212820
20
173.975255
11
159.591703
21
173.471224
0
LINE
8
Layer 1
10
159.591703
20
173.471224
11
159.964765
21
172.962167
0
LINE
8
Layer 1
10
159.964765
20
172.962167
11
160.331742
21
172.448082
0
LINE
8
Layer 1
10
160.331742
20
172.448082
11
160.691839
21
171.930028
0
LINE
8
Layer 1
10
160.691839
20
171.930028
11
161.044793
21
171.408271
0
LINE
8
Layer 1
10
161.044793
20
171.408271
11
161.391926
21
170.881221
0
LINE
8
Layer 1
10
161.391926
20
170.881221
11
161.731915
21
170.349145
0
LINE
8
Layer 1
10
161.731915
20
170.349145
11
162.065819
21
169.814158
0
LINE
8
Layer 1
10
162.065819
20
169.814158
11
162.392843
21
169.274144
0
LINE
8
Layer 1
10
162.392843
20
169.274144
11
162.712724
21
168.730162
0
LINE
8
Layer 1
10
162.712724
20
168.730162
11
163.025726
21
168.183269
0
LINE
8
Layer 1
10
163.025726
20
168.183269
11
163.331848
21
167.631084
0
LINE
8
Layer 1
10
163.331848
20
167.631084
11
163.630827
21
167.075195
0
LINE
8
Layer 1
10
163.630827
20
167.075195
11
163.922662
21
166.516131
0
LINE
8
Layer 1
10
163.922662
20
166.516131
11
164.207883
21
165.953098
0
LINE
8
Layer 1
10
164.207883
20
165.953098
11
164.484901
21
165.387155
0
LINE
8
Layer 1
10
164.484901
20
165.387155
11
164.755834
21
164.817244
0
LINE
8
Layer 1
10
164.755834
20
164.817244
11
165.019888
21
164.244157
0
LINE
8
Layer 1
10
165.019888
20
164.244157
11
165.275740
21
163.667101
0
LINE
8
Layer 1
10
165.275740
20
163.667101
11
165.524712
21
163.087135
0
LINE
8
Layer 1
10
165.524712
20
163.087135
11
165.765747
21
162.505053
0
LINE
8
Layer 1
10
165.765747
20
162.505053
11
165.999903
21
161.919266
0
LINE
8
Layer 1
10
165.999903
20
161.919266
11
166.226916
21
161.330040
0
LINE
8
Layer 1
10
166.226916
20
161.330040
11
166.445726
21
160.738168
0
LINE
8
Layer 1
10
166.445726
20
160.738168
11
166.657921
21
160.144179
0
LINE
8
Layer 1
10
166.657921
20
160.144179
11
166.862709
21
159.547279
0
LINE
8
Layer 1
10
166.862709
20
159.547279
11
167.058765
21
158.948264
0
LINE
8
Layer 1
10
167.058765
20
158.948264
11
167.248735
21
158.346073
0
LINE
8
Layer 1
10
167.248735
20
158.346073
11
167.429710
21
157.742294
0
LINE
8
Layer 1
10
167.429710
20
157.742294
11
167.603806
21
157.135076
0
LINE
8
Layer 1
10
167.603806
20
157.135076
11
167.770757
21
156.527064
0
LINE
8
Layer 1
10
167.770757
20
156.527064
11
167.928713
21
155.916142
0
LINE
8
Layer 1
10
167.928713
20
155.916142
11
168.079790
21
155.303104
0
LINE
8
Layer 1
10
168.079790
20
155.303104
11
168.222665
21
154.689271
0
LINE
8
Layer 1
10
168.222665
20
154.689271
11
168.358661
21
154.073057
0
LINE
8
Layer 1
10
168.358661
20
154.073057
11
168.485661
21
153.455256
0
LINE
8
Layer 1
10
168.485661
20
153.455256
11
168.605781
21
152.836132
0
LINE
8
Layer 1
10
168.605781
20
152.836132
11
168.717700
21
152.215155
0
LINE
8
Layer 1
10
168.717700
20
152.215155
11
168.821681
21
151.592062
0
LINE
8
Layer 1
10
168.821681
20
151.592062
11
168.917725
21
150.969234
0
LINE
8
Layer 1
10
168.917725
20
150.969234
11
169.006889
21
150.344289
0
LINE
8
Layer 1
10
169.006889
20
150.344289
11
169.086793
21
149.718286
0
LINE
8
Layer 1
10
169.086793
20
149.718286
11
169.159818
21
149.092282
0
LINE
8
Layer 1
10
169.159818
20
149.092282
11
169.224906
21
148.464162
0
LINE
8
Layer 1
10
169.224906
20
148.464162
11
169.280733
21
147.836307
0
LINE
8
Layer 1
10
169.280733
20
147.836307
11
169.329680
21
147.207128
0
LINE
8
Layer 1
10
169.329680
20
147.207128
11
169.370691
21
146.577156
0
LINE
8
Layer 1
10
169.370691
20
146.577156
11
169.403764
21
145.947184
0
LINE
8
Layer 1
10
169.403764
20
145.947184
11
169.428899
21
145.317212
0
LINE
8
Layer 1
10
169.428899
20
145.317212
11
169.445832
21
144.686181
0
LINE
8
Layer 1
10
169.445832
20
144.686181
11
169.454828
21
144.055151
0
LINE
8
Layer 1
10
169.454828
20
144.055151
11
169.455887
21
143.424121
0
LINE
8
Layer 1
10
169.455887
20
143.424121
11
169.449801
21
142.794148
0
LINE
8
Layer 1
10
169.449801
20
142.794148
11
169.434720
21
142.163118
0
LINE
8
Layer 1
10
169.434720
20
142.163118
11
169.411701
21
141.532088
0
LINE
8
Layer 1
10
169.411701
20
141.532088
11
169.380745
21
140.902115
0
LINE
8
Layer 1
10
169.380745
20
140.902115
11
169.342910
21
140.272143
0
LINE
8
Layer 1
10
169.342910
20
140.272143
11
169.295814
21
139.643229
0
LINE
8
Layer 1
10
169.295814
20
139.643229
11
169.241839
21
139.015109
0
LINE
8
Layer 1
10
169.241839
20
139.015109
11
169.178868
21
138.387254
0
LINE
8
Layer 1
10
169.178868
20
138.387254
11
169.108754
21
137.761251
0
LINE
8
Layer 1
10
169.108754
20
137.761251
11
169.030702
21
137.136306
0
LINE
8
Layer 1
10
169.030702
20
137.136306
11
168.944712
21
136.513213
0
LINE
8
Layer 1
10
168.944712
20
136.513213
11
168.850785
21
135.890120
0
LINE
8
Layer 1
10
168.850785
20
135.890120
11
168.748656
21
135.269143
0
LINE
8
Layer 1
10
168.748656
20
135.269143
11
168.639913
21
134.649225
0
LINE
8
Layer 1
10
168.639913
20
134.649225
11
168.522702
21
134.030101
0
LINE
8
Layer 1
10
168.522702
20
134.030101
11
168.397819
21
133.413094
0
LINE
8
Layer 1
10
168.397819
20
133.413094
11
168.264734
21
132.798203
0
LINE
8
Layer 1
10
168.264734
20
132.798203
11
168.123711
21
132.184106
0
LINE
8
Layer 1
10
168.123711
20
132.184106
11
167.975809
21
131.572125
0
LINE
8
Layer 1
10
167.975809
20
131.572125
11
167.819705
21
130.962261
0
LINE
8
Layer 1
10
167.819705
20
130.962261
11
167.656722
21
130.354250
0
LINE
8
Layer 1
10
167.656722
20
130.354250
11
167.484743
21
129.748090
0
LINE
8
Layer 1
10
167.484743
20
129.748090
11
167.306679
21
129.144311
0
LINE
8
Layer 1
10
167.306679
20
129.144311
11
167.119883
21
128.543179
0
LINE
8
Layer 1
10
167.119883
20
128.543179
11
166.925679
21
127.944163
0
LINE
8
Layer 1
10
166.925679
20
127.944163
11
166.724861
21
127.347264
0
LINE
8
Layer 1
10
166.724861
20
127.347264
11
166.515840
21
126.753275
0
LINE
8
Layer 1
10
166.515840
20
126.753275
11
166.298882
21
126.162196
0
LINE
8
Layer 1
10
166.298882
20
126.162196
11
166.074780
21
125.574293
0
LINE
8
Layer 1
10
166.074780
20
125.574293
11
165.843799
21
124.988242
0
LINE
8
Layer 1
10
165.843799
20
124.988242
11
165.604881
21
124.405101
0
LINE
8
Layer 1
10
165.604881
20
124.405101
11
165.358819
21
123.826193
0
LINE
8
Layer 1
10
165.358819
20
123.826193
11
165.105877
21
123.249138
0
LINE
8
Layer 1
10
165.105877
20
123.249138
11
164.845792
21
122.676315
0
LINE
8
Layer 1
10
164.845792
20
122.676315
11
164.577770
21
122.106139
0
LINE
8
Layer 1
10
164.577770
20
122.106139
11
164.302868
21
121.540196
0
LINE
8
Layer 1
10
164.302868
20
121.540196
11
164.020823
21
120.977163
0
LINE
8
Layer 1
10
164.020823
20
120.977163
11
163.731898
21
120.417306
0
LINE
8
Layer 1
10
163.731898
20
120.417306
11
163.435830
21
119.862211
0
LINE
8
Layer 1
10
163.435830
20
119.862211
11
163.132882
21
119.310291
0
LINE
8
Layer 1
10
163.132882
20
119.310291
11
162.822791
21
118.762339
0
LINE
8
Layer 1
10
162.822791
20
118.762339
11
162.505820
21
118.218356
0
LINE
8
Layer 1
10
162.505820
20
118.218356
11
162.182764
21
117.678343
0
LINE
8
Layer 1
10
162.182764
20
117.678343
11
161.851771
21
117.142297
0
LINE
8
Layer 1
10
161.851771
20
117.142297
11
161.514692
21
116.610221
0
LINE
8
Layer 1
10
161.514692
20
116.610221
11
161.170734
21
116.082113
0
LINE
8
Layer 1
10
161.170734
20
116.082113
11
160.820691
21
115.559297
0
LINE
8
Layer 1
10
160.820691
20
115.559297
11
160.463769
21
115.041244
0
LINE
8
Layer 1
10
160.463769
20
115.041244
11
160.100761
21
114.527159
0
LINE
8
Layer 1
10
160.100761
20
114.527159
11
159.730874
21
114.017308
0
LINE
8
Layer 1
10
159.730874
20
114.017308
11
159.353843
21
113.512219
0
LINE
8
Layer 1
10
159.353843
20
113.512219
11
158.971785
21
113.012157
0
LINE
8
Layer 1
10
158.971785
20
113.012157
11
158.582848
21
112.517122
0
LINE
8
Layer 1
10
158.582848
20
112.517122
11
158.187826
21
112.027114
0
LINE
8
Layer 1
10
158.187826
20
112.027114
11
157.785924
21
111.542134
0
LINE
8
Layer 1
10
157.785924
20
111.542134
11
157.378731
21
111.061122
0
LINE
8
Layer 1
10
157.378731
20
111.061122
11
156.965717
21
110.586195
0
LINE
8
Layer 1
10
156.965717
20
110.586195
11
156.545824
21
110.117354
0
LINE
8
Layer 1
10
156.545824
20
110.117354
11
156.120903
21
109.652217
0
LINE
8
Layer 1
10
156.120903
20
109.652217
11
155.689898
21
109.193166
0
LINE
8
Layer 1
10
155.689898
20
109.193166
11
155.253865
21
108.740200
0
LINE
8
Layer 1
10
155.253865
20
108.740200
11
154.810688
21
108.292261
0
LINE
8
Layer 1
10
154.810688
20
108.292261
11
154.362749
21
107.849349
0
LINE
8
Layer 1
10
154.362749
20
107.849349
11
153.909783
21
107.413316
0
LINE
8
Layer 1
10
153.909783
20
107.413316
11
153.450732
21
106.982310
0
LINE
8
Layer 1
10
153.450732
20
106.982310
11
152.985859
21
106.556332
0
LINE
8
Layer 1
10
152.985859
20
106.556332
11
152.516754
21
106.137232
0
LINE
8
Layer 1
10
152.516754
20
106.137232
11
152.041827
21
105.724218
0
LINE
8
Layer 1
10
152.041827
20
105.724218
11
151.561874
21
105.317289
0
LINE
8
Layer 1
10
151.561874
20
105.317289
11
151.075835
21
104.915123
0
LINE
8
Layer 1
10
151.075835
20
104.915123
11
150.585827
21
104.520365
0
LINE
8
Layer 1
10
150.585827
20
104.520365
11
150.090792
21
104.131164
0
LINE
8
Layer 1
10
150.090792
20
104.131164
11
149.590730
21
103.749371
0
LINE
8
Layer 1
10
149.590730
20
103.749371
11
149.085906
21
103.372340
0
LINE
8
Layer 1
10
149.085906
20
103.372340
11
148.576848
21
103.002188
0
LINE
8
Layer 1
10
148.576848
20
103.002188
11
148.062763
21
102.639180
0
LINE
8
Layer 1
10
148.062763
20
102.639180
11
147.543916
21
102.282258
0
LINE
8
Layer 1
10
147.543916
20
102.282258
11
147.020836
21
101.931156
0
LINE
8
Layer 1
10
147.020836
20
101.931156
11
146.492728
21
101.588257
0
LINE
8
Layer 1
10
146.492728
20
101.588257
11
145.961710
21
101.250120
0
LINE
8
Layer 1
10
145.961710
20
101.250120
11
145.425929
21
100.920185
0
LINE
8
Layer 1
10
145.425929
20
100.920185
11
144.885915
21
100.596335
0
LINE
8
Layer 1
10
144.885915
20
100.596335
11
144.340874
21
100.280158
0
LINE
8
Layer 1
10
144.340874
20
100.280158
11
143.792923
21
99.970332
0
LINE
8
Layer 1
10
143.792923
20
99.970332
11
143.241797
21
99.667119
0
LINE
8
Layer 1
10
143.241797
20
99.667119
11
142.685908
21
99.371316
0
LINE
8
Layer 1
10
142.685908
20
99.371316
11
142.125786
21
99.082126
0
LINE
8
Layer 1
10
142.125786
20
99.082126
11
141.563811
21
98.800346
0
LINE
8
Layer 1
10
141.563811
20
98.800346
11
140.996810
21
98.525179
0
LINE
8
Layer 1
10
140.996810
20
98.525179
11
140.426898
21
98.257157
0
LINE
8
Layer 1
10
140.426898
20
98.257157
11
139.853811
21
97.996278
0
LINE
8
Layer 1
10
139.853811
20
97.996278
11
139.277814
21
97.743336
0
LINE
8
Layer 1
10
139.277814
20
97.743336
11
138.697848
21
97.497274
0
LINE
8
Layer 1
10
138.697848
20
97.497274
11
138.114707
21
97.259150
0
LINE
8
Layer 1
10
138.114707
20
97.259150
11
137.529714
21
97.027375
0
LINE
8
Layer 1
10
137.529714
20
97.027375
11
136.940752
21
96.803273
0
LINE
8
Layer 1
10
136.940752
20
96.803273
11
136.349939
21
96.587373
0
LINE
8
Layer 1
10
136.349939
20
96.587373
11
135.755950
21
96.378353
0
LINE
8
Layer 1
10
135.755950
20
96.378353
11
135.159844
21
96.176211
0
LINE
8
Layer 1
10
135.159844
20
96.176211
11
135.154817
21
96.177270
0
LINE
8
Layer 1
10
135.154817
20
96.177270
11
135.152701
21
96.181238
0
LINE
8
Layer 1
10
135.152701
20
96.181238
11
135.152701
21
123.104146
0
LINE
8
Layer 1
10
98.399876
20
125.309216
11
99.507309
21
125.420855
0
LINE
8
Layer 1
10
99.507309
20
125.420855
11
100.538775
21
125.741040
0
LINE
8
Layer 1
10
100.538775
20
125.741040
11
101.472179
21
126.247675
0
LINE
8
Layer 1
10
101.472179
20
126.247675
11
102.285423
21
126.918663
0
LINE
8
Layer 1
10
102.285423
20
126.918663
11
102.956410
21
127.731907
0
LINE
8
Layer 1
10
102.956410
20
127.731907
11
103.463045
21
128.665310
0
LINE
8
Layer 1
10
103.463045
20
128.665310
11
103.783230
21
129.696777
0
LINE
8
Layer 1
10
103.783230
20
129.696777
11
103.894869
21
130.804209
0
LINE
8
Layer 1
10
103.894869
20
130.804209
11
103.783230
21
131.911642
0
LINE
8
Layer 1
10
103.783230
20
131.911642
11
103.463045
21
132.943109
0
LINE
8
Layer 1
10
103.463045
20
132.943109
11
102.956410
21
133.876512
0
LINE
8
Layer 1
10
102.956410
20
133.876512
11
102.285423
21
134.689756
0
LINE
8
Layer 1
10
102.285423
20
134.689756
11
101.472179
21
135.360744
0
LINE
8
Layer 1
10
101.472179
20
135.360744
11
100.538775
21
135.867379
0
LINE
8
Layer 1
10
100.538775
20
135.867379
11
99.507309
21
136.187564
0
LINE
8
Layer 1
10
99.507309
20
136.187564
11
98.399876
21
136.299203
0
LINE
8
Layer 1
10
98.399876
20
136.299203
11
97.292443
21
136.187564
0
LINE
8
Layer 1
10
97.292443
20
136.187564
11
96.260977
21
135.867379
0
LINE
8
Layer 1
10
96.260977
20
135.867379
11
95.327573
21
135.360744
0
LINE
8
Layer 1
10
95.327573
20
135.360744
11
94.514329
21
134.689756
0
LINE
8
Layer 1
10
94.514329
20
134.689756
11
93.843342
21
133.876512
0
LINE
8
Layer 1
10
93.843342
20
133.876512
11
93.336707
21
132.943109
0
LINE
8
Layer 1
10
93.336707
20
132.943109
11
93.016522
21
131.911642
0
LINE
8
Layer 1
10
93.016522
20
131.911642
11
92.904883
21
130.804209
0
LINE
8
Layer 1
10
92.904883
20
130.804209
11
93.016522
21
129.696777
0
LINE
8
Layer 1
10
93.016522
20
129.696777
11
93.336707
21
128.665310
0
LINE
8
Layer 1
10
93.336707
20
128.665310
11
93.843342
21
127.731907
0
LINE
8
Layer 1
10
93.843342
20
127.731907
11
94.514329
21
126.918663
0
LINE
8
Layer 1
10
94.514329
20
126.918663
11
95.327573
21
126.247675
0
LINE
8
Layer 1
10
95.327573
20
126.247675
11
96.260977
21
125.741040
0
LINE
8
Layer 1
10
96.260977
20
125.741040
11
97.292443
21
125.420855
0
LINE
8
Layer 1
10
97.292443
20
125.420855
11
98.399876
21
125.309216
0
LINE
8
Layer 1
10
80.710503
20
118.984604
11
81.487967
21
119.664303
0
LINE
8
Layer 1
10
81.487967
20
119.664303
11
81.821422
21
120.641672
0
LINE
8
Layer 1
10
81.821422
20
120.641672
11
81.621517
21
121.654826
0
LINE
8
Layer 1
10
81.621517
20
121.654826
11
80.941818
21
122.432290
0
LINE
8
Layer 1
10
80.941818
20
122.432290
11
79.964449
21
122.765744
0
LINE
8
Layer 1
10
79.964449
20
122.765744
11
78.951296
21
122.565840
0
LINE
8
Layer 1
10
78.951296
20
122.565840
11
78.323430
21
122.082743
0
LINE
8
Layer 1
10
78.323430
20
122.082743
11
77.942768
21
121.419406
0
LINE
8
Layer 1
10
77.942768
20
121.419406
11
77.838616
21
120.661731
0
LINE
8
Layer 1
10
77.838616
20
120.661731
11
78.040282
21
119.895619
0
LINE
8
Layer 1
10
78.040282
20
119.895619
11
78.523379
21
119.267753
0
LINE
8
Layer 1
10
78.523379
20
119.267753
11
79.186715
21
118.887090
0
LINE
8
Layer 1
10
79.186715
20
118.887090
11
79.944390
21
118.782938
0
LINE
8
Layer 1
10
79.944390
20
118.782938
11
80.710503
21
118.984604
0
LINE
8
Layer 1
10
77.425982
20
116.552277
11
77.087845
21
117.083295
0
LINE
8
Layer 1
10
77.087845
20
117.083295
11
76.756851
21
117.618282
0
LINE
8
Layer 1
10
76.756851
20
117.618282
11
76.433002
21
118.157238
0
LINE
8
Layer 1
10
76.433002
20
118.157238
11
76.116031
21
118.700162
0
LINE
8
Layer 1
10
76.116031
20
118.700162
11
75.804882
21
119.247320
0
LINE
8
Layer 1
10
75.804882
20
119.247320
11
75.501934
21
119.798182
0
LINE
8
Layer 1
10
75.501934
20
119.798182
11
75.204807
21
120.353277
0
LINE
8
Layer 1
10
75.204807
20
120.353277
11
74.915883
21
120.912341
0
LINE
8
Layer 1
10
74.915883
20
120.912341
11
74.632779
21
121.474315
0
LINE
8
Layer 1
10
74.632779
20
121.474315
11
74.357877
21
122.039200
0
LINE
8
Layer 1
10
74.357877
20
122.039200
11
74.088796
21
122.608318
0
LINE
8
Layer 1
10
74.088796
20
122.608318
11
73.827917
21
123.181140
0
LINE
8
Layer 1
10
73.827917
20
123.181140
11
73.573918
21
123.756343
0
LINE
8
Layer 1
10
73.573918
20
123.756343
11
73.327856
21
124.335251
0
LINE
8
Layer 1
10
73.327856
20
124.335251
11
73.087879
21
124.917333
0
LINE
8
Layer 1
10
73.087879
20
124.917333
11
72.855839
21
125.502326
0
LINE
8
Layer 1
10
72.855839
20
125.502326
11
72.632002
21
126.089172
0
LINE
8
Layer 1
10
72.632002
20
126.089172
11
72.413986
21
126.680250
0
LINE
8
Layer 1
10
72.413986
20
126.680250
11
72.204965
21
127.273180
0
LINE
8
Layer 1
10
72.204965
20
127.273180
11
72.002030
21
127.869286
0
LINE
8
Layer 1
10
72.002030
20
127.869286
11
71.807032
21
128.467244
0
LINE
8
Layer 1
10
71.807032
20
128.467244
11
71.619972
21
129.067318
0
LINE
8
Layer 1
10
71.619972
20
129.067318
11
71.440850
21
129.670302
0
LINE
8
Layer 1
10
71.440850
20
129.670302
11
71.267812
21
130.275139
0
LINE
8
Layer 1
10
71.267812
20
130.275139
11
71.104035
21
130.883151
0
LINE
8
Layer 1
10
71.104035
20
130.883151
11
70.946873
21
131.492221
0
LINE
8
Layer 1
10
70.946873
20
131.492221
11
70.797913
21
132.103143
0
LINE
8
Layer 1
10
70.797913
20
132.103143
11
70.656890
21
132.716182
0
LINE
8
Layer 1
10
70.656890
20
132.716182
11
70.523011
21
133.331337
0
LINE
8
Layer 1
10
70.523011
20
133.331337
11
70.396805
21
133.947287
0
LINE
8
Layer 1
10
70.396805
20
133.947287
11
70.278801
21
134.565088
0
LINE
8
Layer 1
10
70.278801
20
134.565088
11
70.167941
21
135.185271
0
LINE
8
Layer 1
10
70.167941
20
135.185271
11
70.065812
21
135.805188
0
LINE
8
Layer 1
10
70.065812
20
135.805188
11
69.970826
21
136.427223
0
LINE
8
Layer 1
10
69.970826
20
136.427223
11
69.884043
21
137.050316
0
LINE
8
Layer 1
10
69.884043
20
137.050316
11
69.804933
21
137.674203
0
LINE
8
Layer 1
10
69.804933
20
137.674203
11
69.734025
21
138.299148
0
LINE
8
Layer 1
10
69.734025
20
138.299148
11
69.734818
21
138.303117
0
LINE
8
Layer 1
10
69.734818
20
138.303117
11
69.738787
21
138.305233
0
LINE
8
Layer 1
10
69.738787
20
138.305233
11
76.524018
21
138.305233
0
LINE
8
Layer 1
10
76.524018
20
138.305233
11
76.524018
21
139.950146
0
LINE
8
Layer 1
10
76.524018
20
139.950146
11
76.525870
21
139.954115
0
LINE
8
Layer 1
10
76.525870
20
139.954115
11
76.528781
21
139.955173
0
LINE
8
Layer 1
10
76.528781
20
139.955173
11
104.157860
21
139.955173
0
LINE
8
Layer 1
10
104.157860
20
139.955173
11
104.161829
21
139.954115
0
LINE
8
Layer 1
10
104.161829
20
139.954115
11
104.162888
21
139.950146
0
LINE
8
Layer 1
10
104.162888
20
139.950146
11
104.162888
21
96.046301
0
LINE
8
Layer 1
10
104.162888
20
96.046301
11
104.160771
21
96.042332
0
LINE
8
Layer 1
10
104.160771
20
96.042332
11
104.155744
21
96.042332
0
LINE
8
Layer 1
10
104.155744
20
96.042332
11
103.562813
21
96.236272
0
LINE
8
Layer 1
10
103.562813
20
96.236272
11
102.971999
21
96.439207
0
LINE
8
Layer 1
10
102.971999
20
96.439207
11
102.382773
21
96.648227
0
LINE
8
Layer 1
10
102.382773
20
96.648227
11
101.796986
21
96.865185
0
LINE
8
Layer 1
10
101.796986
20
96.865185
11
101.213845
21
97.089287
0
LINE
8
Layer 1
10
101.213845
20
97.089287
11
100.633879
21
97.321327
0
LINE
8
Layer 1
10
100.633879
20
97.321327
11
100.055766
21
97.560245
0
LINE
8
Layer 1
10
100.055766
20
97.560245
11
99.481885
21
97.806307
0
LINE
8
Layer 1
10
99.481885
20
97.806307
11
98.910915
21
98.059249
0
LINE
8
Layer 1
10
98.910915
20
98.059249
11
98.341797
21
98.319334
0
LINE
8
Layer 1
10
98.341797
20
98.319334
11
97.777971
21
98.586298
0
LINE
8
Layer 1
10
97.777971
20
98.586298
11
97.215996
21
98.861200
0
LINE
8
Layer 1
10
97.215996
20
98.861200
11
96.657991
21
99.142187
0
LINE
8
Layer 1
10
96.657991
20
99.142187
11
96.103954
21
99.430318
0
LINE
8
Layer 1
10
96.103954
20
99.430318
11
95.552828
21
99.725328
0
LINE
8
Layer 1
10
95.552828
20
99.725328
11
95.005934
21
100.027217
0
LINE
8
Layer 1
10
95.005934
20
100.027217
11
94.463010
21
100.336250
0
LINE
8
Layer 1
10
94.463010
20
100.336250
11
93.923790
21
100.652162
0
LINE
8
Layer 1
10
93.923790
20
100.652162
11
93.388803
21
100.974159
0
LINE
8
Layer 1
10
93.388803
20
100.974159
11
92.857785
21
101.303301
0
LINE
8
Layer 1
10
92.857785
20
101.303301
11
92.331000
21
101.639321
0
LINE
8
Layer 1
10
92.331000
20
101.639321
11
91.807920
21
101.981162
0
LINE
8
Layer 1
10
91.807920
20
101.981162
11
91.288808
21
102.330147
0
LINE
8
Layer 1
10
91.288808
20
102.330147
11
90.774988
21
102.685218
0
LINE
8
Layer 1
10
90.774988
20
102.685218
11
90.265930
21
103.046374
0
LINE
8
Layer 1
10
90.265930
20
103.046374
11
89.759783
21
103.414144
0
LINE
8
Layer 1
10
89.759783
20
103.414144
11
89.259985
21
103.788264
0
LINE
8
Layer 1
10
89.259985
20
103.788264
11
88.763892
21
104.169264
0
LINE
8
Layer 1
10
88.763892
20
104.169264
11
88.272826
21
104.555290
0
LINE
8
Layer 1
10
88.272826
20
104.555290
11
87.786787
21
104.948196
0
LINE
8
Layer 1
10
87.786787
20
104.948196
11
87.305775
21
105.346129
0
LINE
8
Layer 1
10
87.305775
20
105.346129
11
86.829791
21
105.751206
0
LINE
8
Layer 1
10
86.829791
20
105.751206
11
86.358833
21
106.162368
0
LINE
8
Layer 1
10
86.358833
20
106.162368
11
85.892902
21
106.578292
0
LINE
8
Layer 1
10
85.892902
20
106.578292
11
85.432792
21
107.000302
0
LINE
8
Layer 1
10
85.432792
20
107.000302
11
84.976916
21
107.428133
0
LINE
8
Layer 1
10
84.976916
20
107.428133
11
84.527919
21
107.862313
0
LINE
8
Layer 1
10
84.527919
20
107.862313
11
84.082890
21
108.301256
0
LINE
8
Layer 1
10
84.082890
20
108.301256
11
83.643947
21
108.746285
0
LINE
8
Layer 1
10
83.643947
20
108.746285
11
83.210824
21
109.196341
0
LINE
8
Layer 1
10
83.210824
20
109.196341
11
82.782994
21
109.651159
0
LINE
8
Layer 1
10
82.782994
20
109.651159
11
82.360984
21
110.112327
0
LINE
8
Layer 1
10
82.360984
20
110.112327
11
81.944795
21
110.578258
0
LINE
8
Layer 1
10
81.944795
20
110.578258
11
81.534956
21
111.049216
0
LINE
8
Layer 1
10
81.534956
20
111.049216
11
81.129879
21
111.526259
0
LINE
8
Layer 1
10
81.129879
20
111.526259
11
80.731946
21
112.007271
0
LINE
8
Layer 1
10
80.731946
20
112.007271
11
80.339834
21
112.493310
0
LINE
8
Layer 1
10
80.339834
20
112.493310
11
79.953014
21
112.984111
0
LINE
8
Layer 1
10
79.953014
20
112.984111
11
79.572808
21
113.480204
0
LINE
8
Layer 1
10
79.572808
20
113.480204
11
79.200011
21
113.981324
0
LINE
8
Layer 1
10
79.200011
20
113.981324
11
78.831976
21
114.486149
0
LINE
8
Layer 1
10
78.831976
20
114.486149
11
78.470820
21
114.996265
0
LINE
8
Layer 1
10
78.470820
20
114.996265
11
78.116014
21
115.510349
0
LINE
8
Layer 1
10
78.116014
20
115.510349
11
77.767029
21
116.029197
0
LINE
8
Layer 1
10
77.767029
20
116.029197
11
77.425982
21
116.552277
0
LINE
8
Layer 1
10
104.157860
20
139.955173
11
111.798753
21
139.955173
0
LINE
8
Layer 1
10
111.798753
20
139.955173
11
111.803780
21
139.952262
0
LINE
8
Layer 1
10
111.802957
20
139.952277
11
112.948636
21
138.183167
0
LINE
8
Layer 1
10
112.948636
20
138.183167
11
114.469621
21
136.768899
0
LINE
8
Layer 1
10
114.469621
20
136.768899
11
116.288193
21
135.765731
0
LINE
8
Layer 1
10
116.288193
20
135.765731
11
118.326634
21
135.229921
0
LINE
8
Layer 1
10
118.326634
20
135.229921
11
120.434243
21
135.212179
0
LINE
8
Layer 1
10
120.434243
20
135.212179
11
122.452296
21
135.703108
0
LINE
8
Layer 1
10
122.452296
20
135.703108
11
124.291038
21
136.668809
0
LINE
8
Layer 1
10
124.291038
20
136.668809
11
125.860713
21
138.075384
0
LINE
8
Layer 1
10
125.860810
20
138.075311
11
125.866896
21
138.077163
0
LINE
8
Layer 1
10
125.866896
20
138.077163
11
125.869806
21
138.072136
0
LINE
8
Layer 1
10
125.869806
20
138.072136
11
125.869806
21
126.150290
0
LINE
8
Layer 1
10
125.869806
20
126.150290
11
125.868748
21
126.146321
0
LINE
8
Layer 1
10
125.868748
20
126.146321
11
125.864779
21
126.145263
0
LINE
8
Layer 1
10
125.864779
20
126.145263
11
113.169822
21
126.145263
0
LINE
8
Layer 1
10
113.169822
20
126.145263
11
113.169822
21
116.691183
0
LINE
8
Layer 1
10
113.169822
20
116.691183
11
113.168764
21
116.687215
0
LINE
8
Layer 1
10
113.168764
20
116.687215
11
113.164795
21
116.686156
0
LINE
8
Layer 1
10
113.164795
20
116.686156
11
109.467777
21
116.686156
0
LINE
8
Layer 1
10
109.467777
20
116.686156
11
109.467777
21
94.658299
0
LINE
8
Layer 1
10
109.467777
20
94.658299
11
109.465925
21
94.654330
0
LINE
8
Layer 1
10
109.465925
20
94.654330
11
109.461956
21
94.653272
0
LINE
8
Layer 1
10
109.461956
20
94.653272
11
108.864792
21
94.778155
0
LINE
8
Layer 1
10
108.864792
20
94.778155
11
108.269745
21
94.911240
0
LINE
8
Layer 1
10
108.269745
20
94.911240
11
107.676814
21
95.051204
0
LINE
8
Layer 1
10
107.676814
20
95.051204
11
107.084942
21
95.198313
0
LINE
8
Layer 1
10
107.084942
20
95.198313
11
106.495980
21
95.353358
0
LINE
8
Layer 1
10
106.495980
20
95.353358
11
105.907812
21
95.514225
0
LINE
8
Layer 1
10
105.907812
20
95.514225
11
105.321761
21
95.683293
0
LINE
8
Layer 1
10
105.321761
20
95.683293
11
104.737826
21
95.859241
0
LINE
8
Layer 1
10
104.737826
20
95.859241
11
104.155744
21
96.042332
0
LINE
8
Layer 1
10
69.734025
20
138.299148
11
69.670789
21
138.922241
0
LINE
8
Layer 1
10
69.670789
20
138.922241
11
69.614962
21
139.545069
0
LINE
8
Layer 1
10
69.614962
20
139.545069
11
69.567867
21
140.169220
0
LINE
8
Layer 1
10
69.567867
20
140.169220
11
69.527914
21
140.793107
0
LINE
8
Layer 1
10
69.527914
20
140.793107
11
69.495900
21
141.418317
0
LINE
8
Layer 1
10
69.495900
20
141.418317
11
69.471823
21
142.043262
0
LINE
8
Layer 1
10
69.471823
20
142.043262
11
69.455948
21
142.668207
0
LINE
8
Layer 1
10
69.455948
20
142.668207
11
69.448010
21
143.293152
0
LINE
8
Layer 1
10
69.448010
20
143.293152
11
69.446952
21
143.919155
0
LINE
8
Layer 1
10
69.446952
20
143.919155
11
69.454890
21
144.545159
0
LINE
8
Layer 1
10
69.454890
20
144.545159
11
69.469971
21
145.170104
0
LINE
8
Layer 1
10
69.469971
20
145.170104
11
69.492990
21
145.795313
0
LINE
8
Layer 1
10
69.492990
20
145.795313
11
69.522887
21
146.420258
0
LINE
8
Layer 1
10
69.522887
20
146.420258
11
69.561781
21
147.044145
0
LINE
8
Layer 1
10
69.561781
20
147.044145
11
69.607819
21
147.668296
0
LINE
8
Layer 1
10
69.607819
20
147.668296
11
69.661793
21
148.291125
0
LINE
8
Layer 1
10
69.661793
20
148.291125
11
69.723970
21
148.914218
0
LINE
8
Layer 1
10
135.159844
20
96.176211
11
134.569824
21
95.985182
0
LINE
8
Layer 1
10
134.569824
20
95.985182
11
133.977952
21
95.801297
0
LINE
8
Layer 1
10
133.977952
20
95.801297
11
133.383963
21
95.625350
0
LINE
8
Layer 1
10
133.383963
20
95.625350
11
132.786799
21
95.456281
0
LINE
8
Layer 1
10
132.786799
20
95.456281
11
132.188842
21
95.294356
0
LINE
8
Layer 1
10
132.188842
20
95.294356
11
131.587709
21
95.140369
0
LINE
8
Layer 1
10
131.587709
20
95.140369
11
130.985783
21
94.994319
0
LINE
8
Layer 1
10
130.985783
20
94.994319
11
130.381740
21
94.854355
0
LINE
8
Layer 1
10
130.381740
20
94.854355
11
129.775845
21
94.723386
0
LINE
8
Layer 1
10
129.775845
20
94.723386
11
129.168891
21
94.598238
0
LINE
8
Layer 1
10
129.168891
20
94.598238
11
128.559821
21
94.482351
0
LINE
8
Layer 1
10
128.559821
20
94.482351
11
127.949958
21
94.372284
0
LINE
8
Layer 1
10
127.949958
20
94.372284
11
127.337712
21
94.271214
0
LINE
8
Layer 1
10
127.337712
20
94.271214
11
126.725732
21
94.177287
0
LINE
8
Layer 1
10
126.725732
20
94.177287
11
126.111899
21
94.091297
0
LINE
8
Layer 1
10
126.111899
20
94.091297
11
125.496744
21
94.012187
0
LINE
8
Layer 1
10
125.496744
20
94.012187
11
124.880795
21
93.941279
0
LINE
8
Layer 1
10
124.880795
20
93.941279
11
124.263787
21
93.877250
0
LINE
8
Layer 1
10
124.263787
20
93.877250
11
123.646780
21
93.821158
0
LINE
8
Layer 1
10
123.646780
20
93.821158
11
123.028714
21
93.773269
0
LINE
8
Layer 1
10
123.028714
20
93.773269
11
122.409854
21
93.733317
0
LINE
8
Layer 1
10
122.409854
20
93.733317
11
121.790730
21
93.700244
0
LINE
8
Layer 1
10
121.790730
20
93.700244
11
121.171870
21
93.675373
0
LINE
8
Layer 1
10
121.171870
20
93.675373
11
120.551952
21
93.657381
0
LINE
8
Layer 1
10
120.551952
20
93.657381
11
119.932828
21
93.647327
0
LINE
8
Layer 1
10
119.932828
20
93.647327
11
119.312910
21
93.645210
0
LINE
8
Layer 1
10
119.312910
20
93.645210
11
118.692728
21
93.651296
0
LINE
8
Layer 1
10
118.692728
20
93.651296
11
118.072810
21
93.664260
0
LINE
8
Layer 1
10
118.072810
20
93.664260
11
117.453950
21
93.685162
0
LINE
8
Layer 1
10
117.453950
20
93.685162
11
116.833767
21
93.714267
0
LINE
8
Layer 1
10
116.833767
20
93.714267
11
116.214908
21
93.750250
0
LINE
8
Layer 1
10
116.214908
20
93.750250
11
115.596842
21
93.794171
0
LINE
8
Layer 1
10
115.596842
20
93.794171
11
114.978776
21
93.845235
0
LINE
8
Layer 1
10
114.978776
20
93.845235
11
114.361768
21
93.905295
0
LINE
8
Layer 1
10
114.361768
20
93.905295
11
113.745819
21
93.972235
0
LINE
8
Layer 1
10
113.745819
20
93.972235
11
113.130928
21
94.046318
0
LINE
8
Layer 1
10
113.130928
20
94.046318
11
112.515773
21
94.128339
0
LINE
8
Layer 1
10
112.515773
20
94.128339
11
111.902734
21
94.218297
0
LINE
8
Layer 1
10
111.902734
20
94.218297
11
111.290754
21
94.315135
0
LINE
8
Layer 1
10
111.290754
20
94.315135
11
110.679831
21
94.420174
0
LINE
8
Layer 1
10
110.679831
20
94.420174
11
110.069968
21
94.533151
0
LINE
8
Layer 1
10
110.069968
20
94.533151
11
109.461956
21
94.653272
0
LINE
8
Layer 1
10
135.157728
20
137.542176
11
133.961812
21
137.542176
0
LINE
8
Layer 1
10
133.961831
20
137.542201
11
133.080806
21
137.455033
0
LINE
8
Layer 1
10
133.080806
20
137.455033
11
132.241671
21
137.200040
0
LINE
8
Layer 1
10
132.241671
20
137.200040
11
131.468006
21
136.786989
0
LINE
8
Layer 1
10
131.468006
20
136.786989
11
130.783390
21
136.225648
0
LINE
8
Layer 1
10
130.783390
20
136.225648
11
130.222049
21
135.541032
0
LINE
8
Layer 1
10
130.222049
20
135.541032
11
129.808998
21
134.767366
0
LINE
8
Layer 1
10
129.808998
20
134.767366
11
129.554005
21
133.928231
0
LINE
8
Layer 1
10
129.554005
20
133.928231
11
129.466837
21
133.047207
0
LINE
8
Layer 1
10
129.466812
20
133.047175
11
129.466812
21
116.691183
0
LINE
8
Layer 1
10
129.466812
20
116.691183
11
129.465754
21
116.687215
0
LINE
8
Layer 1
10
129.465754
20
116.687215
11
129.461785
21
116.686156
0
LINE
8
Layer 1
10
129.461785
20
116.686156
11
126.169843
21
116.686156
0
LINE
8
Layer 1
10
126.169843
20
116.686156
11
126.169843
21
101.150372
0
LINE
8
Layer 1
10
126.169843
20
101.150372
11
126.168785
21
101.146138
0
LINE
8
Layer 1
10
126.168785
20
101.146138
11
126.164816
21
101.145345
0
LINE
8
Layer 1
10
126.164816
20
101.145345
11
113.164795
21
101.145345
0
LINE
8
Layer 1
10
113.164795
20
101.145345
11
113.160826
21
101.146138
0
LINE
8
Layer 1
10
113.160826
20
101.146138
11
113.159768
21
101.150372
0
LINE
8
Layer 1
10
113.159768
20
101.150372
11
113.159768
21
126.150290
0
LINE
8
Layer 1
10
113.159768
20
126.150290
11
113.160826
21
126.154259
0
LINE
8
Layer 1
10
113.160826
20
126.154259
11
113.164795
21
126.155317
0
LINE
8
Layer 1
10
113.164795
20
126.155317
11
125.859752
21
126.155317
0
LINE
8
Layer 1
10
125.859752
20
126.155317
11
125.859752
21
138.072136
0
LINE
8
Layer 1
10
125.859752
20
138.072136
11
125.860810
21
138.075311
0
LINE
8
Layer 1
10
125.861218
20
138.074815
11
126.999569
21
139.751889
0
LINE
8
Layer 1
10
126.999569
20
139.751889
11
127.708221
21
141.650898
0
LINE
8
Layer 1
10
127.707864
20
141.651150
11
127.709716
21
141.654325
0
LINE
8
Layer 1
10
127.709716
20
141.654325
11
127.712891
21
141.655119
0
LINE
8
Layer 1
10
127.712891
20
141.655119
11
135.157728
21
141.655119
0
LINE
8
Layer 1
10
135.157728
20
141.655119
11
135.161961
21
141.654325
0
LINE
8
Layer 1
10
135.161961
20
141.654325
11
135.162755
21
141.650092
0
LINE
8
Layer 1
10
135.162755
20
141.650092
11
135.162755
21
137.547203
0
LINE
8
Layer 1
10
135.162755
20
137.547203
11
135.161961
21
137.543234
0
LINE
8
Layer 1
10
135.161961
20
137.543234
11
135.157728
21
137.542176
 0 
ENDSEC
 0 
EOF