999
"DXF R12 Output" (www.mydxf.blogspot.com)
 0 
SECTION
 2 
HEADER
 9 
$ACADVER
 1 
AC1009
 9 
$EXTMIN
 10 
 0 
 20 
 0 
 9 
$EXTMAX
 10 
 8.5 
 20 
 11 
 0 
ENDSEC
 0 
SECTION
 2 
ENTITIES
0
LINE
8
Layer 1
10
0.793749
20
297.793749
11
-0.793749
21
296.206251
0
LINE
8
Layer 1
10
0.000000
20
298.322915
11
0.000000
21
295.677085
0
LINE
8
Layer 1
10
2.116664
20
295.941668
11
1.058332
21
294.883336
0
LINE
8
Layer 1
10
1.587498
20
296.470834
11
0.529166
21
295.412502
0
LINE
8
Layer 1
10
1.058332
20
297.000000
11
0.000000
21
295.941668
0
LINE
8
Layer 1
10
40.072788
20
173.418067
11
40.483804
21
174.452309
0
LINE
8
Layer 1
10
40.483804
20
174.452309
11
40.674775
21
175.515194
0
LINE
8
Layer 1
10
40.674775
20
175.515194
11
40.655128
21
176.576940
0
LINE
8
Layer 1
10
40.655128
20
176.576940
11
40.434292
21
177.607763
0
LINE
8
Layer 1
10
40.434292
20
177.607763
11
40.021695
21
178.577880
0
LINE
8
Layer 1
10
40.021695
20
178.577880
11
39.426765
21
179.457509
0
LINE
8
Layer 1
10
39.426765
20
179.457509
11
38.658931
21
180.216868
0
LINE
8
Layer 1
10
38.658931
20
180.216868
11
37.727620
21
180.826173
0
LINE
8
Layer 1
10
37.727620
20
180.826173
11
36.693446
21
181.237362
0
LINE
8
Layer 1
10
36.693446
20
181.237362
11
35.630593
21
181.428509
0
LINE
8
Layer 1
10
35.630593
20
181.428509
11
34.568844
21
181.409039
0
LINE
8
Layer 1
10
34.568844
20
181.409039
11
33.537984
21
181.188375
0
LINE
8
Layer 1
10
33.537984
20
181.188375
11
32.567798
21
180.775939
0
LINE
8
Layer 1
10
32.567798
20
180.775939
11
31.688070
21
180.181156
0
LINE
8
Layer 1
10
31.688070
20
180.181156
11
30.928584
21
179.413448
0
LINE
8
Layer 1
10
30.928584
20
179.413448
11
30.319124
21
178.482238
0
LINE
8
Layer 1
10
30.319124
20
178.482238
11
29.908107
21
177.447996
0
LINE
8
Layer 1
10
29.908107
20
177.447996
11
29.717136
21
176.385111
0
LINE
8
Layer 1
10
29.717136
20
176.385111
11
29.736783
21
175.323365
0
LINE
8
Layer 1
10
29.736783
20
175.323365
11
29.957619
21
174.292542
0
LINE
8
Layer 1
10
29.957619
20
174.292542
11
30.370216
21
173.322425
0
LINE
8
Layer 1
10
30.370216
20
173.322425
11
30.965146
21
172.442796
0
LINE
8
Layer 1
10
30.965146
20
172.442796
11
31.732981
21
171.683437
0
LINE
8
Layer 1
10
31.732981
20
171.683437
11
32.664291
21
171.074132
0
LINE
8
Layer 1
10
32.664291
20
171.074132
11
33.698465
21
170.662943
0
LINE
8
Layer 1
10
33.698465
20
170.662943
11
34.761319
21
170.471796
0
LINE
8
Layer 1
10
34.761319
20
170.471796
11
35.823068
21
170.491266
0
LINE
8
Layer 1
10
35.823068
20
170.491266
11
36.853927
21
170.711930
0
LINE
8
Layer 1
10
36.853927
20
170.711930
11
37.824113
21
171.124366
0
LINE
8
Layer 1
10
37.824113
20
171.124366
11
38.703842
21
171.719149
0
LINE
8
Layer 1
10
38.703842
20
171.719149
11
39.463328
21
172.486857
0
LINE
8
Layer 1
10
39.463328
20
172.486857
11
40.072788
21
173.418067
0
LINE
8
Layer 1
10
66.854916
20
153.700181
11
67.045128
21
152.266440
0
LINE
8
Layer 1
10
67.045128
20
152.266440
11
67.591105
21
150.952684
0
LINE
8
Layer 1
10
67.591105
20
150.952684
11
68.455862
21
149.822976
0
LINE
8
Layer 1
10
68.455862
20
149.822976
11
69.602412
21
148.941377
0
LINE
8
Layer 1
10
69.602412
20
148.941377
11
70.939174
21
148.389235
0
LINE
8
Layer 1
10
70.939174
20
148.389235
11
72.349909
21
148.205187
0
LINE
8
Layer 1
10
72.349909
20
148.205187
11
73.760644
21
148.389235
0
LINE
8
Layer 1
10
73.760644
20
148.389235
11
75.097405
21
148.941377
0
LINE
8
Layer 1
10
75.097405
20
148.941377
11
76.243955
21
149.822976
0
LINE
8
Layer 1
10
76.243955
20
149.822976
11
77.108712
21
150.952684
0
LINE
8
Layer 1
10
77.108712
20
150.952684
11
77.654690
21
152.266440
0
LINE
8
Layer 1
10
77.654690
20
152.266440
11
77.844902
21
153.700181
0
LINE
8
Layer 1
10
77.844902
20
153.700181
11
77.654690
21
155.133921
0
LINE
8
Layer 1
10
77.654690
20
155.133921
11
77.108712
21
156.447677
0
LINE
8
Layer 1
10
77.108712
20
156.447677
11
76.243955
21
157.577386
0
LINE
8
Layer 1
10
76.243955
20
157.577386
11
75.097405
21
158.458984
0
LINE
8
Layer 1
10
75.097405
20
158.458984
11
73.760644
21
159.011126
0
LINE
8
Layer 1
10
73.760644
20
159.011126
11
72.349909
21
159.195174
0
LINE
8
Layer 1
10
72.349909
20
159.195174
11
70.939174
21
159.011126
0
LINE
8
Layer 1
10
70.939174
20
159.011126
11
69.602412
21
158.458984
0
LINE
8
Layer 1
10
69.602412
20
158.458984
11
68.455862
21
157.577386
0
LINE
8
Layer 1
10
68.455862
20
157.577386
11
67.591105
21
156.447677
0
LINE
8
Layer 1
10
67.591105
20
156.447677
11
67.045128
21
155.133921
0
LINE
8
Layer 1
10
67.045128
20
155.133921
11
66.854916
21
153.700181
0
LINE
8
Layer 1
10
39.109636
20
135.645316
11
38.412025
21
136.512563
0
LINE
8
Layer 1
10
38.412025
20
136.512563
11
37.581069
21
137.202400
0
LINE
8
Layer 1
10
37.581069
20
137.202400
11
36.647339
21
137.708358
0
LINE
8
Layer 1
10
36.647339
20
137.708358
11
35.641404
21
138.023971
0
LINE
8
Layer 1
10
35.641404
20
138.023971
11
34.593834
21
138.142772
0
LINE
8
Layer 1
10
34.593834
20
138.142772
11
33.535199
21
138.058295
0
LINE
8
Layer 1
10
33.535199
20
138.058295
11
32.496068
21
137.764072
0
LINE
8
Layer 1
10
32.496068
20
137.764072
11
31.507010
21
137.253636
0
LINE
8
Layer 1
10
31.507010
20
137.253636
11
30.639725
21
136.556072
0
LINE
8
Layer 1
10
30.639725
20
136.556072
11
29.949844
21
135.725154
0
LINE
8
Layer 1
10
29.949844
20
135.725154
11
29.443835
21
134.791451
0
LINE
8
Layer 1
10
29.443835
20
134.791451
11
29.128167
21
133.785534
0
LINE
8
Layer 1
10
29.128167
20
133.785534
11
29.009309
21
132.737970
0
LINE
8
Layer 1
10
29.009309
20
132.737970
11
29.093728
21
131.679330
0
LINE
8
Layer 1
10
29.093728
20
131.679330
11
29.387895
21
130.640183
0
LINE
8
Layer 1
10
29.387895
20
130.640183
11
29.898277
21
129.651098
0
LINE
8
Layer 1
10
29.898277
20
129.651098
11
30.595888
21
128.783851
0
LINE
8
Layer 1
10
30.595888
20
128.783851
11
31.426844
21
128.094014
0
LINE
8
Layer 1
10
31.426844
20
128.094014
11
32.360574
21
127.588056
0
LINE
8
Layer 1
10
32.360574
20
127.588056
11
33.366509
21
127.272443
0
LINE
8
Layer 1
10
33.366509
20
127.272443
11
34.414079
21
127.153642
0
LINE
8
Layer 1
10
34.414079
20
127.153642
11
35.472714
21
127.238119
0
LINE
8
Layer 1
10
35.472714
20
127.238119
11
36.511845
21
127.532342
0
LINE
8
Layer 1
10
36.511845
20
127.532342
11
37.500903
21
128.042778
0
LINE
8
Layer 1
10
37.500903
20
128.042778
11
38.368188
21
128.740342
0
LINE
8
Layer 1
10
38.368188
20
128.740342
11
39.058069
21
129.571260
0
LINE
8
Layer 1
10
39.058069
20
129.571260
11
39.564078
21
130.504963
0
LINE
8
Layer 1
10
39.564078
20
130.504963
11
39.879746
21
131.510880
0
LINE
8
Layer 1
10
39.879746
20
131.510880
11
39.998605
21
132.558444
0
LINE
8
Layer 1
10
39.998605
20
132.558444
11
39.914185
21
133.617084
0
LINE
8
Layer 1
10
39.914185
20
133.617084
11
39.620018
21
134.656231
0
LINE
8
Layer 1
10
39.620018
20
134.656231
11
39.109636
21
135.645316
0
LINE
8
Layer 1
10
48.347632
20
145.263982
11
50.027326
21
145.636644
0
LINE
8
Layer 1
10
50.027326
20
145.636644
11
51.552524
21
146.315606
0
LINE
8
Layer 1
10
51.552524
20
146.315606
11
52.893325
21
147.262939
0
LINE
8
Layer 1
10
52.893325
20
147.262939
11
54.019829
21
148.440716
0
LINE
8
Layer 1
10
54.019829
20
148.440716
11
54.902135
21
149.811010
0
LINE
8
Layer 1
10
54.902135
20
149.811010
11
55.510343
21
151.335893
0
LINE
8
Layer 1
10
55.510343
20
151.335893
11
55.814552
21
152.977440
0
LINE
8
Layer 1
10
55.814552
20
152.977440
11
55.784862
21
154.697721
0
LINE
8
Layer 1
10
55.784862
20
154.697721
11
55.412453
21
156.377472
0
LINE
8
Layer 1
10
55.412453
20
156.377472
11
54.733723
21
157.902773
0
LINE
8
Layer 1
10
54.733723
20
157.902773
11
53.786593
21
159.243717
0
LINE
8
Layer 1
10
53.786593
20
159.243717
11
52.608987
21
160.370399
0
LINE
8
Layer 1
10
52.608987
20
160.370399
11
51.238827
21
161.252913
0
LINE
8
Layer 1
10
51.238827
20
161.252913
11
49.714035
21
161.861352
0
LINE
8
Layer 1
10
49.714035
20
161.861352
11
48.072535
21
162.165809
0
LINE
8
Layer 1
10
48.072535
20
162.165809
11
46.352249
21
162.136380
0
LINE
8
Layer 1
10
46.352249
20
162.136380
11
44.672554
21
161.763717
0
LINE
8
Layer 1
10
44.672554
20
161.763717
11
43.147357
21
161.084755
0
LINE
8
Layer 1
10
43.147357
20
161.084755
11
41.806555
21
160.137423
0
LINE
8
Layer 1
10
41.806555
20
160.137423
11
40.680052
21
158.959646
0
LINE
8
Layer 1
10
40.680052
20
158.959646
11
39.797746
21
157.589352
0
LINE
8
Layer 1
10
39.797746
20
157.589352
11
39.189538
21
156.064468
0
LINE
8
Layer 1
10
39.189538
20
156.064468
11
38.885329
21
154.422922
0
LINE
8
Layer 1
10
38.885329
20
154.422922
11
38.915019
21
152.702640
0
LINE
8
Layer 1
10
38.915019
20
152.702640
11
39.287427
21
151.022889
0
LINE
8
Layer 1
10
39.287427
20
151.022889
11
39.966158
21
149.497589
0
LINE
8
Layer 1
10
39.966158
20
149.497589
11
40.913288
21
148.156644
0
LINE
8
Layer 1
10
40.913288
20
148.156644
11
42.090894
21
147.029962
0
LINE
8
Layer 1
10
42.090894
20
147.029962
11
43.461054
21
146.147448
0
LINE
8
Layer 1
10
43.461054
20
146.147448
11
44.985846
21
145.539010
0
LINE
8
Layer 1
10
44.985846
20
145.539010
11
46.627346
21
145.234552
0
LINE
8
Layer 1
10
46.627346
20
145.234552
11
48.347632
21
145.263982
0
LINE
8
Layer 1
10
51.261898
20
112.882247
11
50.691986
21
112.831182
0
LINE
8
Layer 1
10
50.691986
20
112.831182
11
50.121016
21
112.789113
0
LINE
8
Layer 1
10
50.121016
20
112.789113
11
49.548988
21
112.754188
0
LINE
8
Layer 1
10
49.548988
20
112.754188
11
48.976959
21
112.727201
0
LINE
8
Layer 1
10
48.976959
20
112.727201
11
48.404931
21
112.709209
0
LINE
8
Layer 1
10
48.404931
20
112.709209
11
47.832902
21
112.698361
0
LINE
8
Layer 1
10
47.832902
20
112.698361
11
47.259815
21
112.695186
0
LINE
8
Layer 1
10
47.259815
20
112.695186
11
46.688052
21
112.700213
0
LINE
8
Layer 1
10
46.688052
20
112.700213
11
46.114965
21
112.714236
0
LINE
8
Layer 1
10
46.114965
20
112.714236
11
45.542936
21
112.735138
0
LINE
8
Layer 1
10
45.542936
20
112.735138
11
44.970908
21
112.764243
0
LINE
8
Layer 1
10
44.970908
20
112.764243
11
44.399938
21
112.801284
0
LINE
8
Layer 1
10
44.399938
20
112.801284
11
43.828968
21
112.846263
0
LINE
8
Layer 1
10
43.828968
20
112.846263
11
43.259056
21
112.900238
0
LINE
8
Layer 1
10
43.259056
20
112.900238
11
42.689938
21
112.961357
0
LINE
8
Layer 1
10
42.689938
20
112.961357
11
42.121878
21
113.030148
0
LINE
8
Layer 1
10
42.121878
20
113.030148
11
41.553818
21
113.107142
0
LINE
8
Layer 1
10
41.553818
20
113.107142
11
40.987875
21
113.192338
0
LINE
8
Layer 1
10
40.987875
20
113.192338
11
40.422991
21
113.284148
0
LINE
8
Layer 1
10
40.422991
20
113.284148
11
39.859958
21
113.385219
0
LINE
8
Layer 1
10
39.859958
20
113.385219
11
39.296925
21
113.493169
0
LINE
8
Layer 1
10
39.296925
20
113.493169
11
38.737068
21
113.610114
0
LINE
8
Layer 1
10
38.737068
20
113.610114
11
38.178004
21
113.734204
0
LINE
8
Layer 1
10
38.178004
20
113.734204
11
37.621057
21
113.866231
0
LINE
8
Layer 1
10
37.621057
20
113.866231
11
37.065962
21
114.006195
0
LINE
8
Layer 1
10
37.065962
20
114.006195
11
36.511925
21
114.153303
0
LINE
8
Layer 1
10
36.511925
20
114.153303
11
35.961063
21
114.308349
0
LINE
8
Layer 1
10
35.961063
20
114.308349
11
35.412053
21
114.471332
0
LINE
8
Layer 1
10
35.412053
20
114.471332
11
34.865954
21
114.642253
0
LINE
8
Layer 1
10
34.865954
20
114.642253
11
34.321971
21
114.820317
0
LINE
8
Layer 1
10
34.321971
20
114.820317
11
33.779841
21
115.005261
0
LINE
8
Layer 1
10
33.779841
20
115.005261
11
33.240885
21
115.199200
0
LINE
8
Layer 1
10
33.240885
20
115.199200
11
32.704840
21
115.399225
0
LINE
8
Layer 1
10
32.704840
20
115.399225
11
32.171970
21
115.608245
0
LINE
8
Layer 1
10
32.171970
20
115.608245
11
31.640952
21
115.823351
0
LINE
8
Layer 1
10
31.640952
20
115.823351
11
31.113902
21
116.046130
0
LINE
8
Layer 1
10
31.113902
20
116.046130
11
30.590028
21
116.277111
0
LINE
8
Layer 1
10
30.590028
20
116.277111
11
30.069064
21
116.514177
0
LINE
8
Layer 1
10
30.069064
20
116.514177
11
29.551011
21
116.759181
0
LINE
8
Layer 1
10
29.551011
20
116.759181
11
29.036926
21
117.011329
0
LINE
8
Layer 1
10
29.036926
20
117.011329
11
28.527074
21
117.271149
0
LINE
8
Layer 1
10
28.527074
20
117.271149
11
28.019869
21
117.537320
0
LINE
8
Layer 1
10
28.019869
20
117.537320
11
27.516897
21
117.810105
0
LINE
8
Layer 1
10
27.516897
20
117.810105
11
27.017893
21
118.091357
0
LINE
8
Layer 1
10
27.017893
20
118.091357
11
26.522858
21
118.378165
0
LINE
8
Layer 1
10
26.522858
20
118.378165
11
26.031977
21
118.672116
0
LINE
8
Layer 1
10
26.031977
20
118.672116
11
25.544959
21
118.973212
0
LINE
8
Layer 1
10
25.544959
20
118.973212
11
25.061963
21
119.281186
0
LINE
8
Layer 1
10
25.061963
20
119.281186
11
24.582962
21
119.596305
0
LINE
8
Layer 1
10
24.582962
20
119.596305
11
24.109967
21
119.917244
0
LINE
8
Layer 1
10
24.109967
20
119.917244
11
23.639962
21
120.245327
0
LINE
8
Layer 1
10
23.639962
20
120.245327
11
23.174984
21
120.579231
0
LINE
8
Layer 1
10
23.174984
20
120.579231
11
22.714980
21
120.920278
0
LINE
8
Layer 1
10
22.714980
20
120.920278
11
22.259976
21
121.267146
0
LINE
8
Layer 1
10
22.259976
20
121.267146
11
21.809974
21
121.620100
0
LINE
8
Layer 1
10
21.809974
20
121.620100
11
21.363966
21
121.980198
0
LINE
8
Layer 1
10
21.363966
20
121.980198
11
20.923964
21
122.346116
0
LINE
8
Layer 1
10
20.923964
20
122.346116
11
20.488964
21
122.718120
0
LINE
8
Layer 1
10
20.488964
20
122.718120
11
20.058963
21
123.096209
0
LINE
8
Layer 1
10
20.058963
20
123.096209
11
19.633964
21
123.480119
0
LINE
8
Layer 1
10
19.633964
20
123.480119
11
19.214970
21
123.870114
0
LINE
8
Layer 1
10
19.214970
20
123.870114
11
18.800977
21
124.266195
0
LINE
8
Layer 1
10
18.800977
20
124.266195
11
18.392990
21
124.667303
0
LINE
8
Layer 1
10
18.392990
20
124.667303
11
17.989977
21
125.074231
0
LINE
8
Layer 1
10
17.989977
20
125.074231
11
17.593976
21
125.487245
0
LINE
8
Layer 1
10
17.593976
20
125.487245
11
17.202975
21
125.905286
0
LINE
8
Layer 1
10
17.202975
20
125.905286
11
16.816975
21
126.329148
0
LINE
8
Layer 1
10
16.816975
20
126.329148
11
16.437986
21
126.758302
0
LINE
8
Layer 1
10
16.437986
20
126.758302
11
16.064977
21
127.192218
0
LINE
8
Layer 1
10
16.064977
20
127.192218
11
15.697974
21
127.632220
0
LINE
8
Layer 1
10
15.697974
20
127.632220
11
15.336977
21
128.076190
0
LINE
8
Layer 1
10
15.336977
20
128.076190
11
14.981986
21
128.526246
0
LINE
8
Layer 1
10
14.981986
20
128.526246
11
14.633980
21
128.980270
0
LINE
8
Layer 1
10
14.633980
20
128.980270
11
14.291980
21
129.439322
0
LINE
8
Layer 1
10
14.291980
20
129.439322
11
13.956991
21
129.903136
0
LINE
8
Layer 1
10
13.956991
20
129.903136
11
13.627982
21
130.372241
0
LINE
8
Layer 1
10
13.627982
20
130.372241
11
13.304979
21
130.845316
0
LINE
8
Layer 1
10
13.304979
20
130.845316
11
12.988988
21
131.322094
0
LINE
8
Layer 1
10
12.988988
20
131.322094
11
12.679982
21
131.804164
0
LINE
8
Layer 1
10
12.679982
20
131.804164
11
12.377986
21
132.290203
0
LINE
8
Layer 1
10
12.377986
20
132.290203
11
12.081997
21
132.781269
0
LINE
8
Layer 1
10
12.081997
20
132.781269
11
11.793972
21
133.275246
0
LINE
8
Layer 1
10
11.793972
20
133.275246
11
11.511980
21
133.774249
0
LINE
8
Layer 1
10
11.511980
20
133.774249
11
11.236999
21
134.276163
0
LINE
8
Layer 1
10
11.236999
20
134.276163
11
10.969982
21
134.782311
0
LINE
8
Layer 1
10
10.969982
20
134.782311
11
10.708997
21
135.292162
0
LINE
8
Layer 1
10
10.708997
20
135.292162
11
10.455976
21
135.805188
0
LINE
8
Layer 1
10
10.455976
20
135.805188
11
10.208988
21
136.322184
0
LINE
8
Layer 1
10
10.208988
20
136.322184
11
9.969990
21
136.842089
0
LINE
8
Layer 1
10
9.969990
20
136.842089
11
9.738983
21
137.366228
0
LINE
8
Layer 1
10
9.738983
20
137.366228
11
9.513981
21
137.893278
0
LINE
8
Layer 1
10
9.513981
20
137.893278
11
9.296997
21
138.422179
0
LINE
8
Layer 1
10
9.296997
20
138.422179
11
9.087976
21
138.955314
0
LINE
8
Layer 1
10
9.087976
20
138.955314
11
8.885994
21
139.491094
0
LINE
8
Layer 1
10
8.885994
20
139.491094
11
8.690996
21
140.029256
0
LINE
8
Layer 1
10
8.690996
20
140.029256
11
8.503989
21
140.570328
0
LINE
8
Layer 1
10
8.503989
20
140.570328
11
8.323993
21
141.114311
0
LINE
8
Layer 1
10
8.323993
20
141.114311
11
8.151987
21
141.660146
0
LINE
8
Layer 1
10
8.151987
20
141.660146
11
7.987999
21
142.209155
0
LINE
8
Layer 1
10
7.987999
20
142.209155
11
7.830995
21
142.759223
0
LINE
8
Layer 1
10
7.830995
20
142.759223
11
7.682988
21
143.312202
0
LINE
8
Layer 1
10
7.682988
20
143.312202
11
7.540986
21
143.867297
0
LINE
8
Layer 1
10
7.540986
20
143.867297
11
7.407980
21
144.424244
0
LINE
8
Layer 1
10
7.407980
20
144.424244
11
7.281986
21
144.982250
0
LINE
8
Layer 1
10
7.281986
20
144.982250
11
7.164987
21
145.543166
0
LINE
8
Layer 1
10
7.164987
20
145.543166
11
7.055000
21
146.105140
0
LINE
8
Layer 1
10
7.055000
20
146.105140
11
6.951998
21
146.668173
0
LINE
8
Layer 1
10
6.951998
20
146.668173
11
6.857991
21
147.233057
0
LINE
8
Layer 1
10
6.857991
20
147.233057
11
6.772002
21
147.799265
0
LINE
8
Layer 1
10
6.772002
20
147.799265
11
6.692997
21
148.366266
0
LINE
8
Layer 1
10
6.692997
20
148.366266
11
6.622989
21
148.934062
0
LINE
8
Layer 1
10
6.622989
20
148.934062
11
6.559992
21
149.503180
0
LINE
8
Layer 1
10
6.559992
20
149.503180
11
6.505990
21
150.073091
0
LINE
8
Layer 1
10
6.505990
20
150.073091
11
6.459000
21
150.644061
0
LINE
8
Layer 1
10
6.459000
20
150.644061
11
6.420001
21
151.215296
0
LINE
8
Layer 1
10
6.420001
20
151.215296
11
6.389997
21
151.787060
0
LINE
8
Layer 1
10
6.389997
20
151.787060
11
6.367005
21
152.359088
0
LINE
8
Layer 1
10
6.367005
20
152.359088
11
6.352003
21
152.931117
0
LINE
8
Layer 1
10
6.352003
20
152.931117
11
6.344991
21
153.503145
0
LINE
8
Layer 1
10
6.344991
20
153.503145
11
6.347002
21
154.076232
0
LINE
8
Layer 1
10
6.347002
20
154.076232
11
6.355998
21
154.648261
0
LINE
8
Layer 1
10
6.355998
20
154.648261
11
6.372984
21
155.221083
0
LINE
8
Layer 1
10
6.372984
20
155.221083
11
6.397987
21
155.793111
0
LINE
8
Layer 1
10
6.397987
20
155.793111
11
6.431986
21
156.364081
0
LINE
8
Layer 1
10
6.431986
20
156.364081
11
6.472997
21
156.935051
0
LINE
8
Layer 1
10
6.472997
20
156.935051
11
6.521997
21
157.506286
0
LINE
8
Layer 1
10
6.521997
20
157.506286
11
6.578989
21
158.075140
0
LINE
8
Layer 1
10
6.578989
20
158.075140
11
6.643997
21
158.644258
0
LINE
8
Layer 1
10
6.643997
20
158.644258
11
6.716995
21
159.212053
0
LINE
8
Layer 1
10
6.716995
20
159.212053
11
6.797984
21
159.779054
0
LINE
8
Layer 1
10
6.797984
20
159.779054
11
6.886990
21
160.344203
0
LINE
8
Layer 1
10
6.886990
20
160.344203
11
6.983986
21
160.909088
0
LINE
8
Layer 1
10
6.983986
20
160.909088
11
7.087993
21
161.472121
0
LINE
8
Layer 1
10
7.087993
20
161.472121
11
7.200997
21
162.033301
0
LINE
8
Layer 1
10
7.200997
20
162.033301
11
7.320985
21
162.593159
0
LINE
8
Layer 1
10
7.320985
20
162.593159
11
7.448990
21
163.151164
0
LINE
8
Layer 1
10
7.448990
20
163.151164
11
7.584986
21
163.707053
0
LINE
8
Layer 1
10
7.584986
20
163.707053
11
7.727993
21
164.261090
0
LINE
8
Layer 1
10
7.727993
20
164.261090
11
7.879996
21
164.813275
0
LINE
8
Layer 1
10
7.879996
20
164.813275
11
8.038984
21
165.363078
0
LINE
8
Layer 1
10
8.038984
20
165.363078
11
8.204983
21
165.911294
0
LINE
8
Layer 1
10
8.204983
20
165.911294
11
8.379979
21
166.457129
0
LINE
8
Layer 1
10
8.379979
20
166.457129
11
8.561985
21
166.999260
0
LINE
8
Layer 1
10
8.561985
20
166.999260
11
8.750977
21
167.540067
0
LINE
8
Layer 1
10
8.750977
20
167.540067
11
8.947985
21
168.077171
0
LINE
8
Layer 1
10
8.947985
20
168.077171
11
9.152984
21
168.612158
0
LINE
8
Layer 1
10
9.152984
20
168.612158
11
9.364995
21
169.144234
0
LINE
8
Layer 1
10
9.364995
20
169.144234
11
9.583990
21
169.673135
0
LINE
8
Layer 1
10
9.583990
20
169.673135
11
9.810976
21
170.198068
0
LINE
8
Layer 1
10
9.810976
20
170.198068
11
10.044999
21
170.721149
0
LINE
8
Layer 1
10
10.044999
20
170.721149
11
10.285982
21
171.240261
0
LINE
8
Layer 1
10
10.285982
20
171.240261
11
10.533975
21
171.756197
0
LINE
8
Layer 1
10
10.533975
20
171.756197
11
10.789986
21
172.268165
0
LINE
8
Layer 1
10
10.789986
20
172.268165
11
11.052981
21
172.777223
0
LINE
8
Layer 1
10
11.052981
20
172.777223
11
11.322988
21
173.282048
0
LINE
8
Layer 1
10
11.322988
20
173.282048
11
11.599980
21
173.783168
0
LINE
8
Layer 1
10
11.599980
20
173.783168
11
11.883984
21
174.280055
0
LINE
8
Layer 1
10
11.883984
20
174.280055
11
12.173993
21
174.773237
0
LINE
8
Layer 1
10
12.173993
20
174.773237
11
12.471993
21
175.262187
0
LINE
8
Layer 1
10
12.471993
20
175.262187
11
12.775972
21
175.747167
0
LINE
8
Layer 1
10
12.775972
20
175.747167
11
13.087995
21
176.228179
0
LINE
8
Layer 1
10
13.087995
20
176.228179
11
13.405971
21
176.704164
0
LINE
8
Layer 1
10
13.405971
20
176.704164
11
13.729979
21
177.176180
0
LINE
8
Layer 1
10
13.729979
20
177.176180
11
14.060972
21
177.643169
0
LINE
8
Layer 1
10
14.060972
20
177.643169
11
14.398977
21
178.105131
0
LINE
8
Layer 1
10
14.398977
20
178.105131
11
14.742988
21
178.563124
0
LINE
8
Layer 1
10
14.742988
20
178.563124
11
15.092978
21
179.016090
0
LINE
8
Layer 1
10
15.092978
20
179.016090
11
15.449980
21
179.464029
0
LINE
8
Layer 1
10
15.449980
20
179.464029
11
15.811983
21
179.907206
0
LINE
8
Layer 1
10
15.811983
20
179.907206
11
16.180970
21
180.344032
0
LINE
8
Layer 1
10
16.180970
20
180.344032
11
16.555990
21
180.777155
0
LINE
8
Layer 1
10
16.555990
20
180.777155
11
16.936990
21
181.204192
0
LINE
8
Layer 1
10
16.936990
20
181.204192
11
17.323969
21
181.626202
0
LINE
8
Layer 1
10
17.323969
20
181.626202
11
17.716980
21
182.043184
0
LINE
8
Layer 1
10
17.716980
20
182.043184
11
18.115972
21
182.454082
0
LINE
8
Layer 1
10
18.115972
20
182.454082
11
18.519963
21
182.859158
0
LINE
8
Layer 1
10
18.519963
20
182.859158
11
18.929988
21
183.259208
0
LINE
8
Layer 1
10
18.929988
20
183.259208
11
19.345965
21
183.653172
0
LINE
8
Layer 1
10
19.345965
20
183.653172
11
19.766969
21
184.041051
0
LINE
8
Layer 1
10
19.766969
20
184.041051
11
20.192975
21
184.423108
0
LINE
8
Layer 1
10
20.192975
20
184.423108
11
20.623980
21
184.799081
0
LINE
8
Layer 1
10
20.623980
20
184.799081
11
21.060966
21
185.169233
0
LINE
8
Layer 1
10
21.060966
20
185.169233
11
21.502978
21
185.533034
0
LINE
8
Layer 1
10
21.502978
20
185.533034
11
21.949964
21
185.891015
0
LINE
8
Layer 1
10
21.949964
20
185.891015
11
22.401978
21
186.243175
0
LINE
8
Layer 1
10
22.401978
20
186.243175
11
22.858966
21
186.588191
0
LINE
8
Layer 1
10
22.858966
20
186.588191
11
23.320981
21
186.926064
0
LINE
8
Layer 1
10
23.320981
20
186.926064
11
23.786964
21
187.259174
0
LINE
8
Layer 1
10
23.786964
20
187.259174
11
24.257975
21
187.584082
0
LINE
8
Layer 1
10
24.257975
20
187.584082
11
24.732981
21
187.904227
0
LINE
8
Layer 1
10
24.732981
20
187.904227
11
25.212961
21
188.216170
0
LINE
8
Layer 1
10
25.212961
20
188.216170
11
25.696962
21
188.522028
0
LINE
8
Layer 1
10
25.696962
20
188.522028
11
26.184959
21
188.821007
0
LINE
8
Layer 1
10
26.184959
20
188.821007
11
26.677904
21
189.113107
0
LINE
8
Layer 1
10
26.677904
20
189.113107
11
27.173997
21
189.398063
0
LINE
8
Layer 1
10
27.173997
20
189.398063
11
27.674059
21
189.676139
0
LINE
8
Layer 1
10
27.674059
20
189.676139
11
28.178883
21
189.947072
0
LINE
8
Layer 1
10
28.178883
20
189.947072
11
28.686883
21
190.211126
0
LINE
8
Layer 1
10
28.686883
20
190.211126
11
29.198057
21
190.468036
0
LINE
8
Layer 1
10
29.198057
20
190.468036
11
29.712935
21
190.718067
0
LINE
8
Layer 1
10
29.712935
20
190.718067
11
30.232047
21
190.961219
0
LINE
8
Layer 1
10
30.232047
20
190.961219
11
30.754070
21
191.196169
0
LINE
8
Layer 1
10
30.754070
20
191.196169
11
31.279002
21
191.424239
0
LINE
8
Layer 1
10
31.279002
20
191.424239
11
31.806845
21
191.645166
0
LINE
8
Layer 1
10
31.806845
20
191.645166
11
32.338922
21
191.858155
0
LINE
8
Layer 1
10
32.338922
20
191.858155
11
32.872850
21
192.064001
0
LINE
8
Layer 1
10
32.872850
20
192.064001
11
33.409954
21
192.263232
0
LINE
8
Layer 1
10
33.409954
20
192.263232
11
33.949968
21
192.454261
0
LINE
8
Layer 1
10
33.949968
20
192.454261
11
34.491834
21
192.637088
0
LINE
8
Layer 1
10
34.491834
20
192.637088
11
35.036875
21
192.813035
0
LINE
8
Layer 1
10
35.036875
20
192.813035
11
35.584032
21
192.981046
0
LINE
8
Layer 1
10
35.584032
20
192.981046
11
36.133836
21
193.141118
0
LINE
8
Layer 1
10
36.133836
20
193.141118
11
36.686020
21
193.294047
0
LINE
8
Layer 1
10
36.686020
20
193.294047
11
37.238999
21
193.439039
0
LINE
8
Layer 1
10
37.238999
20
193.439039
11
37.794888
21
193.576093
0
LINE
8
Layer 1
10
37.794888
20
193.576093
11
38.352893
21
193.706003
0
LINE
8
Layer 1
10
38.352893
20
193.706003
11
38.911957
21
193.827182
0
LINE
8
Layer 1
10
38.911957
20
193.827182
11
39.472873
21
193.941217
0
LINE
8
Layer 1
10
39.472873
20
193.941217
11
40.035906
21
194.047051
0
LINE
8
Layer 1
10
40.035906
20
194.047051
11
40.599997
21
194.146005
0
LINE
8
Layer 1
10
40.599997
20
194.146005
11
41.165940
21
194.236227
0
LINE
8
Layer 1
10
41.165940
20
194.236227
11
41.731883
21
194.318248
0
LINE
8
Layer 1
10
41.731883
20
194.318248
11
42.299943
21
194.393125
0
LINE
8
Layer 1
10
42.299943
20
194.393125
11
42.868002
21
194.459006
0
LINE
8
Layer 1
10
42.868002
20
194.459006
11
43.437914
21
194.518008
0
LINE
8
Layer 1
10
43.437914
20
194.518008
11
44.007826
21
194.569073
0
LINE
8
Layer 1
10
44.007826
20
194.569073
11
44.579061
21
194.611141
0
LINE
8
Layer 1
10
44.579061
20
194.611141
11
45.150824
21
194.646066
0
LINE
8
Layer 1
10
45.150824
20
194.646066
11
45.722853
21
194.673054
0
LINE
8
Layer 1
10
45.722853
20
194.673054
11
46.294881
21
194.691046
0
LINE
8
Layer 1
10
46.294881
20
194.691046
11
46.866910
21
194.702158
0
LINE
8
Layer 1
10
46.866910
20
194.702158
11
47.439996
21
194.705068
0
LINE
8
Layer 1
10
47.439996
20
194.705068
11
48.012025
21
194.700041
0
LINE
8
Layer 1
10
48.012025
20
194.700041
11
48.584847
21
194.686018
0
LINE
8
Layer 1
10
48.584847
20
194.686018
11
49.156876
21
194.665116
0
LINE
8
Layer 1
10
49.156876
20
194.665116
11
49.728904
21
194.636012
0
LINE
8
Layer 1
10
49.728904
20
194.636012
11
50.299874
21
194.599235
0
LINE
8
Layer 1
10
50.299874
20
194.599235
11
50.870844
21
194.554256
0
LINE
8
Layer 1
10
50.870844
20
194.554256
11
51.441021
21
194.500017
0
LINE
8
Layer 1
10
51.441021
20
194.500017
11
52.009874
21
194.439163
0
LINE
8
Layer 1
10
52.009874
20
194.439163
11
52.577934
21
194.370106
0
LINE
8
Layer 1
10
52.577934
20
194.370106
11
53.145993
21
194.293113
0
LINE
8
Layer 1
10
53.145993
20
194.293113
11
53.711936
21
194.208182
0
LINE
8
Layer 1
10
53.711936
20
194.208182
11
54.276821
21
194.116107
0
LINE
8
Layer 1
10
54.276821
20
194.116107
11
54.839854
21
194.015036
0
LINE
8
Layer 1
10
54.839854
20
194.015036
11
55.402886
21
193.907086
0
LINE
8
Layer 1
10
55.402886
20
193.907086
11
55.963009
21
193.790140
0
LINE
8
Layer 1
10
55.963009
20
193.790140
11
56.521808
21
193.666051
0
LINE
8
Layer 1
10
56.521808
20
193.666051
11
57.079020
21
193.534024
0
LINE
8
Layer 1
10
57.079020
20
193.534024
11
57.633850
21
193.394060
0
LINE
8
Layer 1
10
57.633850
20
193.394060
11
58.187887
21
193.247216
0
LINE
8
Layer 1
10
58.187887
20
193.247216
11
58.739013
21
193.092170
0
LINE
8
Layer 1
10
58.739013
20
193.092170
11
59.288023
21
192.929187
0
LINE
8
Layer 1
10
59.288023
20
192.929187
11
59.833858
21
192.758002
0
LINE
8
Layer 1
10
59.833858
20
192.758002
11
60.377841
21
192.580202
0
LINE
8
Layer 1
10
60.377841
20
192.580202
11
60.919971
21
192.395259
0
LINE
8
Layer 1
10
60.919971
20
192.395259
11
61.458927
21
192.201055
0
LINE
8
Layer 1
10
61.458927
20
192.201055
11
61.994972
21
192.001030
0
LINE
8
Layer 1
10
61.994972
20
192.001030
11
62.527842
21
191.792010
0
LINE
8
Layer 1
10
62.527842
20
191.792010
11
63.058860
21
191.577168
0
LINE
8
Layer 1
10
63.058860
20
191.577168
11
63.585909
21
191.354125
0
LINE
8
Layer 1
10
63.585909
20
191.354125
11
64.110048
21
191.123144
0
LINE
8
Layer 1
10
64.110048
20
191.123144
11
64.631012
21
190.886077
0
LINE
8
Layer 1
10
64.631012
20
190.886077
11
65.148801
21
190.641074
0
LINE
8
Layer 1
10
65.148801
20
190.641074
11
65.662886
21
190.389191
0
LINE
8
Layer 1
10
65.662886
20
190.389191
11
66.173002
21
190.129105
0
LINE
8
Layer 1
10
66.173002
20
190.129105
11
66.679943
21
189.863200
0
LINE
8
Layer 1
10
66.679943
20
189.863200
11
67.182915
21
189.590150
0
LINE
8
Layer 1
10
67.182915
20
189.590150
11
67.681919
21
189.309163
0
LINE
8
Layer 1
10
67.681919
20
189.309163
11
68.176954
21
189.022090
0
LINE
8
Layer 1
10
68.176954
20
189.022090
11
68.668020
21
188.728138
0
LINE
8
Layer 1
10
68.668020
20
188.728138
11
69.154852
21
188.427043
0
LINE
8
Layer 1
10
69.154852
20
188.427043
11
69.637981
21
188.119068
0
LINE
8
Layer 1
10
69.637981
20
188.119068
11
70.116876
21
187.804215
0
LINE
8
Layer 1
10
70.116876
20
187.804215
11
70.589951
21
187.483011
0
LINE
8
Layer 1
10
70.589951
20
187.483011
11
71.059850
21
187.155193
0
LINE
8
Layer 1
10
71.059850
20
187.155193
11
71.524987
21
186.821024
0
LINE
8
Layer 1
10
71.524987
20
186.821024
11
71.984832
21
186.480241
0
LINE
8
Layer 1
10
71.984832
20
186.480241
11
72.439915
21
186.133108
0
LINE
8
Layer 1
10
72.439915
20
186.133108
11
72.889971
21
185.780155
0
LINE
8
Layer 1
10
72.889971
20
185.780155
11
73.335793
21
185.420057
0
LINE
8
Layer 1
10
73.335793
20
185.420057
11
73.775795
21
185.054139
0
LINE
8
Layer 1
10
73.775795
20
185.054139
11
74.211034
21
184.682135
0
LINE
8
Layer 1
10
74.211034
20
184.682135
11
74.640981
21
184.304046
0
LINE
8
Layer 1
10
74.640981
20
184.304046
11
75.065901
21
183.920136
0
LINE
8
Layer 1
10
75.065901
20
183.920136
11
75.485001
21
183.530141
0
LINE
8
Layer 1
10
75.485001
20
183.530141
11
75.898809
21
183.134060
0
LINE
8
Layer 1
10
75.898809
20
183.134060
11
76.306796
21
182.733217
0
LINE
8
Layer 1
10
76.306796
20
182.733217
11
76.710020
21
182.326024
0
LINE
8
Layer 1
10
76.710020
20
182.326024
11
77.105836
21
181.913274
0
LINE
8
Layer 1
10
77.105836
20
181.913274
11
77.496890
21
181.495233
0
LINE
8
Layer 1
10
77.496890
20
181.495233
11
77.882916
21
181.071106
0
LINE
8
Layer 1
10
77.882916
20
181.071106
11
78.261799
21
180.642217
0
LINE
8
Layer 1
10
78.261799
20
180.642217
11
78.634861
21
180.208037
0
LINE
8
Layer 1
10
78.634861
20
180.208037
11
79.001838
21
179.768035
0
LINE
8
Layer 1
10
79.001838
20
179.768035
11
79.362994
21
179.324065
0
LINE
8
Layer 1
10
79.362994
20
179.324065
11
79.717800
21
178.874274
0
LINE
8
Layer 1
10
79.717800
20
178.874274
11
80.065991
21
178.420249
0
LINE
8
Layer 1
10
80.065991
20
178.420249
11
80.407832
21
177.961198
0
LINE
8
Layer 1
10
80.407832
20
177.961198
11
80.742794
21
177.497119
0
LINE
8
Layer 1
10
80.742794
20
177.497119
11
81.071935
21
177.028278
0
LINE
8
Layer 1
10
81.071935
20
177.028278
11
81.394991
21
176.555204
0
LINE
8
Layer 1
10
81.394991
20
176.555204
11
81.710903
21
176.078161
0
LINE
8
Layer 1
10
81.710903
20
176.078161
11
82.019936
21
175.596090
0
LINE
8
Layer 1
10
82.019936
20
175.596090
11
82.321825
21
175.110051
0
LINE
8
Layer 1
10
82.321825
20
175.110051
11
82.617894
21
174.619250
0
LINE
8
Layer 1
10
82.617894
20
174.619250
11
82.906025
21
174.125274
0
LINE
8
Layer 1
10
82.906025
20
174.125274
11
83.187806
21
173.626270
0
LINE
8
Layer 1
10
83.187806
20
173.626270
11
83.462972
21
173.124091
0
LINE
8
Layer 1
10
83.462972
20
173.124091
11
83.729936
21
172.618209
0
LINE
8
Layer 1
10
83.729936
20
172.618209
11
83.990815
21
172.108093
0
LINE
8
Layer 1
10
83.990815
20
172.108093
11
84.244021
21
171.595066
0
LINE
8
Layer 1
10
84.244021
20
171.595066
11
84.490877
21
171.078071
0
LINE
8
Layer 1
10
84.490877
20
171.078071
11
84.729795
21
170.558166
0
LINE
8
Layer 1
10
84.729795
20
170.558166
11
84.960776
21
170.034291
0
LINE
8
Layer 1
10
84.960776
20
170.034291
11
85.185936
21
169.507242
0
LINE
8
Layer 1
10
85.185936
20
169.507242
11
85.402894
21
168.978076
0
LINE
8
Layer 1
10
85.402894
20
168.978076
11
85.611915
21
168.445206
0
LINE
8
Layer 1
10
85.611915
20
168.445206
11
85.813792
21
167.909161
0
LINE
8
Layer 1
10
85.813792
20
167.909161
11
86.008790
21
167.371263
0
LINE
8
Layer 1
10
86.008790
20
167.371263
11
86.195850
21
166.830191
0
LINE
8
Layer 1
10
86.195850
20
166.830191
11
86.375766
21
166.286208
0
LINE
8
Layer 1
10
86.375766
20
166.286208
11
86.548010
21
165.740109
0
LINE
8
Layer 1
10
86.548010
20
165.740109
11
86.711787
21
165.191099
0
LINE
8
Layer 1
10
86.711787
20
165.191099
11
86.868949
21
164.641296
0
LINE
8
Layer 1
10
86.868949
20
164.641296
11
87.016851
21
164.088053
0
LINE
8
Layer 1
10
87.016851
20
164.088053
11
87.158932
21
163.533222
0
LINE
8
Layer 1
10
87.158932
20
163.533222
11
87.292017
21
162.976275
0
LINE
8
Layer 1
10
87.292017
20
162.976275
11
87.417959
21
162.418270
0
LINE
8
Layer 1
10
87.417959
20
162.418270
11
87.534904
21
161.857089
0
LINE
8
Layer 1
10
87.534904
20
161.857089
11
87.644971
21
161.295115
0
LINE
8
Layer 1
10
87.644971
20
161.295115
11
87.747894
21
160.732082
0
LINE
8
Layer 1
10
87.747894
20
160.732082
11
87.841821
21
160.167197
0
LINE
8
Layer 1
10
87.841821
20
160.167197
11
87.927810
21
159.601254
0
LINE
8
Layer 1
10
87.927810
20
159.601254
11
88.006920
21
159.034253
0
LINE
8
Layer 1
10
88.006920
20
159.034253
11
88.076770
21
158.466193
0
LINE
8
Layer 1
10
88.076770
20
158.466193
11
88.140006
21
157.897075
0
LINE
8
Layer 1
10
88.140006
20
157.897075
11
88.193981
21
157.327163
0
LINE
8
Layer 1
10
88.193981
20
157.327163
11
88.240812
21
156.756193
0
LINE
8
Layer 1
10
88.240812
20
156.756193
11
88.279970
21
156.185223
0
LINE
8
Layer 1
10
88.279970
20
156.185223
11
88.309868
21
155.613195
0
LINE
8
Layer 1
10
88.309868
20
155.613195
11
88.332887
21
155.041166
0
LINE
8
Layer 1
10
88.332887
20
155.041166
11
88.347968
21
154.469138
0
LINE
8
Layer 1
10
88.347968
20
154.469138
11
88.354847
21
153.897109
0
LINE
8
Layer 1
10
88.354847
20
153.897109
11
88.352995
21
153.324287
0
LINE
8
Layer 1
10
88.352995
20
153.324287
11
88.343999
21
152.752259
0
LINE
8
Layer 1
10
88.343999
20
152.752259
11
88.326801
21
152.179172
0
LINE
8
Layer 1
10
88.326801
20
152.179172
11
88.301930
21
151.607144
0
LINE
8
Layer 1
10
88.301930
20
151.607144
11
88.267799
21
151.036173
0
LINE
8
Layer 1
10
88.267799
20
151.036173
11
88.226789
21
150.465203
0
LINE
8
Layer 1
10
88.226789
20
150.465203
11
88.177841
21
149.894233
0
LINE
8
Layer 1
10
88.177841
20
149.894233
11
88.120956
21
149.325115
0
LINE
8
Layer 1
10
88.120956
20
149.325115
11
88.055868
21
148.756262
0
LINE
8
Layer 1
10
88.055868
20
148.756262
11
87.982843
21
148.188202
0
LINE
8
Layer 1
10
87.982843
20
148.188202
11
87.901881
21
147.621201
0
LINE
8
Layer 1
10
87.901881
20
147.621201
11
87.812981
21
147.056316
0
LINE
8
Layer 1
10
87.812981
20
147.056316
11
87.715879
21
146.491167
0
LINE
8
Layer 1
10
87.715879
20
146.491167
11
87.611898
21
145.928134
0
LINE
8
Layer 1
10
87.611898
20
145.928134
11
87.498921
21
145.367218
0
LINE
8
Layer 1
10
87.498921
20
145.367218
11
87.378800
21
144.807096
0
LINE
8
Layer 1
10
87.378800
20
144.807096
11
87.251007
21
144.249090
0
LINE
8
Layer 1
10
87.251007
20
144.249090
11
87.115011
21
143.693201
0
LINE
8
Layer 1
10
87.115011
20
143.693201
11
86.971872
21
143.139165
0
LINE
8
Layer 1
10
86.971872
20
143.139165
11
86.820001
21
142.587245
0
LINE
8
Layer 1
10
86.820001
20
142.587245
11
86.660987
21
142.037176
0
LINE
8
Layer 1
10
86.660987
20
142.037176
11
86.494829
21
141.489225
0
LINE
8
Layer 1
10
86.494829
20
141.489225
11
86.319939
21
140.943126
0
LINE
8
Layer 1
10
86.319939
20
140.943126
11
86.137906
21
140.401260
0
LINE
8
Layer 1
10
86.137906
20
140.401260
11
85.948994
21
139.860188
0
LINE
8
Layer 1
10
85.948994
20
139.860188
11
85.751879
21
139.323084
0
LINE
8
Layer 1
10
85.751879
20
139.323084
11
85.546828
21
138.788097
0
LINE
8
Layer 1
10
85.546828
20
138.788097
11
85.334897
21
138.256285
0
LINE
8
Layer 1
10
85.334897
20
138.256285
11
85.115822
21
137.727119
0
LINE
8
Layer 1
10
85.115822
20
137.727119
11
84.888810
21
137.201128
0
LINE
8
Layer 1
10
84.888810
20
137.201128
11
84.654918
21
136.679106
0
LINE
8
Layer 1
10
84.654918
20
136.679106
11
84.413883
21
136.160259
0
LINE
8
Layer 1
10
84.413883
20
136.160259
11
84.165969
21
135.644322
0
LINE
8
Layer 1
10
84.165969
20
135.644322
11
83.909853
21
135.132089
0
LINE
8
Layer 1
10
83.909853
20
135.132089
11
83.646857
21
134.623296
0
LINE
8
Layer 1
10
83.646857
20
134.623296
11
83.376982
21
134.118207
0
LINE
8
Layer 1
10
83.376982
20
134.118207
11
83.099964
21
133.617087
0
LINE
8
Layer 1
10
83.099964
20
133.617087
11
82.815802
21
133.120200
0
LINE
8
Layer 1
10
82.815802
20
133.120200
11
82.525819
21
132.627282
0
LINE
8
Layer 1
10
82.525819
20
132.627282
11
82.227898
21
132.138333
0
LINE
8
Layer 1
10
82.227898
20
132.138333
11
81.922834
21
131.653087
0
LINE
8
Layer 1
10
81.922834
20
131.653087
11
81.611949
21
131.172340
0
LINE
8
Layer 1
10
81.611949
20
131.172340
11
81.293920
21
130.696091
0
LINE
8
Layer 1
10
81.293920
20
130.696091
11
80.969806
21
130.224339
0
LINE
8
Layer 1
10
80.969806
20
130.224339
11
80.638813
21
129.757086
0
LINE
8
Layer 1
10
80.638813
20
129.757086
11
80.300941
21
129.295124
0
LINE
8
Layer 1
10
80.300941
20
129.295124
11
79.956983
21
128.837131
0
LINE
8
Layer 1
10
79.956983
20
128.837131
11
79.606939
21
128.384165
0
LINE
8
Layer 1
10
79.606939
20
128.384165
11
79.250017
21
127.936225
0
LINE
8
Layer 1
10
79.250017
20
127.936225
11
78.887803
21
127.493314
0
LINE
8
Layer 1
10
78.887803
20
127.493314
11
78.518974
21
127.056222
0
LINE
8
Layer 1
10
78.518974
20
127.056222
11
78.143795
21
126.623100
0
LINE
8
Layer 1
10
78.143795
20
126.623100
11
77.762796
21
126.196328
0
LINE
8
Layer 1
10
77.762796
20
126.196328
11
77.375975
21
125.774318
0
LINE
8
Layer 1
10
77.375975
20
125.774318
11
76.982805
21
125.357335
0
LINE
8
Layer 1
10
76.982805
20
125.357335
11
76.583814
21
124.946173
0
LINE
8
Layer 1
10
76.583814
20
124.946173
11
76.179796
21
124.541096
0
LINE
8
Layer 1
10
76.179796
20
124.541096
11
75.769957
21
124.141312
0
LINE
8
Layer 1
10
75.769957
20
124.141312
11
75.354032
21
123.747347
0
LINE
8
Layer 1
10
75.354032
20
123.747347
11
74.932816
21
123.359204
0
LINE
8
Layer 1
10
74.932816
20
123.359204
11
74.506837
21
122.977146
0
LINE
8
Layer 1
10
74.506837
20
122.977146
11
74.075832
21
122.601174
0
LINE
8
Layer 1
10
74.075832
20
122.601174
11
73.639005
21
122.231287
0
LINE
8
Layer 1
10
73.639005
20
122.231287
11
73.196887
21
121.867221
0
LINE
8
Layer 1
10
73.196887
20
121.867221
11
72.750006
21
121.509240
0
LINE
8
Layer 1
10
72.750006
20
121.509240
11
72.297834
21
121.157344
0
LINE
8
Layer 1
10
72.297834
20
121.157344
11
71.840899
21
120.812328
0
LINE
8
Layer 1
10
71.840899
20
120.812328
11
71.378937
21
120.474191
0
LINE
8
Layer 1
10
71.378937
20
120.474191
11
70.913006
21
120.141346
0
LINE
8
Layer 1
10
70.913006
20
120.141346
11
70.441784
21
119.816173
0
LINE
8
Layer 1
10
70.441784
20
119.816173
11
69.966858
21
119.496292
0
LINE
8
Layer 1
10
69.966858
20
119.496292
11
69.486904
21
119.184349
0
LINE
8
Layer 1
10
69.486904
20
119.184349
11
69.002982
21
118.878226
0
LINE
8
Layer 1
10
69.002982
20
118.878226
11
68.514826
21
118.579248
0
LINE
8
Layer 1
10
68.514826
20
118.579248
11
68.021908
21
118.287148
0
LINE
8
Layer 1
10
68.021908
20
118.287148
11
67.525815
21
118.002192
0
LINE
8
Layer 1
10
67.525815
20
118.002192
11
67.026018
21
117.724115
0
LINE
8
Layer 1
10
67.026018
20
117.724115
11
66.520929
21
117.453182
0
LINE
8
Layer 1
10
66.520929
20
117.453182
11
66.012929
21
117.189129
0
LINE
8
Layer 1
10
66.012929
20
117.189129
11
65.502020
21
116.932219
0
LINE
8
Layer 1
10
65.502020
20
116.932219
11
64.986876
21
116.682188
0
LINE
8
Layer 1
10
64.986876
20
116.682188
11
64.468029
21
116.439300
0
LINE
8
Layer 1
10
64.468029
20
116.439300
11
63.946007
21
116.204351
0
LINE
8
Layer 1
10
63.946007
20
116.204351
11
63.420810
21
115.976280
0
LINE
8
Layer 1
10
63.420810
20
115.976280
11
62.892967
21
115.755353
0
LINE
8
Layer 1
10
62.892967
20
115.755353
11
62.360890
21
115.542099
0
LINE
8
Layer 1
10
62.360890
20
115.542099
11
61.826962
21
115.336254
0
LINE
8
Layer 1
10
61.826962
20
115.336254
11
61.289858
21
115.137287
0
LINE
8
Layer 1
10
61.289858
20
115.137287
11
60.749844
21
114.946259
0
LINE
8
Layer 1
10
60.749844
20
114.946259
11
60.207978
21
114.763167
0
LINE
8
Layer 1
10
60.207978
20
114.763167
11
59.662937
21
114.587219
0
LINE
8
Layer 1
10
59.662937
20
114.587219
11
59.116044
21
114.419209
0
LINE
8
Layer 1
10
59.116044
20
114.419209
11
58.565976
21
114.259136
0
LINE
8
Layer 1
10
58.565976
20
114.259136
11
58.014056
21
114.106208
0
LINE
8
Layer 1
10
58.014056
20
114.106208
11
57.460813
21
113.961216
0
LINE
8
Layer 1
10
57.460813
20
113.961216
11
56.904924
21
113.824162
0
LINE
8
Layer 1
10
56.904924
20
113.824162
11
56.346919
21
113.694252
0
LINE
8
Layer 1
10
56.346919
20
113.694252
11
55.787855
21
113.572279
0
LINE
8
Layer 1
10
55.787855
20
113.572279
11
55.226939
21
113.459302
0
LINE
8
Layer 1
10
55.226939
20
113.459302
11
54.663906
21
113.353204
0
LINE
8
Layer 1
10
54.663906
20
113.353204
11
54.099815
21
113.254250
0
LINE
8
Layer 1
10
54.099815
20
113.254250
11
53.533872
21
113.164292
0
LINE
8
Layer 1
10
53.533872
20
113.164292
11
52.967929
21
113.082271
0
LINE
8
Layer 1
10
52.967929
20
113.082271
11
52.399869
21
113.007130
0
LINE
8
Layer 1
10
52.399869
20
113.007130
11
51.831810
21
112.941249
0
LINE
8
Layer 1
10
51.831810
20
112.941249
11
51.261898
21
112.882247
0
LINE
8
Layer 1
10
52.944122
20
94.192302
11
49.092883
21
93.648386
0
LINE
8
Layer 1
10
49.092883
20
93.648386
11
45.387446
21
92.736522
0
LINE
8
Layer 1
10
45.387446
20
92.736522
11
41.845116
21
91.477439
0
LINE
8
Layer 1
10
41.845116
20
91.477439
11
38.483198
21
89.891867
0
LINE
8
Layer 1
10
38.483198
20
89.891867
11
35.318998
21
88.000538
0
LINE
8
Layer 1
10
35.318998
20
88.000538
11
32.369822
21
85.824181
0
LINE
8
Layer 1
10
32.369822
20
85.824181
11
29.652973
21
83.383528
0
LINE
8
Layer 1
10
29.652973
20
83.383528
11
27.185759
21
80.699308
0
LINE
8
Layer 1
10
27.185759
20
80.699308
11
24.985484
21
77.792253
0
LINE
8
Layer 1
10
24.985484
20
77.792253
11
23.069454
21
74.683092
0
LINE
8
Layer 1
10
23.069454
20
74.683092
11
21.454975
21
71.392556
0
LINE
8
Layer 1
10
21.454975
20
71.392556
11
20.159351
21
67.941376
0
LINE
8
Layer 1
10
20.159351
20
67.941376
11
19.199887
21
64.350281
0
LINE
8
Layer 1
10
19.199887
20
64.350281
11
18.593891
21
60.640004
0
LINE
8
Layer 1
10
18.593891
20
60.640004
11
18.358666
21
56.831273
0
LINE
8
Layer 1
10
18.358666
20
56.831273
11
18.511518
21
52.944819
0
LINE
8
Layer 1
10
18.511518
20
52.944819
11
19.055068
21
49.093529
0
LINE
8
Layer 1
10
19.055068
20
49.093529
11
19.966581
21
45.388005
0
LINE
8
Layer 1
10
19.966581
20
45.388005
11
21.225329
21
41.845556
0
LINE
8
Layer 1
10
21.225329
20
41.845556
11
22.810581
21
38.483488
0
LINE
8
Layer 1
10
22.810581
20
38.483488
11
24.701611
21
35.319108
0
LINE
8
Layer 1
10
24.701611
20
35.319108
11
26.877688
21
32.369725
0
LINE
8
Layer 1
10
26.877688
20
32.369725
11
29.318083
21
29.652646
0
LINE
8
Layer 1
10
29.318083
20
29.652646
11
32.002069
21
27.185177
0
LINE
8
Layer 1
10
32.002069
20
27.185177
11
34.908916
21
24.984627
0
LINE
8
Layer 1
10
34.908916
20
24.984627
11
38.017895
21
23.068302
0
LINE
8
Layer 1
10
38.017895
20
23.068302
11
41.308278
21
21.453510
0
LINE
8
Layer 1
10
41.308278
20
21.453510
11
44.759336
21
20.157559
0
LINE
8
Layer 1
10
44.759336
20
20.157559
11
48.350339
21
19.197755
0
LINE
8
Layer 1
10
48.350339
20
19.197755
11
52.060559
21
18.591407
0
LINE
8
Layer 1
10
52.060559
20
18.591407
11
55.869268
21
18.355821
0
LINE
8
Layer 1
10
55.869268
20
18.355821
11
59.755736
21
18.508305
0
LINE
8
Layer 1
10
59.755736
20
18.508305
11
63.606975
21
19.052220
0
LINE
8
Layer 1
10
63.606975
20
19.052220
11
67.312412
21
19.964085
0
LINE
8
Layer 1
10
67.312412
20
19.964085
11
70.854742
21
21.223168
0
LINE
8
Layer 1
10
70.854742
20
21.223168
11
74.216660
21
22.808739
0
LINE
8
Layer 1
10
74.216660
20
22.808739
11
77.380860
21
24.700069
0
LINE
8
Layer 1
10
77.380860
20
24.700069
11
80.330037
21
26.876425
0
LINE
8
Layer 1
10
80.330037
20
26.876425
11
83.046885
21
29.317078
0
LINE
8
Layer 1
10
83.046885
20
29.317078
11
85.514099
21
32.001298
0
LINE
8
Layer 1
10
85.514099
20
32.001298
11
87.714374
21
34.908354
0
LINE
8
Layer 1
10
87.714374
20
34.908354
11
89.630404
21
38.017514
0
LINE
8
Layer 1
10
89.630404
20
38.017514
11
91.244883
21
41.308050
0
LINE
8
Layer 1
10
91.244883
20
41.308050
11
92.540508
21
44.759231
0
LINE
8
Layer 1
10
92.540508
20
44.759231
11
93.499971
21
48.350325
0
LINE
8
Layer 1
10
93.499971
20
48.350325
11
94.105968
21
52.060603
0
LINE
8
Layer 1
10
94.105968
20
52.060603
11
94.341193
21
55.869334
0
LINE
8
Layer 1
10
94.341193
20
55.869334
11
94.188340
21
59.755787
0
LINE
8
Layer 1
10
94.188340
20
59.755787
11
93.644790
21
63.607078
0
LINE
8
Layer 1
10
93.644790
20
63.607078
11
92.733277
21
67.312601
0
LINE
8
Layer 1
10
92.733277
20
67.312601
11
91.474529
21
70.855051
0
LINE
8
Layer 1
10
91.474529
20
70.855051
11
89.889277
21
74.217119
0
LINE
8
Layer 1
10
89.889277
20
74.217119
11
87.998247
21
77.381498
0
LINE
8
Layer 1
10
87.998247
20
77.381498
11
85.822170
21
80.330881
0
LINE
8
Layer 1
10
85.822170
20
80.330881
11
83.381775
21
83.047961
0
LINE
8
Layer 1
10
83.381775
20
83.047961
11
80.697789
21
85.515429
0
LINE
8
Layer 1
10
80.697789
20
85.515429
11
77.790942
21
87.715980
0
LINE
8
Layer 1
10
77.790942
20
87.715980
11
74.681963
21
89.632304
0
LINE
8
Layer 1
10
74.681963
20
89.632304
11
71.391580
21
91.247096
0
LINE
8
Layer 1
10
71.391580
20
91.247096
11
67.940522
21
92.543047
0
LINE
8
Layer 1
10
67.940522
20
92.543047
11
64.349519
21
93.502851
0
LINE
8
Layer 1
10
64.349519
20
93.502851
11
60.639299
21
94.109199
0
LINE
8
Layer 1
10
60.639299
20
94.109199
11
56.830590
21
94.344786
0
LINE
8
Layer 1
10
56.830590
20
94.344786
11
52.944122
21
94.192302
0
LINE
8
Layer 1
10
51.746879
20
106.143318
11
52.374999
21
106.197292
0
LINE
8
Layer 1
10
52.374999
20
106.197292
11
53.003912
21
106.243330
0
LINE
8
Layer 1
10
53.003912
20
106.243330
11
53.633885
21
106.281165
0
LINE
8
Layer 1
10
53.633885
20
106.281165
11
54.263857
21
106.311328
0
LINE
8
Layer 1
10
54.263857
20
106.311328
11
54.894887
21
106.334346
0
LINE
8
Layer 1
10
54.894887
20
106.334346
11
55.525918
21
106.348369
0
LINE
8
Layer 1
10
55.525918
20
106.348369
11
56.155890
21
106.355249
0
LINE
8
Layer 1
10
56.155890
20
106.355249
11
56.786920
21
106.353132
0
LINE
8
Layer 1
10
56.786920
20
106.353132
11
57.417951
21
106.344136
0
LINE
8
Layer 1
10
57.417951
20
106.344136
11
58.048981
21
106.326144
0
LINE
8
Layer 1
10
58.048981
20
106.326144
11
58.678953
21
106.301274
0
LINE
8
Layer 1
10
58.678953
20
106.301274
11
59.308925
21
106.267142
0
LINE
8
Layer 1
10
59.308925
20
106.267142
11
59.938897
21
106.226132
0
LINE
8
Layer 1
10
59.938897
20
106.226132
11
60.567811
21
106.177184
0
LINE
8
Layer 1
10
60.567811
20
106.177184
11
61.195931
21
106.120299
0
LINE
8
Layer 1
10
61.195931
20
106.120299
11
61.824051
21
106.055211
0
LINE
8
Layer 1
10
61.824051
20
106.055211
11
62.449790
21
105.982186
0
LINE
8
Layer 1
10
62.449790
20
105.982186
11
63.075793
21
105.901224
0
LINE
8
Layer 1
10
63.075793
20
105.901224
11
63.701003
21
105.812324
0
LINE
8
Layer 1
10
63.701003
20
105.812324
11
64.323831
21
105.715222
0
LINE
8
Layer 1
10
64.323831
20
105.715222
11
64.945866
21
105.611241
0
LINE
8
Layer 1
10
64.945866
20
105.611241
11
65.566842
21
105.498264
0
LINE
8
Layer 1
10
65.566842
20
105.498264
11
66.185967
21
105.378143
0
LINE
8
Layer 1
10
66.185967
20
105.378143
11
66.804033
21
105.250350
0
LINE
8
Layer 1
10
66.804033
20
105.250350
11
67.419982
21
105.114354
0
LINE
8
Layer 1
10
67.419982
20
105.114354
11
68.034873
21
104.971215
0
LINE
8
Layer 1
10
68.034873
20
104.971215
11
68.646853
21
104.819344
0
LINE
8
Layer 1
10
68.646853
20
104.819344
11
69.258040
21
104.660330
0
LINE
8
Layer 1
10
69.258040
20
104.660330
11
69.865787
21
104.494172
0
LINE
8
Layer 1
10
69.865787
20
104.494172
11
70.471947
21
104.319282
0
LINE
8
Layer 1
10
70.471947
20
104.319282
11
71.076783
21
104.137249
0
LINE
8
Layer 1
10
71.076783
20
104.137249
11
71.677916
21
103.948337
0
LINE
8
Layer 1
10
71.677916
20
103.948337
11
72.277990
21
103.751223
0
LINE
8
Layer 1
10
72.277990
20
103.751223
11
72.873831
21
103.546171
0
LINE
8
Layer 1
10
72.873831
20
103.546171
11
73.467820
21
103.334240
0
LINE
8
Layer 1
10
73.467820
20
103.334240
11
74.059957
21
103.114371
0
LINE
8
Layer 1
10
74.059957
20
103.114371
11
74.647860
21
102.887359
0
LINE
8
Layer 1
10
74.647860
20
102.887359
11
75.233911
21
102.652145
0
LINE
8
Layer 1
10
75.233911
20
102.652145
11
75.816788
21
102.410316
0
LINE
8
Layer 1
10
75.816788
20
102.410316
11
76.395960
21
102.161343
0
LINE
8
Layer 1
10
76.395960
20
102.161343
11
76.973016
21
101.904169
0
LINE
8
Layer 1
10
76.973016
20
101.904169
11
77.545838
21
101.641173
0
LINE
8
Layer 1
10
77.545838
20
101.641173
11
78.116014
21
101.370240
0
LINE
8
Layer 1
10
78.116014
20
101.370240
11
78.681957
21
101.091370
0
LINE
8
Layer 1
10
78.681957
20
101.091370
11
79.244990
21
100.806149
0
LINE
8
Layer 1
10
79.244990
20
100.806149
11
79.803789
21
100.514314
0
LINE
8
Layer 1
10
79.803789
20
100.514314
11
80.358884
21
100.214277
0
LINE
8
Layer 1
10
80.358884
20
100.214277
11
80.910011
21
99.908155
0
LINE
8
Layer 1
10
80.910011
20
99.908155
11
81.457962
21
99.595153
0
LINE
8
Layer 1
10
81.457962
20
99.595153
11
82.001945
21
99.274214
0
LINE
8
Layer 1
10
82.001945
20
99.274214
11
82.540900
21
98.947189
0
LINE
8
Layer 1
10
82.540900
20
98.947189
11
83.075887
21
98.613285
0
LINE
8
Layer 1
10
83.075887
20
98.613285
11
83.607963
21
98.273296
0
LINE
8
Layer 1
10
83.607963
20
98.273296
11
84.133954
21
97.926163
0
LINE
8
Layer 1
10
84.133954
20
97.926163
11
84.656770
21
97.572151
0
LINE
8
Layer 1
10
84.656770
20
97.572151
11
85.173766
21
97.211260
0
LINE
8
Layer 1
10
85.173766
20
97.211260
11
85.687850
21
96.844283
0
LINE
8
Layer 1
10
85.687850
20
96.844283
11
86.195850
21
96.471221
0
LINE
8
Layer 1
10
86.195850
20
96.471221
11
86.699880
21
96.091280
0
LINE
8
Layer 1
10
86.699880
20
96.091280
11
87.198884
21
95.705254
0
LINE
8
Layer 1
10
87.198884
20
95.705254
11
87.692860
21
95.313142
0
LINE
8
Layer 1
10
87.692860
20
95.313142
11
88.181810
21
94.914150
0
LINE
8
Layer 1
10
88.181810
20
94.914150
11
88.665997
21
94.510132
0
LINE
8
Layer 1
10
88.665997
20
94.510132
11
89.144892
21
94.099235
0
LINE
8
Layer 1
10
89.144892
20
94.099235
11
89.618760
21
93.682252
0
LINE
8
Layer 1
10
89.618760
20
93.682252
11
90.086807
21
93.259184
0
LINE
8
Layer 1
10
90.086807
20
93.259184
11
90.549828
21
92.831353
0
LINE
8
Layer 1
10
90.549828
20
92.831353
11
91.007821
21
92.396379
0
LINE
8
Layer 1
10
91.007821
20
92.396379
11
91.459993
21
91.956377
0
LINE
8
Layer 1
10
91.459993
20
91.956377
11
91.905815
21
91.511348
0
LINE
8
Layer 1
10
91.905815
20
91.511348
11
92.346875
21
91.059176
0
LINE
8
Layer 1
10
92.346875
20
91.059176
11
92.781850
21
90.602241
0
LINE
8
Layer 1
10
92.781850
20
90.602241
11
93.211003
21
90.140279
0
LINE
8
Layer 1
10
93.211003
20
90.140279
11
93.634865
21
89.672232
0
LINE
8
Layer 1
10
93.634865
20
89.672232
11
94.051848
21
89.199158
0
LINE
8
Layer 1
10
94.051848
20
89.199158
11
94.463010
21
88.721321
0
LINE
8
Layer 1
10
94.463010
20
88.721321
11
94.868880
21
88.237134
0
LINE
8
Layer 1
10
94.868880
20
88.237134
11
95.267872
21
87.749243
0
LINE
8
Layer 1
10
95.267872
20
87.749243
11
95.660777
21
87.255266
0
LINE
8
Layer 1
10
95.660777
20
87.255266
11
96.047862
21
86.757321
0
LINE
8
Layer 1
10
96.047862
20
86.757321
11
96.427804
21
86.254349
0
LINE
8
Layer 1
10
96.427804
20
86.254349
11
96.801924
21
85.746349
0
LINE
8
Layer 1
10
96.801924
20
85.746349
11
97.169959
21
85.233323
0
LINE
8
Layer 1
10
97.169959
20
85.233323
11
97.530850
21
84.716328
0
LINE
8
Layer 1
10
97.530850
20
84.716328
11
97.885920
21
84.194306
0
LINE
8
Layer 1
10
97.885920
20
84.194306
11
98.233847
21
83.668315
0
LINE
8
Layer 1
10
98.233847
20
83.668315
11
98.574895
21
83.137297
0
LINE
8
Layer 1
10
98.574895
20
83.137297
11
98.909857
21
82.602310
0
LINE
8
Layer 1
10
98.909857
20
82.602310
11
99.237940
21
82.063354
0
LINE
8
Layer 1
10
99.237940
20
82.063354
11
99.558879
21
81.520165
0
LINE
8
Layer 1
10
99.558879
20
81.520165
11
99.872939
21
80.973272
0
LINE
8
Layer 1
10
99.872939
20
80.973272
11
100.179855
21
80.422146
0
LINE
8
Layer 1
10
100.179855
20
80.422146
11
100.479892
21
79.867315
0
LINE
8
Layer 1
10
100.479892
20
79.867315
11
100.772786
21
79.308251
0
LINE
8
Layer 1
10
100.772786
20
79.308251
11
101.058800
21
78.746277
0
LINE
8
Layer 1
10
101.058800
20
78.746277
11
101.337935
21
78.180334
0
LINE
8
Layer 1
10
101.337935
20
78.180334
11
101.609926
21
77.611216
0
LINE
8
Layer 1
10
101.609926
20
77.611216
11
101.874774
21
77.038394
0
LINE
8
Layer 1
10
101.874774
20
77.038394
11
102.131948
21
76.462397
0
LINE
8
Layer 1
10
102.131948
20
76.462397
11
102.381979
21
75.883224
0
LINE
8
Layer 1
10
102.381979
20
75.883224
11
102.624867
21
75.300348
0
LINE
8
Layer 1
10
102.624867
20
75.300348
11
102.859816
21
74.715355
0
LINE
8
Layer 1
10
102.859816
20
74.715355
11
103.087887
21
74.127187
0
LINE
8
Layer 1
10
103.087887
20
74.127187
11
103.308814
21
73.536373
0
LINE
8
Layer 1
10
103.308814
20
73.536373
11
103.521803
21
72.942384
0
LINE
8
Layer 1
10
103.521803
20
72.942384
11
103.727913
21
72.345221
0
LINE
8
Layer 1
10
103.727913
20
72.345221
11
103.925821
21
71.746205
0
LINE
8
Layer 1
10
103.925821
20
71.746205
11
104.115792
21
71.145337
0
LINE
8
Layer 1
10
104.115792
20
71.145337
11
104.298883
21
70.541294
0
LINE
8
Layer 1
10
104.298883
20
70.541294
11
104.473773
21
69.935399
0
LINE
8
Layer 1
10
104.473773
20
69.935399
11
104.641783
21
69.327387
0
LINE
8
Layer 1
10
104.641783
20
69.327387
11
104.801855
21
68.717258
0
LINE
8
Layer 1
10
104.801855
20
68.717258
11
104.953991
21
68.104220
0
LINE
8
Layer 1
10
104.953991
20
68.104220
11
105.097924
21
67.490387
0
LINE
8
Layer 1
10
105.097924
20
67.490387
11
105.234978
21
66.874173
0
LINE
8
Layer 1
10
105.234978
20
66.874173
11
105.363830
21
66.257166
0
LINE
8
Layer 1
10
105.363830
20
66.257166
11
105.484744
21
65.637248
0
LINE
8
Layer 1
10
105.484744
20
65.637248
11
105.597986
21
65.017330
0
LINE
8
Layer 1
10
105.597986
20
65.017330
11
105.703819
21
64.395295
0
LINE
8
Layer 1
10
105.703819
20
64.395295
11
105.800921
21
63.771408
0
LINE
8
Layer 1
10
105.800921
20
63.771408
11
105.890879
21
63.147257
0
LINE
8
Layer 1
10
105.890879
20
63.147257
11
105.972900
21
62.521254
0
LINE
8
Layer 1
10
105.972900
20
62.521254
11
106.046983
21
61.895250
0
LINE
8
Layer 1
10
106.046983
20
61.895250
11
106.112864
21
61.267395
0
LINE
8
Layer 1
10
106.112864
20
61.267395
11
106.170808
21
60.639275
0
LINE
8
Layer 1
10
106.170808
20
60.639275
11
106.220814
21
60.010361
0
LINE
8
Layer 1
10
106.220814
20
60.010361
11
106.262883
21
59.381183
0
LINE
8
Layer 1
10
106.262883
20
59.381183
11
106.296749
21
58.751211
0
LINE
8
Layer 1
10
106.296749
20
58.751211
11
106.323737
21
58.120180
0
LINE
8
Layer 1
10
106.323737
20
58.120180
11
106.341993
21
57.490208
0
LINE
8
Layer 1
10
106.341993
20
57.490208
11
106.351783
21
56.859178
0
LINE
8
Layer 1
10
106.351783
20
56.859178
11
106.354958
21
56.228412
0
LINE
8
Layer 1
10
106.354958
20
56.228412
11
106.348872
21
55.597381
0
LINE
8
Layer 1
10
106.348872
20
55.597381
11
106.335908
21
54.966351
0
LINE
8
Layer 1
10
106.335908
20
54.966351
11
106.313947
21
54.336379
0
LINE
8
Layer 1
10
106.313947
20
54.336379
11
106.284843
21
53.706407
0
LINE
8
Layer 1
10
106.284843
20
53.706407
11
106.247802
21
53.076434
0
LINE
8
Layer 1
10
106.247802
20
53.076434
11
106.201764
21
52.447256
0
LINE
8
Layer 1
10
106.201764
20
52.447256
11
106.148848
21
51.818342
0
LINE
8
Layer 1
10
106.148848
20
51.818342
11
106.087993
21
51.190222
0
LINE
8
Layer 1
10
106.087993
20
51.190222
11
106.018937
21
50.563425
0
LINE
8
Layer 1
10
106.018937
20
50.563425
11
105.941944
21
49.937422
0
LINE
8
Layer 1
10
105.941944
20
49.937422
11
105.856748
21
49.312212
0
LINE
8
Layer 1
10
105.856748
20
49.312212
11
105.763879
21
48.688325
0
LINE
8
Layer 1
10
105.763879
20
48.688325
11
105.663867
21
48.065232
0
LINE
8
Layer 1
10
105.663867
20
48.065232
11
105.554859
21
47.443198
0
LINE
8
Layer 1
10
105.554859
20
47.443198
11
105.438971
21
46.823280
0
LINE
8
Layer 1
10
105.438971
20
46.823280
11
105.314882
21
46.205214
0
LINE
8
Layer 1
10
105.314882
20
46.205214
11
105.182855
21
45.588206
0
LINE
8
Layer 1
10
105.182855
20
45.588206
11
105.042891
21
44.972257
0
LINE
8
Layer 1
10
105.042891
20
44.972257
11
104.895782
21
44.359218
0
LINE
8
Layer 1
10
104.895782
20
44.359218
11
104.740737
21
43.747238
0
LINE
8
Layer 1
10
104.740737
20
43.747238
11
104.577754
21
43.138432
0
LINE
8
Layer 1
10
104.577754
20
43.138432
11
104.406833
21
42.530421
0
LINE
8
Layer 1
10
104.406833
20
42.530421
11
104.228769
21
41.925319
0
LINE
8
Layer 1
10
104.228769
20
41.925319
11
104.042767
21
41.322335
0
LINE
8
Layer 1
10
104.042767
20
41.322335
11
103.849886
21
40.722260
0
LINE
8
Layer 1
10
103.849886
20
40.722260
11
103.648803
21
40.124303
0
LINE
8
Layer 1
10
103.648803
20
40.124303
11
103.440841
21
39.528197
0
LINE
8
Layer 1
10
103.440841
20
39.528197
11
103.224941
21
38.935267
0
LINE
8
Layer 1
10
103.224941
20
38.935267
11
103.000839
21
38.345247
0
LINE
8
Layer 1
10
103.000839
20
38.345247
11
102.769858
21
37.758402
0
LINE
8
Layer 1
10
102.769858
20
37.758402
11
102.531998
21
37.174202
0
LINE
8
Layer 1
10
102.531998
20
37.174202
11
102.285936
21
36.593443
0
LINE
8
Layer 1
10
102.285936
20
36.593443
11
102.033788
21
36.015329
0
LINE
8
Layer 1
10
102.033788
20
36.015329
11
101.772909
21
35.440390
0
LINE
8
Layer 1
10
101.772909
20
35.440390
11
101.505945
21
34.869420
0
LINE
8
Layer 1
10
101.505945
20
34.869420
11
101.230779
21
34.301360
0
LINE
8
Layer 1
10
101.230779
20
34.301360
11
100.949792
21
33.736211
0
LINE
8
Layer 1
10
100.949792
20
33.736211
11
100.660867
21
33.175295
0
LINE
8
Layer 1
10
100.660867
20
33.175295
11
100.364799
21
32.618348
0
LINE
8
Layer 1
10
100.364799
20
32.618348
11
100.061851
21
32.065105
0
LINE
8
Layer 1
10
100.061851
20
32.065105
11
99.751760
21
31.514772
0
LINE
8
Layer 1
10
99.751760
20
31.514772
11
99.434789
21
30.969731
0
LINE
8
Layer 1
10
99.434789
20
30.969731
11
99.111998
21
30.427336
0
LINE
8
Layer 1
10
99.111998
20
30.427336
11
98.781005
21
29.890232
0
LINE
8
Layer 1
10
98.781005
20
29.890232
11
98.443926
21
29.358421
0
LINE
8
Layer 1
10
98.443926
20
29.358421
11
98.099968
21
28.829255
0
LINE
8
Layer 1
10
98.099968
20
28.829255
11
97.749925
21
28.305380
0
LINE
8
Layer 1
10
97.749925
20
28.305380
11
97.391944
21
27.784152
0
LINE
8
Layer 1
10
97.391944
20
27.784152
11
97.028936
21
27.268215
0
LINE
8
Layer 1
10
97.028936
20
27.268215
11
96.658784
21
26.757570
0
LINE
8
Layer 1
10
96.658784
20
26.757570
11
96.281754
21
26.252216
0
LINE
8
Layer 1
10
96.281754
20
26.252216
11
95.898902
21
25.749508
0
LINE
8
Layer 1
10
95.898902
20
25.749508
11
95.509965
21
25.252092
0
LINE
8
Layer 1
10
95.509965
20
25.252092
11
95.113884
21
24.762614
0
LINE
8
Layer 1
10
95.113884
20
24.762614
11
94.712777
21
24.275781
0
LINE
8
Layer 1
10
94.712777
20
24.275781
11
94.304790
21
23.794240
0
LINE
8
Layer 1
10
94.304790
20
23.794240
11
93.890982
21
23.317991
0
LINE
8
Layer 1
10
93.890982
20
23.317991
11
93.471882
21
22.847033
0
LINE
8
Layer 1
10
93.471882
20
22.847033
11
93.045904
21
22.381367
0
LINE
8
Layer 1
10
93.045904
20
22.381367
11
92.613840
21
21.920992
0
LINE
8
Layer 1
10
92.613840
20
21.920992
11
92.177013
21
21.465910
0
LINE
8
Layer 1
10
92.177013
20
21.465910
11
91.733837
21
21.016119
0
LINE
8
Layer 1
10
91.733837
20
21.016119
11
91.285897
21
20.574265
0
LINE
8
Layer 1
10
91.285897
20
20.574265
11
90.830815
21
20.135057
0
LINE
8
Layer 1
10
90.830815
20
20.135057
11
90.371763
21
19.703787
0
LINE
8
Layer 1
10
90.371763
20
19.703787
11
89.906891
21
19.275162
0
LINE
8
Layer 1
10
89.906891
20
19.275162
11
89.435933
21
18.857121
0
LINE
8
Layer 1
10
89.435933
20
18.857121
11
88.961007
21
18.441726
0
LINE
8
Layer 1
10
88.961007
20
18.441726
11
88.479995
21
18.034268
0
LINE
8
Layer 1
10
88.479995
20
18.034268
11
87.993956
21
17.632102
0
LINE
8
Layer 1
10
87.993956
20
17.632102
11
87.502890
21
17.235227
0
LINE
8
Layer 1
10
87.502890
20
17.235227
11
87.006797
21
16.846290
0
LINE
8
Layer 1
10
87.006797
20
16.846290
11
86.505941
21
16.462645
0
LINE
8
Layer 1
10
86.505941
20
16.462645
11
85.999794
21
16.084291
0
LINE
8
Layer 1
10
85.999794
20
16.084291
11
85.489942
21
15.713875
0
LINE
8
Layer 1
10
85.489942
20
15.713875
11
84.974799
21
15.348751
0
LINE
8
Layer 1
10
84.974799
20
15.348751
11
84.454894
21
14.991564
0
LINE
8
Layer 1
10
84.454894
20
14.991564
11
83.931019
21
14.639668
0
LINE
8
Layer 1
10
83.931019
20
14.639668
11
83.402912
21
14.295710
0
LINE
8
Layer 1
10
83.402912
20
14.295710
11
82.869777
21
13.957044
0
LINE
8
Layer 1
10
82.869777
20
13.957044
11
82.332938
21
13.626315
0
LINE
8
Layer 1
10
82.332938
20
13.626315
11
81.791866
21
13.300878
0
LINE
8
Layer 1
10
81.791866
20
13.300878
11
81.246825
21
12.983379
0
LINE
8
Layer 1
10
81.246825
20
12.983379
11
80.697815
21
12.673817
0
LINE
8
Layer 1
10
80.697815
20
12.673817
11
80.144837
21
12.369546
0
LINE
8
Layer 1
10
80.144837
20
12.369546
11
79.587889
21
12.073213
0
LINE
8
Layer 1
10
79.587889
20
12.073213
11
79.026973
21
11.782172
0
LINE
8
Layer 1
10
79.026973
20
11.782172
11
78.462882
21
11.499068
0
LINE
8
Layer 1
10
78.462882
20
11.499068
11
77.895881
21
11.226548
0
LINE
8
Layer 1
10
77.895881
20
11.226548
11
77.324911
21
10.956673
0
LINE
8
Layer 1
10
77.324911
20
10.956673
11
76.749972
21
10.697382
0
LINE
8
Layer 1
10
76.749972
20
10.697382
11
76.172917
21
10.443382
0
LINE
8
Layer 1
10
76.172917
20
10.443382
11
75.591892
21
10.194674
0
LINE
8
Layer 1
10
75.591892
20
10.194674
11
75.007958
21
9.956549
0
LINE
8
Layer 1
10
75.007958
20
9.956549
11
74.420848
21
9.726362
0
LINE
8
Layer 1
10
74.420848
20
9.726362
11
73.831886
21
9.501466
0
LINE
8
Layer 1
10
73.831886
20
9.501466
11
73.238956
21
9.284508
0
LINE
8
Layer 1
10
73.238956
20
9.284508
11
72.643908
21
9.075488
0
LINE
8
Layer 1
10
72.643908
20
9.075488
11
72.045951
21
8.871759
0
LINE
8
Layer 1
10
72.045951
20
8.871759
11
71.445877
21
8.678613
0
LINE
8
Layer 1
10
71.445877
20
8.678613
11
70.842892
21
8.490759
0
LINE
8
Layer 1
10
70.842892
20
8.490759
11
70.237791
21
8.313489
0
LINE
8
Layer 1
10
70.237791
20
8.313489
11
69.630837
21
8.141510
0
LINE
8
Layer 1
10
69.630837
20
8.141510
11
69.022032
21
7.977468
0
LINE
8
Layer 1
10
69.022032
20
7.977468
11
68.410845
21
7.821364
0
LINE
8
Layer 1
10
68.410845
20
7.821364
11
67.797013
21
7.673198
0
LINE
8
Layer 1
10
67.797013
20
7.673198
11
67.181857
21
7.532969
0
LINE
8
Layer 1
10
67.181857
20
7.532969
11
66.565908
21
7.400677
0
LINE
8
Layer 1
10
66.565908
20
7.400677
11
65.947048
21
7.276323
0
LINE
8
Layer 1
10
65.947048
20
7.276323
11
65.326866
21
7.157261
0
LINE
8
Layer 1
10
65.326866
20
7.157261
11
64.705889
21
7.048782
0
LINE
8
Layer 1
10
64.705889
20
7.048782
11
64.082796
21
6.948240
0
LINE
8
Layer 1
10
64.082796
20
6.948240
11
63.458910
21
6.852991
0
LINE
8
Layer 1
10
63.458910
20
6.852991
11
62.833965
21
6.768324
0
LINE
8
Layer 1
10
62.833965
20
6.768324
11
62.207961
21
6.688949
0
LINE
8
Layer 1
10
62.207961
20
6.688949
11
61.580900
21
6.620158
0
LINE
8
Layer 1
10
61.580900
20
6.620158
11
60.953044
21
6.556658
0
LINE
8
Layer 1
10
60.953044
20
6.556658
11
60.324924
21
6.503741
0
LINE
8
Layer 1
10
60.324924
20
6.503741
11
59.696010
21
6.456116
0
LINE
8
Layer 1
10
59.696010
20
6.456116
11
59.066038
21
6.419074
0
LINE
8
Layer 1
10
59.066038
20
6.419074
11
58.435801
21
6.389970
0
LINE
8
Layer 1
10
58.435801
20
6.389970
11
57.805036
21
6.366158
0
LINE
8
Layer 1
10
57.805036
20
6.366158
11
57.174005
21
6.352929
0
LINE
8
Layer 1
10
57.174005
20
6.352929
11
56.544033
21
6.344991
0
LINE
8
Layer 1
10
56.544033
20
6.344991
11
55.913002
21
6.347637
0
LINE
8
Layer 1
10
55.913002
20
6.347637
11
55.281972
21
6.355574
0
LINE
8
Layer 1
10
55.281972
20
6.355574
11
54.650942
21
6.374095
0
LINE
8
Layer 1
10
54.650942
20
6.374095
11
54.020969
21
6.400554
0
LINE
8
Layer 1
10
54.020969
20
6.400554
11
53.390997
21
6.432304
0
LINE
8
Layer 1
10
53.390997
20
6.432304
11
52.761025
21
6.474637
0
LINE
8
Layer 1
10
52.761025
20
6.474637
11
52.131847
21
6.522262
0
LINE
8
Layer 1
10
52.131847
20
6.522262
11
51.503991
21
6.580470
0
LINE
8
Layer 1
10
51.503991
20
6.580470
11
50.875871
21
6.646616
0
LINE
8
Layer 1
10
50.875871
20
6.646616
11
50.249868
21
6.718053
0
LINE
8
Layer 1
10
50.249868
20
6.718053
11
49.623865
21
6.800074
0
LINE
8
Layer 1
10
49.623865
20
6.800074
11
48.998920
21
6.887386
0
LINE
8
Layer 1
10
48.998920
20
6.887386
11
48.375827
21
6.985282
0
LINE
8
Layer 1
10
48.375827
20
6.985282
11
47.754057
21
7.088469
0
LINE
8
Layer 1
10
47.754057
20
7.088469
11
47.132816
21
7.202240
0
LINE
8
Layer 1
10
47.132816
20
7.202240
11
46.513956
21
7.321302
0
LINE
8
Layer 1
10
46.513956
20
7.321302
11
45.895890
21
7.450948
0
LINE
8
Layer 1
10
45.895890
20
7.450948
11
45.279941
21
7.585885
0
LINE
8
Layer 1
10
45.279941
20
7.585885
11
44.665050
21
7.728760
0
LINE
8
Layer 1
10
44.665050
20
7.728760
11
44.053069
21
7.882218
0
LINE
8
Layer 1
10
44.053069
20
7.882218
11
43.441883
21
8.040968
0
LINE
8
Layer 1
10
43.441883
20
8.040968
11
42.833871
21
8.207655
0
LINE
8
Layer 1
10
42.833871
20
8.207655
11
42.227976
21
8.382280
0
LINE
8
Layer 1
10
42.227976
20
8.382280
11
41.622875
21
8.562197
0
LINE
8
Layer 1
10
41.622875
20
8.562197
11
41.022007
21
8.752696
0
LINE
8
Layer 1
10
41.022007
20
8.752696
11
40.421932
21
8.948488
0
LINE
8
Layer 1
10
40.421932
20
8.948488
11
39.825827
21
9.154863
0
LINE
8
Layer 1
10
39.825827
20
9.154863
11
39.231838
21
9.366529
0
LINE
8
Layer 1
10
39.231838
20
9.366529
11
38.639966
21
9.586133
0
LINE
8
Layer 1
10
38.639966
20
9.586133
11
38.052062
21
9.813674
0
LINE
8
Layer 1
10
38.052062
20
9.813674
11
37.466011
21
10.049153
0
LINE
8
Layer 1
10
37.466011
20
10.049153
11
36.882870
21
10.289924
0
LINE
8
Layer 1
10
36.882870
20
10.289924
11
36.303963
21
10.538632
0
LINE
8
Layer 1
10
36.303963
20
10.538632
11
35.726907
21
10.795277
0
LINE
8
Layer 1
10
35.726907
20
10.795277
11
35.154085
21
11.059860
0
LINE
8
Layer 1
10
35.154085
20
11.059860
11
34.583909
21
11.329735
0
LINE
8
Layer 1
10
34.583909
20
11.329735
11
34.017965
21
11.610193
0
LINE
8
Layer 1
10
34.017965
20
11.610193
11
33.454933
21
11.893297
0
LINE
8
Layer 1
10
33.454933
20
11.893297
11
32.895869
21
12.186984
0
LINE
8
Layer 1
10
32.895869
20
12.186984
11
32.341038
21
12.485963
0
LINE
8
Layer 1
10
32.341038
20
12.485963
11
31.789912
21
12.792879
0
LINE
8
Layer 1
10
31.789912
20
12.792879
11
31.241961
21
13.105087
0
LINE
8
Layer 1
10
31.241961
20
13.105087
11
30.697978
21
13.425232
0
LINE
8
Layer 1
10
30.697978
20
13.425232
11
30.159022
21
13.753315
0
LINE
8
Layer 1
10
30.159022
20
13.753315
11
29.624036
21
14.086690
0
LINE
8
Layer 1
10
29.624036
20
14.086690
11
29.091959
21
14.428002
0
LINE
8
Layer 1
10
29.091959
20
14.428002
11
28.565968
21
14.774606
0
LINE
8
Layer 1
10
28.565968
20
14.774606
11
28.042888
21
15.129147
0
LINE
8
Layer 1
10
28.042888
20
15.129147
11
27.525892
21
15.488980
0
LINE
8
Layer 1
10
27.525892
20
15.488980
11
27.012072
21
15.856750
0
LINE
8
Layer 1
10
27.012072
20
15.856750
11
26.504073
21
16.229812
0
LINE
8
Layer 1
10
26.504073
20
16.229812
11
25.999963
21
16.608166
0
LINE
8
Layer 1
10
25.999963
20
16.608166
11
25.500959
21
16.994457
0
LINE
8
Layer 1
10
25.500959
20
16.994457
11
25.006956
21
17.386040
0
LINE
8
Layer 1
10
25.006956
20
17.386040
11
24.517981
21
17.785560
0
LINE
8
Layer 1
10
24.517981
20
17.785560
11
24.033979
21
18.190372
0
LINE
8
Layer 1
10
24.033979
20
18.190372
11
23.554978
21
18.600476
0
LINE
8
Layer 1
10
23.554978
20
18.600476
11
23.080977
21
19.018517
0
LINE
8
Layer 1
10
23.080977
20
19.018517
11
22.612983
21
19.441850
0
LINE
8
Layer 1
10
22.612983
20
19.441850
11
22.149963
21
19.870474
0
LINE
8
Layer 1
10
22.149963
20
19.870474
11
21.691970
21
20.304390
0
LINE
8
Layer 1
10
21.691970
20
20.304390
11
21.239982
21
20.743598
0
LINE
8
Layer 1
10
21.239982
20
20.743598
11
20.793975
21
21.188097
0
LINE
8
Layer 1
10
20.793975
20
21.188097
11
20.352968
21
21.640534
0
LINE
8
Layer 1
10
20.352968
20
21.640534
11
19.917967
21
22.098263
0
LINE
8
Layer 1
10
19.917967
20
22.098263
11
19.488972
21
22.561283
0
LINE
8
Layer 1
10
19.488972
20
22.561283
11
19.064978
21
23.029595
0
LINE
8
Layer 1
10
19.064978
20
23.029595
11
18.647969
21
23.500553
0
LINE
8
Layer 1
10
18.647969
20
23.500553
11
18.236965
21
23.979448
0
LINE
8
Layer 1
10
18.236965
20
23.979448
11
17.830989
21
24.463635
0
LINE
8
Layer 1
10
17.830989
20
24.463635
11
17.431972
21
24.950468
0
LINE
8
Layer 1
10
17.431972
20
24.950468
11
17.038986
21
25.445238
0
LINE
8
Layer 1
10
17.038986
20
25.445238
11
16.651981
21
25.942654
0
LINE
8
Layer 1
10
16.651981
20
25.942654
11
16.271987
21
26.445362
0
LINE
8
Layer 1
10
16.271987
20
26.445362
11
15.897972
21
26.953361
0
LINE
8
Layer 1
10
15.897972
20
26.953361
11
15.529990
21
27.466652
0
LINE
8
Layer 1
10
15.529990
20
27.466652
11
15.168993
21
27.985235
0
LINE
8
Layer 1
10
15.168993
20
27.985235
11
14.813976
21
28.506463
0
LINE
8
Layer 1
10
14.813976
20
28.506463
11
14.465970
21
29.032983
0
LINE
8
Layer 1
10
14.465970
20
29.032983
11
14.124975
21
29.562149
0
LINE
8
Layer 1
10
14.124975
20
29.562149
11
13.789987
21
30.099253
0
LINE
8
Layer 1
10
13.789987
20
30.099253
11
13.461983
21
30.636356
0
LINE
8
Layer 1
10
13.461983
20
30.636356
11
13.140991
21
31.181397
0
LINE
8
Layer 1
10
13.140991
20
31.181397
11
12.826984
21
31.726438
0
LINE
8
Layer 1
10
12.826984
20
31.726438
11
12.519988
21
32.279417
0
LINE
8
Layer 1
10
12.519988
20
32.279417
11
12.219978
21
32.833454
0
LINE
8
Layer 1
10
12.219978
20
32.833454
11
11.926978
21
33.392253
0
LINE
8
Layer 1
10
11.926978
20
33.392253
11
11.640991
21
33.954227
0
LINE
8
Layer 1
10
11.640991
20
33.954227
11
11.361988
21
34.520435
0
LINE
8
Layer 1
10
11.361988
20
34.520435
11
11.089996
21
35.089288
0
LINE
8
Layer 1
10
11.089996
20
35.089288
11
10.824990
21
35.662375
0
LINE
8
Layer 1
10
10.824990
20
35.662375
11
10.567974
21
36.238372
0
LINE
8
Layer 1
10
10.567974
20
36.238372
11
10.317996
21
36.817280
0
LINE
8
Layer 1
10
10.317996
20
36.817280
11
10.074977
21
37.400421
0
LINE
8
Layer 1
10
10.074977
20
37.400421
11
9.840001
21
37.985414
0
LINE
8
Layer 1
10
9.840001
20
37.985414
11
9.611983
21
38.573317
0
LINE
8
Layer 1
10
9.611983
20
38.573317
11
9.390977
21
39.164396
0
LINE
8
Layer 1
10
9.390977
20
39.164396
11
9.177987
21
39.758385
0
LINE
8
Layer 1
10
9.177987
20
39.758385
11
8.971983
21
40.355284
0
LINE
8
Layer 1
10
8.971983
20
40.355284
11
8.773996
21
40.954300
0
LINE
8
Layer 1
10
8.773996
20
40.954300
11
8.583999
21
41.555432
0
LINE
8
Layer 1
10
8.583999
20
41.555432
11
8.400986
21
42.159211
0
LINE
8
Layer 1
10
8.400986
20
42.159211
11
8.225991
21
42.765370
0
LINE
8
Layer 1
10
8.225991
20
42.765370
11
8.057981
21
43.373382
0
LINE
8
Layer 1
10
8.057981
20
43.373382
11
7.897988
21
43.983246
0
LINE
8
Layer 1
10
7.897988
20
43.983246
11
7.745985
21
44.596285
0
LINE
8
Layer 1
10
7.745985
20
44.596285
11
7.601999
21
45.210382
0
LINE
8
Layer 1
10
7.601999
20
45.210382
11
7.464998
21
45.826331
0
LINE
8
Layer 1
10
7.464998
20
45.826331
11
7.335987
21
46.443339
0
LINE
8
Layer 1
10
7.335987
20
46.443339
11
7.214993
21
47.063257
0
LINE
8
Layer 1
10
7.214993
20
47.063257
11
7.101990
21
47.683439
0
LINE
8
Layer 1
10
7.101990
20
47.683439
11
6.995998
21
48.305209
0
LINE
8
Layer 1
10
6.995998
20
48.305209
11
6.899002
21
48.929360
0
LINE
8
Layer 1
10
6.899002
20
48.929360
11
6.808991
21
49.553247
0
LINE
8
Layer 1
10
6.808991
20
49.553247
11
6.726996
21
50.179251
0
LINE
8
Layer 1
10
6.726996
20
50.179251
11
6.652992
21
50.805254
0
LINE
8
Layer 1
10
6.652992
20
50.805254
11
6.586979
21
51.433374
0
LINE
8
Layer 1
10
6.586979
20
51.433374
11
6.528982
21
52.061229
0
LINE
8
Layer 1
10
6.528982
20
52.061229
11
6.479003
21
52.690408
0
LINE
8
Layer 1
10
6.479003
20
52.690408
11
6.436987
21
53.319322
0
LINE
8
Layer 1
10
6.436987
20
53.319322
11
6.402988
21
53.949294
0
LINE
8
Layer 1
10
6.402988
20
53.949294
11
6.376001
21
54.580324
0
LINE
8
Layer 1
10
6.376001
20
54.580324
11
6.357982
21
55.210296
0
LINE
8
Layer 1
10
6.357982
20
55.210296
11
6.347981
21
55.841327
0
LINE
8
Layer 1
10
6.347981
20
55.841327
11
6.344991
21
56.472357
0
LINE
8
Layer 1
10
6.344991
20
56.472357
11
6.350997
21
57.103388
0
LINE
8
Layer 1
10
6.350997
20
57.103388
11
6.363988
21
57.734418
0
LINE
8
Layer 1
10
6.363988
20
57.734418
11
6.386002
21
58.364390
0
LINE
8
Layer 1
10
6.386002
20
58.364390
11
6.415000
21
58.994362
0
LINE
8
Layer 1
10
6.415000
20
58.994362
11
6.451989
21
59.624334
0
LINE
8
Layer 1
10
6.451989
20
59.624334
11
6.498000
21
60.253248
0
LINE
8
Layer 1
10
6.498000
20
60.253248
11
6.550996
21
60.882427
0
LINE
8
Layer 1
10
6.550996
20
60.882427
11
6.611982
21
61.510282
0
LINE
8
Layer 1
10
6.611982
20
61.510282
11
6.680985
21
62.137344
0
LINE
8
Layer 1
10
6.680985
20
62.137344
11
6.757979
21
62.763347
0
LINE
8
Layer 1
10
6.757979
20
62.763347
11
6.842990
21
63.388292
0
LINE
8
Layer 1
10
6.842990
20
63.388292
11
6.935990
21
64.012179
0
LINE
8
Layer 1
10
6.935990
20
64.012179
11
7.036003
21
64.635272
0
LINE
8
Layer 1
10
7.036003
20
64.635272
11
7.144985
21
65.257307
0
LINE
8
Layer 1
10
7.144985
20
65.257307
11
7.260978
21
65.877225
0
LINE
8
Layer 1
10
7.260978
20
65.877225
11
7.384988
21
66.495290
0
LINE
8
Layer 1
10
7.384988
20
66.495290
11
7.516988
21
67.112298
0
LINE
8
Layer 1
10
7.516988
20
67.112298
11
7.656979
21
67.728247
0
LINE
8
Layer 1
10
7.656979
20
67.728247
11
7.803981
21
68.341286
0
LINE
8
Layer 1
10
7.803981
20
68.341286
11
7.959001
21
68.953266
0
LINE
8
Layer 1
10
7.959001
20
68.953266
11
8.121984
21
69.562337
0
LINE
8
Layer 1
10
8.121984
20
69.562337
11
8.292984
21
70.170348
0
LINE
8
Layer 1
10
8.292984
20
70.170348
11
8.470995
21
70.775185
0
LINE
8
Layer 1
10
8.470995
20
70.775185
11
8.656997
21
71.378170
0
LINE
8
Layer 1
10
8.656997
20
71.378170
11
8.849984
21
71.978244
0
LINE
8
Layer 1
10
8.849984
20
71.978244
11
9.050988
21
72.576201
0
LINE
8
Layer 1
10
9.050988
20
72.576201
11
9.258976
21
73.172307
0
LINE
8
Layer 1
10
9.258976
20
73.172307
11
9.474982
21
73.765237
0
LINE
8
Layer 1
10
9.474982
20
73.765237
11
9.698978
21
74.355258
0
LINE
8
Layer 1
10
9.698978
20
74.355258
11
9.929985
21
74.942367
0
LINE
8
Layer 1
10
9.929985
20
74.942367
11
10.167978
21
75.526302
0
LINE
8
Layer 1
10
10.167978
20
75.526302
11
10.413987
21
76.107326
0
LINE
8
Layer 1
10
10.413987
20
76.107326
11
10.665976
21
76.685175
0
LINE
8
Layer 1
10
10.665976
20
76.685175
11
10.926987
21
77.260379
0
LINE
8
Layer 1
10
10.926987
20
77.260379
11
11.193978
21
77.831349
0
LINE
8
Layer 1
10
11.193978
20
77.831349
11
11.468985
21
78.399144
0
LINE
8
Layer 1
10
11.468985
20
78.399144
11
11.749972
21
78.964293
0
LINE
8
Layer 1
10
11.749972
20
78.964293
11
12.038976
21
79.525209
0
LINE
8
Layer 1
10
12.038976
20
79.525209
11
12.334992
21
80.082157
0
LINE
8
Layer 1
10
12.334992
20
80.082157
11
12.637992
21
80.635400
0
LINE
8
Layer 1
10
12.637992
20
80.635400
11
12.947978
21
81.185203
0
LINE
8
Layer 1
10
12.947978
20
81.185203
11
13.264975
21
81.730244
0
LINE
8
Layer 1
10
13.264975
20
81.730244
11
13.587977
21
82.272375
0
LINE
8
Layer 1
10
13.587977
20
82.272375
11
13.918971
21
82.809214
0
LINE
8
Layer 1
10
13.918971
20
82.809214
11
14.255970
21
83.343142
0
LINE
8
Layer 1
10
14.255970
20
83.343142
11
14.599981
21
83.871250
0
LINE
8
Layer 1
10
14.599981
20
83.871250
11
14.949971
21
84.396182
0
LINE
8
Layer 1
10
14.949971
20
84.396182
11
15.307979
21
84.916353
0
LINE
8
Layer 1
10
15.307979
20
84.916353
11
15.670987
21
85.432289
0
LINE
8
Layer 1
10
15.670987
20
85.432289
11
16.040979
21
85.943199
0
LINE
8
Layer 1
10
16.040979
20
85.943199
11
16.417984
21
86.449347
0
LINE
8
Layer 1
10
16.417984
20
86.449347
11
16.800968
21
86.950202
0
LINE
8
Layer 1
10
16.800968
20
86.950202
11
17.189984
21
87.447354
0
LINE
8
Layer 1
10
17.189984
20
87.447354
11
17.585985
21
87.938155
0
LINE
8
Layer 1
10
17.585985
20
87.938155
11
17.986987
21
88.425252
0
LINE
8
Layer 1
10
17.986987
20
88.425252
11
18.394974
21
88.906264
0
LINE
8
Layer 1
10
18.394974
20
88.906264
11
18.808967
21
89.383307
0
LINE
8
Layer 1
10
18.808967
20
89.383307
11
19.227987
21
89.854265
0
LINE
8
Layer 1
10
19.227987
20
89.854265
11
19.653966
21
90.319137
0
LINE
8
Layer 1
10
19.653966
20
90.319137
11
20.085977
21
90.780306
0
LINE
8
Layer 1
10
20.085977
20
90.780306
11
20.522962
21
91.234330
0
LINE
8
Layer 1
10
20.522962
20
91.234330
11
20.965980
21
91.684386
0
LINE
8
Layer 1
10
20.965980
20
91.684386
11
21.413972
21
92.127298
0
LINE
8
Layer 1
10
21.413972
20
92.127298
11
21.868976
21
92.565183
0
LINE
8
Layer 1
10
21.868976
20
92.565183
11
22.327974
21
92.997247
0
LINE
8
Layer 1
10
22.327974
20
92.997247
11
22.792979
21
93.424284
0
LINE
8
Layer 1
10
22.792979
20
93.424284
11
23.263963
21
93.844177
0
LINE
8
Layer 1
10
23.263963
20
93.844177
11
23.738969
21
94.258249
0
LINE
8
Layer 1
10
23.738969
20
94.258249
11
24.219981
21
94.667294
0
LINE
8
Layer 1
10
24.219981
20
94.667294
11
24.705967
21
95.069196
0
LINE
8
Layer 1
10
24.705967
20
95.069196
11
25.196980
21
95.465277
0
LINE
8
Layer 1
10
25.196980
20
95.465277
11
25.692967
21
95.855272
0
LINE
8
Layer 1
10
25.692967
20
95.855272
11
26.193955
21
96.239182
0
LINE
8
Layer 1
10
26.193955
20
96.239182
11
26.699864
21
96.616213
0
LINE
8
Layer 1
10
26.699864
20
96.616213
11
27.209980
21
96.987158
0
LINE
8
Layer 1
10
27.209980
20
96.987158
11
27.724859
21
97.351224
0
LINE
8
Layer 1
10
27.724859
20
97.351224
11
28.245029
21
97.709205
0
LINE
8
Layer 1
10
28.245029
20
97.709205
11
28.768903
21
98.061365
0
LINE
8
Layer 1
10
28.768903
20
98.061365
11
29.297011
21
98.405323
0
LINE
8
Layer 1
10
29.297011
20
98.405323
11
29.829881
21
98.743196
0
LINE
8
Layer 1
10
29.829881
20
98.743196
11
30.366985
21
99.074189
0
LINE
8
Layer 1
10
30.366985
20
99.074189
11
30.908057
21
99.399361
0
LINE
8
Layer 1
10
30.908057
20
99.399361
11
31.452833
21
99.716332
0
LINE
8
Layer 1
10
31.452833
20
99.716332
11
32.001843
21
100.027217
0
LINE
8
Layer 1
10
32.001843
20
100.027217
11
32.555086
21
100.331223
0
LINE
8
Layer 1
10
32.555086
20
100.331223
11
33.112033
21
100.628349
0
LINE
8
Layer 1
10
33.112033
20
100.628349
11
33.672949
21
100.917274
0
LINE
8
Layer 1
10
33.672949
20
100.917274
11
34.237040
21
101.200378
0
LINE
8
Layer 1
10
34.237040
20
101.200378
11
34.804042
21
101.475280
0
LINE
8
Layer 1
10
34.804042
20
101.475280
11
35.375012
21
101.743302
0
LINE
8
Layer 1
10
35.375012
20
101.743302
11
35.949951
21
102.004181
0
LINE
8
Layer 1
10
35.949951
20
102.004181
11
36.527006
21
102.258181
0
LINE
8
Layer 1
10
36.527006
20
102.258181
11
37.108030
21
102.505301
0
LINE
8
Layer 1
10
37.108030
20
102.505301
11
37.691965
21
102.744220
0
LINE
8
Layer 1
10
37.691965
20
102.744220
11
38.279075
21
102.975201
0
LINE
8
Layer 1
10
38.279075
20
102.975201
11
38.868036
21
103.200361
0
LINE
8
Layer 1
10
38.868036
20
103.200361
11
39.460967
21
103.417319
0
LINE
8
Layer 1
10
39.460967
20
103.417319
11
40.056014
21
103.626339
0
LINE
8
Layer 1
10
40.056014
20
103.626339
11
40.653972
21
103.828216
0
LINE
8
Layer 1
10
40.653972
20
103.828216
11
41.254046
21
104.022156
0
LINE
8
Layer 1
10
41.254046
20
104.022156
11
41.857031
21
104.209216
0
LINE
8
Layer 1
10
41.857031
20
104.209216
11
42.461867
21
104.388338
0
LINE
8
Layer 1
10
42.461867
20
104.388338
11
43.068821
21
104.559259
0
LINE
8
Layer 1
10
43.068821
20
104.559259
11
43.677891
21
104.723301
0
LINE
8
Layer 1
10
43.677891
20
104.723301
11
44.288813
21
104.879140
0
LINE
8
Layer 1
10
44.288813
20
104.879140
11
44.902910
21
105.027306
0
LINE
8
Layer 1
10
44.902910
20
105.027306
11
45.518066
21
105.168329
0
LINE
8
Layer 1
10
45.518066
20
105.168329
11
46.134015
21
105.300356
0
LINE
8
Layer 1
10
46.134015
20
105.300356
11
46.752874
21
105.425239
0
LINE
8
Layer 1
10
46.752874
20
105.425239
11
47.373057
21
105.543243
0
LINE
8
Layer 1
10
47.373057
20
105.543243
11
47.994033
21
105.652251
0
LINE
8
Layer 1
10
47.994033
20
105.652251
11
48.616862
21
105.753322
0
LINE
8
Layer 1
10
48.616862
20
105.753322
11
49.241013
21
105.847249
0
LINE
8
Layer 1
10
49.241013
20
105.847249
11
49.865958
21
105.933239
0
LINE
8
Layer 1
10
49.865958
20
105.933239
11
50.491961
21
106.011291
0
LINE
8
Layer 1
10
50.491961
20
106.011291
11
51.119023
21
106.081141
0
LINE
8
Layer 1
10
51.119023
20
106.081141
11
51.746879
21
106.143318
 0 
ENDSEC
 0 
EOF